STARTFONT 2.1
COMMENT
COMMENT Converted from OpenType font "BeVietnam-Bold.ttf" by "otf2bdf 3.0".
COMMENT
FONT -FreeType-Be Vietnam-Bold-R-Normal--39-280-100-100-P-193-ISO10646-1
SIZE 28 100 100
FONTBOUNDINGBOX 61 55 -18 -10
STARTPROPERTIES 19
FOUNDRY "FreeType"
FAMILY_NAME "Be Vietnam"
WEIGHT_NAME "Bold"
SLANT "R"
SETWIDTH_NAME "Normal"
ADD_STYLE_NAME ""
PIXEL_SIZE 39
POINT_SIZE 280
RESOLUTION_X 100
RESOLUTION_Y 100
SPACING "P"
AVERAGE_WIDTH 193
CHARSET_REGISTRY "ISO10646"
CHARSET_ENCODING "1"
FONT_ASCENT 46
FONT_DESCENT 10
COPYRIGHT "Copyright 2019 The Bevietnam Project Authors (https://github.com/bettergui/beVietnam)"
_OTF_FONTFILE "BeVietnam-Bold.ttf"
_OTF_PSNAME "BeVietnam-Bold"
ENDPROPERTIES
CHARS 445
STARTCHAR 000D
ENCODING 13
SWIDTH 591 0
DWIDTH 23 0
BBX 0 0 0 0
BITMAP
ENDCHAR
STARTCHAR 0020
ENCODING 32
SWIDTH 205 0
DWIDTH 8 0
BBX 0 0 0 0
BITMAP
ENDCHAR
STARTCHAR 0021
ENCODING 33
SWIDTH 257 0
DWIDTH 10 0
BBX 5 28 3 0
BITMAP
F8
F8
F8
F8
F8
F8
F8
F8
F8
F8
F8
F8
F8
F8
F8
F8
F0
F0
F0
00
00
00
00
F8
F8
F8
F8
F8
ENDCHAR
STARTCHAR 0022
ENCODING 34
SWIDTH 514 0
DWIDTH 20 0
BBX 16 12 2 19
BITMAP
0002
180E
301C
6038
E030
E030
E038
FC3F
FE3F
FE3F
7C3F
7C1E
ENDCHAR
STARTCHAR 0023
ENCODING 35
SWIDTH 874 0
DWIDTH 34 0
BBX 29 27 3 0
BITMAP
003E0F80
003C0F00
003C0F00
007C1F00
007C1F00
00781F00
00781E00
1FFFFFF8
1FFFFFF0
3FFFFFF0
3FFFFFF0
00F03C00
01F07C00
01F07C00
01E07C00
01E07800
01E07800
7FFFFFC0
FFFFFFC0
FFFFFFC0
FFFFFFC0
07C0F000
07C1F000
07C1F000
0781E000
0781E000
0F83E000
ENDCHAR
STARTCHAR 0024
ENCODING 36
SWIDTH 565 0
DWIDTH 22 0
BBX 21 33 1 -3
BITMAP
003000
003000
003000
01FE00
07FF80
1FFFC0
3FFFE0
3FBFE0
7E33F0
7E31F0
7C31F0
7E31F8
7E3000
3FB000
3FF800
1FFF00
0FFFC0
03FFE0
007FF0
0037F8
0031F8
FC30F8
7C30F8
7E30F8
7F31F8
3FB7F0
3FFFF0
1FFFE0
0FFFC0
03FF00
003000
003000
003000
ENDCHAR
STARTCHAR 0025
ENCODING 37
SWIDTH 797 0
DWIDTH 31 0
BBX 27 28 2 0
BITMAP
08000000
7F003C00
7F807C00
FFC07800
E3C0F800
E1C0F000
E1C1F000
E3C1E000
FFC3E000
7F83C000
7F07C000
0C078000
000F8000
000F0000
001F0000
001E0000
003E0000
003C0F00
007C1FC0
00783FE0
00F87DE0
00F078E0
01F078E0
01E078E0
03E078E0
03C03FE0
07C03FC0
07801FC0
ENDCHAR
STARTCHAR 0026
ENCODING 38
SWIDTH 642 0
DWIDTH 25 0
BBX 25 28 1 0
BITMAP
003C0000
01FF8000
07FFC000
07FFE000
0FFFF000
0FC3F000
0F81F000
0F81F000
0F81F000
0F800000
0FC00000
07E00000
03F00000
03F87C00
07F8F800
1FFCF800
3FFFF000
7E3FF000
7C1FE000
7C0FC000
FC07E000
FC07E000
7C0FF000
7F3FF800
7FFEFC00
3FFE7E00
1FF83F00
0FF01F80
ENDCHAR
STARTCHAR 0027
ENCODING 39
SWIDTH 282 0
DWIDTH 11 0
BBX 6 12 3 20
BITMAP
78
FC
FC
FC
FC
3C
0C
0C
1C
18
70
60
ENDCHAR
STARTCHAR 0028
ENCODING 40
SWIDTH 488 0
DWIDTH 19 0
BBX 11 39 4 -9
BITMAP
0060
01E0
03C0
0780
0780
0F00
1F00
1F00
3E00
3E00
3E00
7C00
7C00
7C00
7C00
F800
F800
F800
F800
F800
F800
F800
F800
F800
7C00
7C00
7C00
7C00
3C00
3E00
3E00
1E00
1F00
0F00
0780
0780
03C0
01E0
0060
ENDCHAR
STARTCHAR 0029
ENCODING 41
SWIDTH 540 0
DWIDTH 21 0
BBX 11 39 6 -9
BITMAP
E000
F000
7800
3C00
3E00
1E00
1F00
0F80
0F80
0780
07C0
07C0
07C0
03E0
03E0
03E0
03E0
03E0
03E0
03E0
03E0
03E0
03E0
03E0
03E0
03E0
07C0
07C0
07C0
0780
0F80
0F80
1F00
1E00
1E00
3C00
7800
F000
E000
ENDCHAR
STARTCHAR 002A
ENCODING 42
SWIDTH 514 0
DWIDTH 20 0
BBX 13 14 4 16
BITMAP
0600
0600
0600
C630
F678
FFF0
3FC0
1F80
7FE0
FFF8
E670
C610
0600
0600
ENDCHAR
STARTCHAR 002B
ENCODING 43
SWIDTH 565 0
DWIDTH 22 0
BBX 17 16 3 4
BITMAP
03E000
03E000
03E000
03E000
03E000
03E000
FFFF80
FFFF80
FFFF80
FFFF80
03E000
03E000
03E000
03E000
03E000
03E000
ENDCHAR
STARTCHAR 002C
ENCODING 44
SWIDTH 308 0
DWIDTH 12 0
BBX 7 12 3 -7
BITMAP
78
FC
FC
FE
FE
3E
0C
0C
0C
18
78
60
ENDCHAR
STARTCHAR 002D
ENCODING 45
SWIDTH 591 0
DWIDTH 23 0
BBX 14 4 5 10
BITMAP
FFFC
FFFC
FFFC
FFFC
ENDCHAR
STARTCHAR 002E
ENCODING 46
SWIDTH 308 0
DWIDTH 12 0
BBX 6 6 3 0
BITMAP
38
7C
FC
FC
FC
78
ENDCHAR
STARTCHAR 002F
ENCODING 47
SWIDTH 514 0
DWIDTH 20 0
BBX 19 39 1 -8
BITMAP
0003E0
0007C0
0007C0
0007C0
000F80
000F80
000F80
001F00
001F00
003F00
003E00
003E00
007E00
007C00
007C00
00F800
00F800
00F800
01F000
01F000
01F000
03E000
03E000
03E000
07C000
07C000
0FC000
0F8000
0F8000
1F0000
1F0000
1F0000
3E0000
3E0000
3E0000
7C0000
7C0000
7C0000
F80000
ENDCHAR
STARTCHAR 0030
ENCODING 48
SWIDTH 617 0
DWIDTH 24 0
BBX 21 29 2 -1
BITMAP
01F800
07FE00
1FFF80
3FFFC0
3FFFC0
7F0FE0
7E07E0
FC03F0
FC03F0
FC03F0
FC03F0
FC03F0
FC03F8
FC03F8
FC03F8
FC03F8
FC03F8
FC03F0
FC03F0
FC03F0
FC03F0
FC03F0
7E07E0
7F0FE0
3FFFC0
3FFFC0
1FFF80
07FE00
00E000
ENDCHAR
STARTCHAR 0031
ENCODING 49
SWIDTH 514 0
DWIDTH 20 0
BBX 16 27 3 0
BITMAP
07E0
0FE0
1FE0
3FE0
FFE0
FFE0
FBE0
F3E0
E3E0
C3E0
83E0
03E0
03E0
03E0
03E0
03E0
03E0
03E0
03E0
03E0
03E0
03E0
FFFF
FFFF
FFFF
FFFF
FFFF
ENDCHAR
STARTCHAR 0032
ENCODING 50
SWIDTH 591 0
DWIDTH 23 0
BBX 19 28 2 0
BITMAP
01F000
0FFE00
1FFF00
3FFF80
7FFFC0
7E0FC0
7C07E0
FC03E0
FC03E0
F803E0
0007E0
0007C0
000FC0
000F80
001F80
003F00
00FE00
01FC00
03F800
07F000
0FC000
3F8000
7F0000
FFFFE0
FFFFE0
FFFFE0
FFFFE0
FFFFE0
ENDCHAR
STARTCHAR 0033
ENCODING 51
SWIDTH 591 0
DWIDTH 23 0
BBX 19 28 2 0
BITMAP
03F800
0FFE00
1FFF80
3FFFC0
7FFFC0
7E07E0
FC07E0
F803E0
0003E0
0007E0
0007E0
001FC0
01FF80
01FF00
01FF00
01FFC0
000FC0
0007E0
0003E0
0003E0
F803E0
F803E0
FC07E0
FFBFE0
7FFFC0
3FFF80
1FFF00
07FC00
ENDCHAR
STARTCHAR 0034
ENCODING 52
SWIDTH 591 0
DWIDTH 23 0
BBX 21 27 1 0
BITMAP
003FC0
003FC0
007FC0
007FC0
00FFC0
01FFC0
01FFC0
03FFC0
07EFC0
07CFC0
0FCFC0
0F8FC0
1F0FC0
3F0FC0
3E0FC0
7C0FC0
FFFFF8
FFFFF8
FFFFF8
FFFFF8
FFFFF8
000FC0
000FC0
000FC0
000FC0
000FC0
000FC0
ENDCHAR
STARTCHAR 0035
ENCODING 53
SWIDTH 591 0
DWIDTH 23 0
BBX 20 27 2 0
BITMAP
7FFFC0
7FFFC0
7FFFC0
7FFFC0
7FFFC0
780000
780000
780000
780000
78FE00
7BFF80
FFFFC0
FFFFC0
FE0FE0
FC07E0
0003E0
0003E0
0003F0
0003E0
FC03E0
FC07E0
7E07E0
7FFFC0
3FFFC0
1FFF80
0FFF00
03FC00
ENDCHAR
STARTCHAR 0036
ENCODING 54
SWIDTH 565 0
DWIDTH 22 0
BBX 19 27 2 0
BITMAP
00F800
01F000
03F000
03E000
07C000
0FC000
0F8000
1F0000
1F0000
3E7C00
7DFF00
7FFF80
7FFFC0
FE0FC0
FC07E0
F803E0
F803E0
F803E0
F803E0
F803E0
F803E0
FC07E0
7E0FC0
7FFFC0
3FFF80
1FFF00
07FC00
ENDCHAR
STARTCHAR 0037
ENCODING 55
SWIDTH 514 0
DWIDTH 20 0
BBX 18 27 1 0
BITMAP
FFFFC0
FFFFC0
FFFFC0
FFFFC0
FFFFC0
0007C0
000FC0
000F80
001F80
001F00
003F00
003E00
003E00
007E00
007C00
00FC00
00F800
01F800
01F000
03F000
03E000
07E000
07C000
0FC000
0FC000
1F8000
1F8000
ENDCHAR
STARTCHAR 0038
ENCODING 56
SWIDTH 591 0
DWIDTH 23 0
BBX 20 29 2 -1
BITMAP
00F000
07FE00
1FFF80
3FFFC0
3FFFC0
7E07E0
7C03E0
7C03E0
7C03E0
7C03E0
7C03E0
3E07C0
3FFFC0
0FFF80
1FFF80
3FFFC0
7E07E0
7C03E0
FC03F0
F801F0
F801F0
FC03F0
FC03F0
7E07F0
7FFFE0
3FFFC0
1FFF80
0FFF00
006000
ENDCHAR
STARTCHAR 0039
ENCODING 57
SWIDTH 565 0
DWIDTH 22 0
BBX 19 28 2 0
BITMAP
01F000
0FFE00
1FFF00
3FFF80
7FFFC0
FE0FC0
FC07E0
F803E0
F803E0
F803E0
F803E0
F803E0
FC07E0
FE07E0
7FBFE0
7FFFC0
3FFFC0
0FFF80
000F80
001F00
003F00
003E00
007C00
00FC00
01F800
01F000
03F000
07E000
ENDCHAR
STARTCHAR 003A
ENCODING 58
SWIDTH 308 0
DWIDTH 12 0
BBX 6 20 3 1
BITMAP
78
FC
FC
FC
78
10
00
00
00
00
00
00
00
00
30
7C
FC
FC
FC
78
ENDCHAR
STARTCHAR 003B
ENCODING 59
SWIDTH 334 0
DWIDTH 13 0
BBX 7 27 4 -6
BITMAP
78
FC
FC
FC
78
20
00
00
00
00
00
00
00
00
00
78
FC
FC
FE
FE
1E
0C
0C
0C
18
70
60
ENDCHAR
STARTCHAR 003C
ENCODING 60
SWIDTH 565 0
DWIDTH 22 0
BBX 15 19 4 3
BITMAP
0006
001E
007E
00FE
03FE
0FF8
3FE0
FF80
FE00
F800
FE00
FF80
3FF0
0FFC
03FE
00FE
003E
000E
0002
ENDCHAR
STARTCHAR 003D
ENCODING 61
SWIDTH 694 0
DWIDTH 27 0
BBX 18 13 5 5
BITMAP
FFFFC0
FFFFC0
FFFFC0
FFFFC0
000000
000000
000000
000000
FFFFC0
FFFFC0
FFFFC0
FFFFC0
FFFFC0
ENDCHAR
STARTCHAR 003E
ENCODING 62
SWIDTH 565 0
DWIDTH 22 0
BBX 15 19 4 3
BITMAP
8000
E000
F800
FE00
FF80
7FE0
1FF8
03FE
00FE
007E
01FE
07FC
1FF0
7FC0
FF00
FC00
F800
E000
8000
ENDCHAR
STARTCHAR 003F
ENCODING 63
SWIDTH 565 0
DWIDTH 22 0
BBX 19 28 2 0
BITMAP
01F000
0FFE00
1FFF00
3FFF80
7FFFC0
7F1FC0
FC07E0
FC07E0
FC07E0
F807E0
0007C0
000FC0
001F80
003F80
007F00
00FE00
01FC00
01F800
01F000
03F000
000000
000000
000000
01E000
03F000
03F000
03F000
01E000
ENDCHAR
STARTCHAR 0040
ENCODING 64
SWIDTH 1002 0
DWIDTH 39 0
BBX 34 34 3 -6
BITMAP
0003E00000
003FFF0000
00FFFFC000
03FFFFE000
07FC0FF000
0FC001FC00
1F80007C00
3E00003E00
3C00001F00
7C078F0F00
781FEF0F80
783FEF0780
F07FFF0780
F07C3F0780
F0781F03C0
F0F81F03C0
F0F80F03C0
F0F80F03C0
F0F80F0380
F0F81F0780
F07C1F0780
F07C3F0F00
F83FF7FF00
783FF7FE00
7C0FC1F800
7C00000000
3E00000000
1F00000000
1F80000000
0FF0000000
07FF800000
01FFFFC000
00FFFFC000
001FFFC000
ENDCHAR
STARTCHAR 0041
ENCODING 65
SWIDTH 668 0
DWIDTH 26 0
BBX 24 27 1 0
BITMAP
007E00
007E00
007F00
00FF00
00FF00
00FF80
01FF80
01F7C0
01E7C0
03E7C0
03E3E0
07C3E0
07C3E0
07C1F0
0F81F0
0F81F0
0FFFF8
1FFFF8
1FFFF8
1FFFFC
3E007C
3E007E
3E003E
7C003E
7C003F
FC001F
FC001F
ENDCHAR
STARTCHAR 0042
ENCODING 66
SWIDTH 617 0
DWIDTH 24 0
BBX 21 27 2 0
BITMAP
FFFE00
FFFF80
FFFFC0
FFFFE0
FC0FE0
FC03E0
FC03E0
FC03E0
FC03E0
FC03E0
FC07C0
FFFF80
FFFE00
FFFFC0
FFFFE0
FC03F0
FC01F0
FC00F8
FC00F8
FC00F8
FC00F8
FC01F8
FC07F0
FFFFF0
FFFFE0
FFFFC0
FFFF00
ENDCHAR
STARTCHAR 0043
ENCODING 67
SWIDTH 694 0
DWIDTH 27 0
BBX 24 28 2 0
BITMAP
003E00
03FFC0
07FFE0
0FFFF0
1FFFF8
3F81FC
7F00FE
7E007E
7C003E
FC003F
FC0000
F80000
F80000
F80000
F80000
F80000
F80000
FC0000
FC0000
FC003E
7E003E
7E007E
3F00FC
3FE7FC
1FFFF8
0FFFF0
07FFE0
01FF80
ENDCHAR
STARTCHAR 0044
ENCODING 68
SWIDTH 668 0
DWIDTH 26 0
BBX 23 27 2 0
BITMAP
FFFE00
FFFF80
FFFFE0
FFFFF0
FFFFF8
F803F8
F801FC
F800FC
F800FC
F8007E
F8007E
F8007E
F8007E
F8007E
F8007E
F8007E
F8007E
F8007E
F800FC
F800FC
F801FC
F807F8
FFFFF0
FFFFE0
FFFFC0
FFFF80
FFFC00
ENDCHAR
STARTCHAR 0045
ENCODING 69
SWIDTH 565 0
DWIDTH 22 0
BBX 18 27 2 0
BITMAP
FFFFC0
FFFFC0
FFFFC0
FFFFC0
FC0000
FC0000
FC0000
FC0000
FC0000
FC0000
FC0000
FFFF00
FFFF00
FFFF00
FFFF00
FC0000
FC0000
FC0000
FC0000
FC0000
FC0000
FC0000
FFFFC0
FFFFC0
FFFFC0
FFFFC0
FFFFC0
ENDCHAR
STARTCHAR 0046
ENCODING 70
SWIDTH 488 0
DWIDTH 19 0
BBX 18 27 2 0
BITMAP
FFFFC0
FFFFC0
FFFFC0
FFFFC0
FC0000
FC0000
FC0000
FC0000
FC0000
FC0000
FC0000
FFFF00
FFFF00
FFFF00
FFFF00
FC0000
FC0000
FC0000
FC0000
FC0000
FC0000
FC0000
FC0000
FC0000
FC0000
FC0000
FC0000
ENDCHAR
STARTCHAR 0047
ENCODING 71
SWIDTH 694 0
DWIDTH 27 0
BBX 24 28 2 0
BITMAP
007E00
03FFC0
07FFE0
0FFFF0
1FFFF8
3F81FC
3F00FE
7E007E
7C003E
FC0000
FC0000
F80000
F80000
F807FF
F807FF
F807FF
F807FF
F8001F
FC003F
FC003F
7C003F
7E007F
3F007F
3FC1FF
1FFFEF
0FFFCF
07FF8F
01FF0F
ENDCHAR
STARTCHAR 0048
ENCODING 72
SWIDTH 668 0
DWIDTH 26 0
BBX 22 27 2 0
BITMAP
FC007C
FC007C
FC007C
FC007C
FC007C
FC007C
FC007C
FC007C
FC007C
FC007C
FC007C
FFFFFC
FFFFFC
FFFFFC
FFFFFC
FC007C
FC007C
FC007C
FC007C
FC007C
FC007C
FC007C
FC007C
FC007C
FC007C
FC007C
FC007C
ENDCHAR
STARTCHAR 0049
ENCODING 73
SWIDTH 257 0
DWIDTH 10 0
BBX 6 27 2 0
BITMAP
FC
FC
FC
FC
FC
FC
FC
FC
FC
FC
FC
FC
FC
FC
FC
FC
FC
FC
FC
FC
FC
FC
FC
FC
FC
FC
FC
ENDCHAR
STARTCHAR 004A
ENCODING 74
SWIDTH 360 0
DWIDTH 14 0
BBX 10 27 2 0
BITMAP
0FC0
0FC0
0FC0
0FC0
0FC0
0FC0
0FC0
0FC0
0FC0
0FC0
0FC0
0FC0
0FC0
0FC0
0FC0
0FC0
0FC0
0FC0
0FC0
0FC0
0FC0
0FC0
1FC0
FF80
FF80
FF00
FC00
ENDCHAR
STARTCHAR 004B
ENCODING 75
SWIDTH 642 0
DWIDTH 25 0
BBX 21 27 2 0
BITMAP
FC01F8
FC03F0
FC07E0
FC0FC0
FC1F80
FC3F80
FC7F00
FC7E00
FCFC00
FDF800
FFF000
FFF000
FFF000
FFF800
FFF800
FFFC00
FE7E00
FC3E00
FC3F00
FC1F80
FC1F80
FC0FC0
FC07E0
FC07E0
FC03F0
FC01F8
FC01F8
ENDCHAR
STARTCHAR 004C
ENCODING 76
SWIDTH 514 0
DWIDTH 20 0
BBX 17 27 2 0
BITMAP
FC0000
FC0000
FC0000
FC0000
FC0000
FC0000
FC0000
FC0000
FC0000
FC0000
FC0000
FC0000
FC0000
FC0000
FC0000
FC0000
FC0000
FC0000
FC0000
FC0000
FC0000
FC0000
FFFF80
FFFF80
FFFF80
FFFF80
FFFF80
ENDCHAR
STARTCHAR 004D
ENCODING 77
SWIDTH 822 0
DWIDTH 32 0
BBX 28 27 2 0
BITMAP
FF800FF0
FF800FF0
FF801FF0
FFC01FF0
FFC01FF0
FFC03FF0
FFE03FF0
FFE03FF0
FFE07FF0
FFF07DF0
FDF07DF0
FDF0FDF0
FDF8F9F0
FCF9F9F0
FCFDF1F0
FC7DF1F0
FC7FF1F0
FC7FE1F0
FC3FE1F0
FC3FE1F0
FC3FC1F0
FC1FC1F0
FC1FC1F0
FC1F81F0
FC0F81F0
FC0F81F0
FC0F01F0
ENDCHAR
STARTCHAR 004E
ENCODING 78
SWIDTH 694 0
DWIDTH 27 0
BBX 23 27 2 0
BITMAP
FE003E
FF003E
FF003E
FF803E
FF803E
FFC03E
FFC03E
FFE03E
FFF03E
FFF03E
FDF83E
FDF83E
FCFC3E
FC7E3E
FC7E3E
FC3F3E
FC3F3E
FC1FBE
FC0FBE
FC0FFE
FC07FE
FC07FE
FC03FE
FC01FE
FC01FE
FC00FE
FC00FE
ENDCHAR
STARTCHAR 004F
ENCODING 79
SWIDTH 720 0
DWIDTH 28 0
BBX 25 28 2 0
BITMAP
003C0000
03FFC000
07FFE000
0FFFF800
1FFFF800
3FC3FC00
7F00FE00
7E007E00
7E007F00
FC003F00
FC003F00
FC003F00
F8001F00
F8001F00
F8001F80
F8001F00
F8001F00
FC003F00
FC003F00
FC003F00
7E007E00
7F007E00
3F81FE00
3FFFFC00
1FFFF800
0FFFF000
07FFE000
01FF8000
ENDCHAR
STARTCHAR 0050
ENCODING 80
SWIDTH 565 0
DWIDTH 22 0
BBX 20 27 2 0
BITMAP
FFFE00
FFFF00
FFFFC0
FFFFC0
FFFFE0
FC07E0
FC03F0
FC01F0
FC01F0
FC01F0
FC01F0
FC03F0
FC03F0
FC0FE0
FFFFE0
FFFFC0
FFFF80
FFFE00
FC0000
FC0000
FC0000
FC0000
FC0000
FC0000
FC0000
FC0000
FC0000
ENDCHAR
STARTCHAR 0051
ENCODING 81
SWIDTH 720 0
DWIDTH 28 0
BBX 25 30 2 -2
BITMAP
003C0000
03FFC000
07FFE000
0FFFF800
1FFFF800
3FC3FC00
7F00FE00
7E007E00
7E007F00
FC003F00
FC003F00
FC003F00
F8001F00
F8001F00
F8001F80
F8001F00
F8001F00
FC3E3F00
FC1E3F00
FC1F3F00
7E0FFF00
7F07FE00
3F83FE00
3FFFFC00
1FFFF800
0FFFF800
07FFF800
01FFFC00
00003E00
00001F00
ENDCHAR
STARTCHAR 0052
ENCODING 82
SWIDTH 591 0
DWIDTH 23 0
BBX 20 27 2 0
BITMAP
FFFE00
FFFF80
FFFFC0
FFFFE0
FC7FE0
FC07F0
FC03F0
FC01F0
FC01F0
FC01F0
FC03F0
FC03F0
FC0FE0
FFFFE0
FFFFC0
FFFF80
FFFC00
FC7E00
FC3F00
FC1F00
FC1F80
FC0F80
FC0FC0
FC07E0
FC07E0
FC03F0
FC01F0
ENDCHAR
STARTCHAR 0053
ENCODING 83
SWIDTH 591 0
DWIDTH 23 0
BBX 20 28 2 0
BITMAP
01F000
0FFE00
1FFF80
3FFFC0
7FFFC0
7E0FE0
7C07E0
FC03F0
FC03F0
FC0000
7E0000
7F8000
7FFC00
3FFF00
0FFFC0
03FFE0
003FE0
0007F0
0003F0
FC03F0
FC03F0
FC03F0
FE07F0
7F9FE0
7FFFE0
3FFFC0
0FFF80
07FE00
ENDCHAR
STARTCHAR 0054
ENCODING 84
SWIDTH 591 0
DWIDTH 23 0
BBX 21 27 1 0
BITMAP
FFFFF8
FFFFF8
FFFFF8
FFFFF8
00F800
00F800
00F800
00F800
00F800
00F800
00F800
00F800
00F800
00F800
00F800
00F800
00F800
00F800
00F800
00F800
00F800
00F800
00F800
00F800
00F800
00F800
00F800
ENDCHAR
STARTCHAR 0055
ENCODING 85
SWIDTH 668 0
DWIDTH 26 0
BBX 22 27 2 0
BITMAP
FC007C
FC007C
FC007C
FC007C
FC007C
FC007C
FC007C
FC007C
FC007C
FC007C
FC007C
FC007C
FC007C
FC007C
FC007C
FC007C
FC007C
FC007C
FC007C
7C00FC
7E00FC
7F03F8
3FFFF8
3FFFF0
1FFFE0
07FFC0
03FF00
ENDCHAR
STARTCHAR 0056
ENCODING 86
SWIDTH 642 0
DWIDTH 25 0
BBX 24 27 1 0
BITMAP
F8001F
F8003F
FC003E
7C003E
7C007E
7E007C
3E007C
3E00FC
3F00F8
1F00F8
1F01F8
1F81F0
0F81F0
0F83F0
0FC3E0
07C3E0
07C7E0
07C7C0
03E7C0
03EFC0
03EF80
03FF80
01FF80
01FF00
01FF00
00FF00
00FE00
ENDCHAR
STARTCHAR 0057
ENCODING 87
SWIDTH 977 0
DWIDTH 38 0
BBX 37 27 1 0
BITMAP
F800F800F8
F801F801F8
F801FC01F8
FC01FC01F0
7C01FC01F0
7C03FC01F0
7C03FE03F0
7E03FE03E0
3E07FE03E0
3E07DF03E0
3E07DF07E0
3F0FDF07C0
1F0F9F87C0
1F0F8F87C0
1F1F8F8FC0
1F9F0FCF80
0F9F07CF80
0F9F07CF80
0FBF07DF80
0FBE03FF00
07FE03FF00
07FE03FF00
07FC03FE00
03FC01FE00
03FC01FE00
03F801FE00
03F800FC00
ENDCHAR
STARTCHAR 0058
ENCODING 88
SWIDTH 668 0
DWIDTH 26 0
BBX 24 27 1 0
BITMAP
7C003F
7E007E
3F007E
3F00FC
1F81F8
0FC1F8
0FC3F0
07E3E0
03E7E0
03FFC0
01FF80
00FF80
00FF00
007E00
00FF00
00FF80
01FF80
03FFC0
03E7E0
07E3E0
0FC3F0
0F81F8
1F80F8
3F00FC
3F007E
7E007E
FC003F
ENDCHAR
STARTCHAR 0059
ENCODING 89
SWIDTH 642 0
DWIDTH 25 0
BBX 23 27 1 0
BITMAP
FC007E
7C007C
7E00FC
3E00F8
3F01F8
1F01F0
1F83F0
0F83E0
0FC7E0
07C7C0
07EFC0
03EF80
03FF80
01FF00
01FF00
00FE00
00FE00
007C00
007C00
007C00
007C00
007C00
007C00
007C00
007C00
007C00
007C00
ENDCHAR
STARTCHAR 005A
ENCODING 90
SWIDTH 617 0
DWIDTH 24 0
BBX 20 27 2 0
BITMAP
FFFFF0
FFFFF0
FFFFF0
FFFFF0
FFFFF0
0007E0
000FE0
001FC0
001F80
003F00
007E00
00FE00
01FC00
01F800
03F000
07E000
0FE000
1FC000
1F8000
3F0000
7E0000
FE0000
FFFFF0
FFFFF0
FFFFF0
FFFFF0
FFFFF0
ENDCHAR
STARTCHAR 005B
ENCODING 91
SWIDTH 462 0
DWIDTH 18 0
BBX 13 40 3 -8
BITMAP
FFF8
FFF8
FFF8
FFF8
F000
F000
F000
F000
F000
F000
F000
F000
F000
F000
F000
F000
F000
F000
F000
F000
F000
F000
F000
F000
F000
F000
F000
F000
F000
F000
F000
F000
F000
F000
F000
FFF8
FFF8
FFF8
FFF8
FFF8
ENDCHAR
STARTCHAR 005C
ENCODING 92
SWIDTH 514 0
DWIDTH 20 0
BBX 19 39 1 -8
BITMAP
F80000
FC0000
7C0000
7C0000
3E0000
3E0000
3E0000
1F0000
1F0000
1F0000
0F8000
0F8000
0F8000
07C000
07C000
07C000
03E000
03E000
03F000
01F000
01F000
00F800
00F800
00F800
007C00
007C00
007C00
003E00
003E00
003E00
001F00
001F00
001F80
000F80
000F80
000FC0
0007C0
0007C0
0003E0
ENDCHAR
STARTCHAR 005D
ENCODING 93
SWIDTH 462 0
DWIDTH 18 0
BBX 12 40 3 -8
BITMAP
FFF0
FFF0
FFF0
FFF0
00F0
00F0
00F0
00F0
00F0
00F0
00F0
00F0
00F0
00F0
00F0
00F0
00F0
00F0
00F0
00F0
00F0
00F0
00F0
00F0
00F0
00F0
00F0
00F0
00F0
00F0
00F0
00F0
00F0
00F0
00F0
FFF0
FFF0
FFF0
FFF0
FFF0
ENDCHAR
STARTCHAR 005E
ENCODING 94
SWIDTH 411 0
DWIDTH 16 0
BBX 15 8 1 22
BITMAP
0FC0
1FE0
3FF0
3FF0
7CF8
7CF8
F87C
F83E
ENDCHAR
STARTCHAR 005F
ENCODING 95
SWIDTH 694 0
DWIDTH 27 0
BBX 19 4 4 0
BITMAP
FFFFE0
FFFFE0
FFFFE0
FFFFE0
ENDCHAR
STARTCHAR 0060
ENCODING 96
SWIDTH 282 0
DWIDTH 11 0
BBX 9 8 1 24
BITMAP
FC00
7C00
3E00
3E00
1F00
1F00
0F80
0780
ENDCHAR
STARTCHAR 0061
ENCODING 97
SWIDTH 617 0
DWIDTH 24 0
BBX 21 21 1 0
BITMAP
03F1F8
0FF9F8
1FFDF8
3FFFF8
3FDFF8
7F07F8
7E03F8
7C01F8
7C01F8
FC01F8
FC01F8
FC01F8
FC01F8
7C01F8
7E03F8
7E03F8
7F8FF8
3FFFF8
1FFDF8
1FF9F8
07F1F8
ENDCHAR
STARTCHAR 0062
ENCODING 98
SWIDTH 591 0
DWIDTH 23 0
BBX 20 29 2 0
BITMAP
FC0000
FC0000
FC0000
FC0000
FC0000
FC0000
FC0000
FC0000
FC7E00
FCFF80
FDFFC0
FFFFE0
FFDFE0
FE07F0
FE03F0
FC03F0
FC01F0
FC01F0
FC01F0
FC01F0
FC01F0
FC03F0
FC03F0
FE07F0
FF0FE0
FFFFE0
FDFFC0
FDFF80
FC7F00
ENDCHAR
STARTCHAR 0063
ENCODING 99
SWIDTH 565 0
DWIDTH 22 0
BBX 19 21 2 0
BITMAP
03F800
0FFE00
1FFF00
3FFF80
7FBFC0
7E0FC0
FC07C0
F807E0
F80000
F80000
F80000
F80000
F80000
F807E0
FC07E0
FC07C0
7E1FC0
3FFF80
3FFF00
1FFE00
07FC00
ENDCHAR
STARTCHAR 0064
ENCODING 100
SWIDTH 591 0
DWIDTH 23 0
BBX 20 29 2 0
BITMAP
0003F0
0003F0
0003F0
0003F0
0003F0
0003F0
0003F0
0003F0
07E3F0
1FF3F0
3FFBF0
7FFFF0
7FBFF0
FE0FF0
FC07F0
FC03F0
F803F0
F803F0
F803F0
F803F0
F803F0
F803F0
FC07F0
FC07F0
7E0FF0
7FFFF0
3FFBF0
1FF3F0
0FE3F0
ENDCHAR
STARTCHAR 0065
ENCODING 101
SWIDTH 565 0
DWIDTH 22 0
BBX 19 21 2 0
BITMAP
03F800
0FFE00
1FFF00
3FFF80
7E0FC0
7C07C0
F807C0
F803E0
F803E0
FFFFE0
FFFFE0
FFFFE0
F80000
F80000
F807E0
FC07C0
7E0FC0
3FFF80
3FFF00
1FFE00
07FC00
ENDCHAR
STARTCHAR 0066
ENCODING 102
SWIDTH 385 0
DWIDTH 15 0
BBX 13 29 1 0
BITMAP
00F0
07F8
0FF8
0FF8
1F80
1F80
1F00
1F00
FFF8
FFF8
FFF8
FFF8
FFF8
1F00
1F00
1F00
1F00
1F00
1F00
1F00
1F00
1F00
1F00
1F00
1F00
1F00
1F00
1F00
1F00
ENDCHAR
STARTCHAR 0067
ENCODING 103
SWIDTH 591 0
DWIDTH 23 0
BBX 20 30 2 -9
BITMAP
07E3F0
1FF3F0
3FFBF0
7FFFF0
7F9FF0
FE07F0
FC07F0
FC03F0
F803F0
F803F0
F803F0
F803F0
F803F0
FC03F0
FC07F0
FE0FF0
7FFFF0
7FFFF0
3FFBF0
1FF3F0
07C3F0
0003F0
0003E0
0007E0
000FE0
03FFC0
03FFC0
03FF80
03FE00
00E000
ENDCHAR
STARTCHAR 0068
ENCODING 104
SWIDTH 591 0
DWIDTH 23 0
BBX 19 29 2 0
BITMAP
FC0000
FC0000
FC0000
FC0000
FC0000
FC0000
FC0000
FC0000
FC7E00
FCFF80
FDFFC0
FFFFC0
FFBFE0
FE07E0
FC07E0
FC03E0
FC03E0
FC03E0
FC03E0
FC03E0
FC03E0
FC03E0
FC03E0
FC03E0
FC03E0
FC03E0
FC03E0
FC03E0
FC03E0
ENDCHAR
STARTCHAR 0069
ENCODING 105
SWIDTH 282 0
DWIDTH 11 0
BBX 6 30 2 0
BITMAP
38
7C
FC
7C
7C
38
00
00
00
7C
7C
7C
7C
7C
7C
7C
7C
7C
7C
7C
7C
7C
7C
7C
7C
7C
7C
7C
7C
7C
ENDCHAR
STARTCHAR 006A
ENCODING 106
SWIDTH 282 0
DWIDTH 11 0
BBX 11 39 -2 -9
BITMAP
03C0
07C0
07E0
07E0
07C0
0380
0000
0000
0000
07C0
07C0
07C0
07C0
07C0
07C0
07C0
07C0
07C0
07C0
07C0
07C0
07C0
07C0
07C0
07C0
07C0
07C0
07C0
07C0
07C0
07C0
07C0
07C0
07C0
1FC0
FFC0
FF80
FF80
7C00
ENDCHAR
STARTCHAR 006B
ENCODING 107
SWIDTH 540 0
DWIDTH 21 0
BBX 18 29 2 0
BITMAP
FC0000
FC0000
FC0000
FC0000
FC0000
FC0000
FC0000
FC0000
FC0FC0
FC1F80
FC1F80
FC3F00
FC7E00
FCFC00
FDFC00
FDF800
FFF000
FFE000
FFE000
FFF000
FDF800
FCF800
FCFC00
FC7E00
FC3E00
FC3F00
FC1F80
FC0F80
FC0FC0
ENDCHAR
STARTCHAR 006C
ENCODING 108
SWIDTH 334 0
DWIDTH 13 0
BBX 10 29 2 0
BITMAP
FC00
FC00
FC00
FC00
FC00
FC00
FC00
FC00
FC00
FC00
FC00
FC00
FC00
FC00
FC00
FC00
FC00
FC00
FC00
FC00
FC00
FC00
FC00
FC00
7C00
7FC0
7FC0
3FC0
1FC0
ENDCHAR
STARTCHAR 006D
ENCODING 109
SWIDTH 900 0
DWIDTH 35 0
BBX 32 21 2 0
BITMAP
FC7C03E0
FCFF0FF8
FDFF9FFC
FFFFBFFE
FFFFFFFE
FE0FF07E
FC07E03E
FC07E03F
FC07E03F
FC07E03F
FC07E03F
FC07E03F
FC07E03F
FC07E03F
FC07E03F
FC07E03F
FC07E03F
FC07E03F
FC07E03F
FC07E03F
FC07E03F
ENDCHAR
STARTCHAR 006E
ENCODING 110
SWIDTH 591 0
DWIDTH 23 0
BBX 19 21 2 0
BITMAP
FC7E00
FCFF80
FDFFC0
FFFFC0
FFBFE0
FE07E0
FC07E0
FC03E0
FC03E0
FC03E0
FC03E0
FC03E0
FC03E0
FC03E0
FC03E0
FC03E0
FC03E0
FC03E0
FC03E0
FC03E0
FC03E0
ENDCHAR
STARTCHAR 006F
ENCODING 111
SWIDTH 565 0
DWIDTH 22 0
BBX 19 21 2 0
BITMAP
03F800
0FFE00
1FFF00
3FFF80
7FBFC0
7E0FC0
FC07E0
F807E0
F803E0
F803E0
F803E0
F803E0
F803E0
F803E0
FC07E0
FC07C0
7E1FC0
3FFF80
3FFF00
1FFE00
07FC00
ENDCHAR
STARTCHAR 0070
ENCODING 112
SWIDTH 617 0
DWIDTH 24 0
BBX 20 29 2 -8
BITMAP
FC7E00
FCFF80
FDFFC0
FFFFE0
FFDFE0
FE07F0
FE03F0
FC03F0
FC01F0
FC01F0
FC01F0
FC01F0
FC01F0
FC03F0
FC03F0
FE07F0
FF0FE0
FFFFE0
FDFFC0
FDFF80
FC7F00
FC0000
FC0000
FC0000
FC0000
FC0000
FC0000
FC0000
FC0000
ENDCHAR
STARTCHAR 0071
ENCODING 113
SWIDTH 617 0
DWIDTH 24 0
BBX 20 29 2 -8
BITMAP
07E3F0
1FF3F0
3FFBF0
7FFFF0
7FBFF0
7E07F0
FC07F0
FC03F0
F803F0
F803F0
F803F0
F803F0
F803F0
FC03F0
FC03F0
FE07F0
7F0FF0
7FFFF0
3FFFF0
1FFBF0
0FE3F0
0003F0
0003F0
0003F0
0003F0
0003F0
0003F0
0003F0
0003F0
ENDCHAR
STARTCHAR 0072
ENCODING 114
SWIDTH 385 0
DWIDTH 15 0
BBX 13 21 2 0
BITMAP
FC10
FCF8
FDF8
FFF8
FFF8
FF88
FE00
FC00
FC00
FC00
FC00
FC00
FC00
FC00
FC00
FC00
FC00
FC00
FC00
FC00
FC00
ENDCHAR
STARTCHAR 0073
ENCODING 115
SWIDTH 488 0
DWIDTH 19 0
BBX 16 21 2 0
BITMAP
0FE0
3FF8
7FFC
7FFE
F87E
F83E
F83F
F800
FF00
7FF0
3FFC
0FFE
01FE
003F
F81F
F81F
FC3F
FFFE
7FFE
3FFC
0FF0
ENDCHAR
STARTCHAR 0074
ENCODING 116
SWIDTH 411 0
DWIDTH 16 0
BBX 14 27 1 0
BITMAP
0F80
0F80
0F80
0F80
0F80
0F80
FFFC
FFFC
FFFC
FFFC
FFFC
0F80
0F80
0F80
0F80
0F80
0F80
0F80
0F80
0F80
0F80
0F80
0F80
0FFC
0FFC
07FC
03FC
ENDCHAR
STARTCHAR 0075
ENCODING 117
SWIDTH 565 0
DWIDTH 22 0
BBX 19 21 2 0
BITMAP
FC07E0
FC07E0
FC07E0
FC07E0
FC07E0
FC07E0
FC07E0
FC07E0
FC07E0
FC07E0
FC07E0
FC07E0
FC07E0
FC07E0
FC07E0
FE07E0
7F1FE0
7FFFE0
3FFFE0
3FF7E0
1FE7E0
ENDCHAR
STARTCHAR 0076
ENCODING 118
SWIDTH 540 0
DWIDTH 21 0
BBX 20 21 1 0
BITMAP
F801F0
F803F0
F803E0
7C03E0
7C07E0
7C07C0
3E07C0
3E07C0
3E0F80
1F0F80
1F0F80
1F1F00
0F9F00
0F9F00
0FBE00
07FE00
07FE00
07FC00
03FC00
03FC00
03F800
ENDCHAR
STARTCHAR 0077
ENCODING 119
SWIDTH 822 0
DWIDTH 32 0
BBX 30 21 1 0
BITMAP
F807807C
F80FC07C
F80FC07C
7C0FC078
7C1FE0F8
7C1FE0F8
7C1FE0F8
3C1FE0F0
3E3FF1F0
3E3FF1F0
3E3CF1F0
1E3CF9E0
1F7CFBE0
1F7CFBE0
1F787BE0
0FF87FC0
0FF87FC0
0FF83FC0
0FF03FC0
07F03F80
07F03F80
ENDCHAR
STARTCHAR 0078
ENCODING 120
SWIDTH 565 0
DWIDTH 22 0
BBX 20 21 1 0
BITMAP
FC03F0
7C07E0
7E07C0
3F0FC0
3F0F80
1F9F80
0F9F00
0FFE00
07FE00
03FC00
03FC00
03FC00
07FC00
07FE00
0FFF00
1F9F00
1F1F80
3F0FC0
3E0FC0
7E07E0
FC03E0
ENDCHAR
STARTCHAR 0079
ENCODING 121
SWIDTH 540 0
DWIDTH 21 0
BBX 20 30 1 -9
BITMAP
F801F0
FC03F0
7C03E0
7C03E0
7E07E0
3E07C0
3E07C0
3E0F80
1F0F80
1F0F80
0F1F00
0F9F00
0F9E00
07BE00
07FE00
07FC00
03FC00
03F800
03F800
01F800
01F000
01F000
03F000
03E000
07E000
1FC000
7FC000
7F8000
7F0000
380000
ENDCHAR
STARTCHAR 007A
ENCODING 122
SWIDTH 488 0
DWIDTH 19 0
BBX 16 21 2 0
BITMAP
FFFF
FFFF
FFFF
FFFF
FFFF
007E
00FC
00F8
01F0
03F0
07E0
0FC0
0F80
1F00
3F00
7E00
FC00
FFFF
FFFF
FFFF
FFFF
ENDCHAR
STARTCHAR 007B
ENCODING 123
SWIDTH 437 0
DWIDTH 17 0
BBX 12 43 3 -10
BITMAP
01F0
07F0
0FF0
0FF0
1F00
1F00
1F00
1F00
1F00
1F00
1F00
1F00
1F00
1F00
1F00
1F00
1F00
1F00
1E00
1E00
FC00
F800
FE00
1E00
1E00
1F00
1F00
1F00
1F00
1F00
1F00
1F00
1F00
1F00
1F00
1F00
1F00
1F00
1F80
0FF0
0FF0
07F0
00F0
ENDCHAR
STARTCHAR 007C
ENCODING 124
SWIDTH 282 0
DWIDTH 11 0
BBX 4 47 4 -10
BITMAP
F0
F0
F0
F0
F0
F0
F0
F0
F0
F0
F0
F0
F0
F0
F0
F0
F0
F0
F0
F0
F0
F0
F0
F0
F0
F0
F0
F0
F0
F0
F0
F0
F0
F0
F0
F0
F0
F0
F0
F0
F0
F0
F0
F0
F0
F0
F0
ENDCHAR
STARTCHAR 007D
ENCODING 125
SWIDTH 437 0
DWIDTH 17 0
BBX 13 43 3 -10
BITMAP
FC00
FF00
FF00
FF80
0F80
0780
0780
07C0
07C0
07C0
07C0
07C0
07C0
07C0
07C0
07C0
07C0
07C0
07C0
03C0
03F8
00F8
03F8
07C0
07C0
07C0
07C0
07C0
07C0
07C0
07C0
07C0
07C0
07C0
07C0
07C0
0780
0780
0F80
FF80
FF00
FE00
E000
ENDCHAR
STARTCHAR 007E
ENCODING 126
SWIDTH 591 0
DWIDTH 23 0
BBX 15 5 4 12
BITMAP
3F0E
7FFE
7FFE
F3FC
E070
ENDCHAR
STARTCHAR 00A0
ENCODING 160
SWIDTH 205 0
DWIDTH 8 0
BBX 0 0 0 0
BITMAP
ENDCHAR
STARTCHAR 00A1
ENCODING 161
SWIDTH 257 0
DWIDTH 10 0
BBX 5 29 3 -10
BITMAP
70
F8
F8
F8
F8
60
00
00
00
F0
F0
F0
F0
F8
F8
F8
F8
F8
F8
F8
F8
F8
F8
F8
F8
F8
F8
F8
F8
ENDCHAR
STARTCHAR 00A2
ENCODING 162
SWIDTH 591 0
DWIDTH 23 0
BBX 19 27 2 -3
BITMAP
00C000
00C000
00C000
03F800
0FFE00
1FFF00
3FFF80
7FFFC0
7CCFC0
FCC7C0
F8C7E0
F8C000
F8C000
F8C000
F8C000
F8C000
F8C7E0
FCC7E0
7CC7C0
7EDFC0
3FFF80
3FFF00
1FFE00
07FC00
00C000
00C000
00C000
ENDCHAR
STARTCHAR 00A3
ENCODING 163
SWIDTH 617 0
DWIDTH 24 0
BBX 20 28 2 0
BITMAP
01F800
0FFF00
1FFF80
3FFFC0
7FFFE0
7E07E0
7E07F0
FC03F0
FC03F0
7E0000
7E0000
7F0000
3F8000
1F8000
1FC000
FFFE00
FFFE00
FFFE00
07C000
07C000
07C000
078000
0F0000
FFFFF0
FFFFF0
FFFFF0
FFFFF0
FFFFF0
ENDCHAR
STARTCHAR 00A4
ENCODING 164
SWIDTH 617 0
DWIDTH 24 0
BBX 20 22 2 3
BITMAP
200040
7000E0
FBFCF0
7FFFF0
3FFFE0
3FFFC0
3E07C0
7C03E0
7801E0
7801F0
7800F0
7800F0
7800F0
7801F0
7C01E0
3E03E0
3F0FC0
3FFFE0
7FFFF0
FFFFF0
70F8F0
200060
ENDCHAR
STARTCHAR 00A5
ENCODING 165
SWIDTH 642 0
DWIDTH 25 0
BBX 23 27 1 0
BITMAP
FC007E
7C007C
7E00FC
3E00F8
3F01F8
1F01F0
1F83F0
0F83E0
0FC7E0
07C7C0
07EFC0
03EF80
03FF80
01FF00
01FF00
00FE00
0FFFE0
0FFFE0
0FFFE0
007C00
0FFFE0
0FFFE0
0FFFE0
007C00
007C00
007C00
007C00
ENDCHAR
STARTCHAR 00A6
ENCODING 166
SWIDTH 282 0
DWIDTH 11 0
BBX 4 47 4 -10
BITMAP
F0
F0
F0
F0
F0
F0
F0
F0
F0
F0
F0
F0
F0
F0
F0
F0
F0
F0
F0
F0
F0
00
00
00
00
00
00
F0
F0
F0
F0
F0
F0
F0
F0
F0
F0
F0
F0
F0
F0
F0
F0
F0
F0
F0
F0
ENDCHAR
STARTCHAR 00A7
ENCODING 167
SWIDTH 540 0
DWIDTH 21 0
BBX 18 28 2 0
BITMAP
03E000
1FFC00
3FFE00
7FFF00
7E3F00
7C1F80
7C0000
7E0000
3FE000
3FFC00
7FFF00
FFFF80
F83FC0
F80FC0
F807C0
FE07C0
7FEFC0
3FFF80
1FFF00
03FF00
003F80
001F80
FC0F80
FC1F80
7FFF80
3FFF00
1FFE00
0FF800
ENDCHAR
STARTCHAR 00A8
ENCODING 168
SWIDTH 462 0
DWIDTH 18 0
BBX 16 6 1 24
BITMAP
380E
7C1F
FC3F
FC3F
7C1F
380E
ENDCHAR
STARTCHAR 00A9
ENCODING 169
SWIDTH 797 0
DWIDTH 31 0
BBX 28 29 2 -1
BITMAP
00070000
00FFF000
03FFFC00
07FFFE00
1F803F00
1E000F80
3C0007C0
783F83C0
787FE1E0
F0FFF1E0
F1E0F8E0
E1C078E0
E3C020F0
E38000F0
E38000F0
E38000F0
E3C030F0
E1C078E0
F1E0F8E0
70FFF1E0
787FE1C0
783F83C0
3C000780
1E000F80
0F803F00
07FFFE00
03FFFC00
00FFF000
00060000
ENDCHAR
STARTCHAR 00AA
ENCODING 170
SWIDTH 154 0
DWIDTH 6 0
BBX 6 6 0 15
BITMAP
2C
7C
CC
CC
FC
7C
ENDCHAR
STARTCHAR 00AB
ENCODING 171
SWIDTH 694 0
DWIDTH 27 0
BBX 24 17 2 4
BITMAP
01F01F
03E03E
07C07C
0FC0F8
1F81F0
1F03E0
3E07E0
7C0FC0
F81F80
F80F80
7C0FC0
3E07E0
1F03F0
0F81F0
0FC0F8
07E07C
03F03E
ENDCHAR
STARTCHAR 00AC
ENCODING 172
SWIDTH 642 0
DWIDTH 25 0
BBX 19 11 3 10
BITMAP
FFFFE0
FFFFE0
FFFFE0
FFFFE0
FFFFE0
0001E0
0001E0
0001E0
0001E0
0001E0
0001E0
ENDCHAR
STARTCHAR 00AD
ENCODING 173
SWIDTH 591 0
DWIDTH 23 0
BBX 14 4 5 10
BITMAP
FFFC
FFFC
FFFC
FFFC
ENDCHAR
STARTCHAR 00AE
ENCODING 174
SWIDTH 334 0
DWIDTH 13 0
BBX 9 10 2 17
BITMAP
3E00
6300
DD80
9480
9C80
9480
D480
4180
3F00
0800
ENDCHAR
STARTCHAR 00AF
ENCODING 175
SWIDTH 360 0
DWIDTH 14 0
BBX 13 3 1 25
BITMAP
FFF8
FFF8
FFF8
ENDCHAR
STARTCHAR 00B0
ENCODING 176
SWIDTH 308 0
DWIDTH 12 0
BBX 9 8 2 26
BITMAP
3E00
7F00
F700
E380
E380
E700
7F00
3E00
ENDCHAR
STARTCHAR 00B1
ENCODING 177
SWIDTH 591 0
DWIDTH 23 0
BBX 16 23 4 0
BITMAP
03C0
03C0
03C0
03C0
03C0
03C0
FFFF
FFFF
FFFF
FFFF
03C0
03C0
03C0
03C0
03C0
03C0
0000
0000
0000
0000
FFFF
FFFF
FFFF
ENDCHAR
STARTCHAR 00B2
ENCODING 178
SWIDTH 282 0
DWIDTH 11 0
BBX 10 15 1 15
BITMAP
0E00
3F80
7F80
F3C0
E1C0
E1C0
03C0
0780
0F00
1E00
3C00
7800
FFC0
FFC0
FFC0
ENDCHAR
STARTCHAR 00B3
ENCODING 179
SWIDTH 308 0
DWIDTH 12 0
BBX 11 15 1 15
BITMAP
1F00
3F80
7FC0
F1C0
01E0
01C0
0FC0
0F80
0FC0
01E0
00E0
F1E0
FFC0
7FC0
3F80
ENDCHAR
STARTCHAR 00B4
ENCODING 180
SWIDTH 282 0
DWIDTH 11 0
BBX 9 8 1 24
BITMAP
0F80
1F80
1F00
3E00
3E00
7C00
7800
F800
ENDCHAR
STARTCHAR 00B5
ENCODING 181
SWIDTH 642 0
DWIDTH 25 0
BBX 22 29 2 -8
BITMAP
F807C0
F807C0
F807C0
F807C0
F807C0
F807C0
F807C0
F807C0
F807C0
F807C0
F807C0
F807C0
F807C0
FC0FC0
FC0FC0
FC0FC0
FE3FE0
FFFFFC
FFF7FC
FFE3FC
FFC1FC
F80000
F80000
F80000
F80000
F80000
F80000
F80000
F80000
ENDCHAR
STARTCHAR 00B6
ENCODING 182
SWIDTH 565 0
DWIDTH 22 0
BBX 19 27 1 0
BITMAP
0FFFE0
3FFFE0
7FFFE0
7FFFE0
FFF8E0
FFF8E0
FFF8E0
FFF8E0
FFF8E0
FFF8E0
FFF8E0
7FF8E0
3FF8E0
1FF8E0
07F8E0
0038E0
0038E0
0038E0
0038E0
0038E0
0038E0
0038E0
0038E0
0038E0
0038E0
0038E0
0038E0
ENDCHAR
STARTCHAR 00B7
ENCODING 183
SWIDTH 308 0
DWIDTH 12 0
BBX 6 6 3 11
BITMAP
78
FC
FC
FC
FC
78
ENDCHAR
STARTCHAR 00B8
ENCODING 184
SWIDTH 257 0
DWIDTH 10 0
BBX 8 10 1 -10
BITMAP
70
60
7E
FE
07
07
8F
FE
FE
30
ENDCHAR
STARTCHAR 00B9
ENCODING 185
SWIDTH 257 0
DWIDTH 10 0
BBX 9 15 1 15
BITMAP
1C00
3C00
7C00
FC00
FC00
9C00
1C00
1C00
1C00
1C00
1C00
1C00
FF80
FF80
FF80
ENDCHAR
STARTCHAR 00BA
ENCODING 186
SWIDTH 154 0
DWIDTH 6 0
BBX 6 6 0 15
BITMAP
38
7C
4C
CC
6C
78
ENDCHAR
STARTCHAR 00BB
ENCODING 187
SWIDTH 694 0
DWIDTH 27 0
BBX 24 17 1 4
BITMAP
FC0F80
7E07C0
3E03E0
1F01F0
0F80F8
07C0FC
03E07E
01F03F
01F81F
01F81F
03F03E
03E07E
07C0FC
0F81F8
1F01F0
3E03E0
7C07C0
ENDCHAR
STARTCHAR 00BC
ENCODING 188
SWIDTH 822 0
DWIDTH 32 0
BBX 30 27 1 0
BITMAP
1E0003C0
7E0007C0
FE000F80
FE000F80
FE001F00
DE001E00
9E003E00
1E007C00
1E007C00
1E00F800
FFC0F000
FFC1F000
FFC3E000
0003E0F8
0007C0F8
000781F8
000F83F8
001F03F8
001F0778
003E0678
003C0E78
007C1FFC
00F81FFC
00F81FFC
01F00078
01E00078
03E00078
ENDCHAR
STARTCHAR 00BD
ENCODING 189
SWIDTH 874 0
DWIDTH 34 0
BBX 32 27 1 0
BITMAP
1E0001E0
7E0003E0
FE0007C0
FE0007C0
FE000F80
DE000F00
9E001F00
1E003E00
1E003E00
1E007C00
FFC07C00
FFC0F800
FFC1F000
0001F07C
0003E0FE
0003E1FF
0007C1EF
000783C7
000F800F
001F000F
001F001E
003E003C
003C00F8
007C01E0
00F803FF
00F803FF
01F003FF
ENDCHAR
STARTCHAR 00BE
ENCODING 190
SWIDTH 848 0
DWIDTH 33 0
BBX 31 27 1 0
BITMAP
3F8003E0
7FC007C0
7FE007C0
71E00F80
01E00F00
07C01F00
07803E00
07C03E00
01E07C00
F1E07800
7BE0F800
7FC1F000
3FC1F000
1F03E078
0003C0F8
0007C1F8
000F81F8
000F83B8
001F0338
001E0738
003E0E38
007C0FFE
007C0FFE
00F80FFE
00F00038
01F00038
03E00038
ENDCHAR
STARTCHAR 00BF
ENCODING 191
SWIDTH 565 0
DWIDTH 22 0
BBX 19 29 2 -10
BITMAP
004000
01F000
01F000
01F000
01F000
00F000
000000
000000
000000
01F000
01F000
03F000
07E000
0FC000
1F8000
3F0000
7E0000
7C0000
FC0000
F807E0
F807E0
FC07E0
FC0FC0
FF3FC0
7FFF80
3FFF80
1FFF00
0FFC00
006000
ENDCHAR
STARTCHAR 00C0
ENCODING 192
SWIDTH 668 0
DWIDTH 26 0
BBX 24 38 1 0
BITMAP
07C000
03E000
03E000
01F000
00F000
00F800
007C00
003C00
000000
000000
000000
007E00
007E00
007F00
00FF00
00FF00
00FF80
01FF80
01F7C0
01E7C0
03E7C0
03E3E0
07C3E0
07C3E0
07C1F0
0F81F0
0F81F0
0FFFF8
1FFFF8
1FFFF8
1FFFFC
3E007C
3E007E
3E003E
7C003E
7C003F
FC001F
FC001F
ENDCHAR
STARTCHAR 00C1
ENCODING 193
SWIDTH 668 0
DWIDTH 26 0
BBX 24 38 1 0
BITMAP
0003E0
0007C0
0007C0
000F80
000F80
001F00
001E00
003E00
000000
000000
000000
007E00
007E00
007F00
00FF00
00FF00
00FF80
01FF80
01F7C0
01E7C0
03E7C0
03E3E0
07C3E0
07C3E0
07C1F0
0F81F0
0F81F0
0FFFF8
1FFFF8
1FFFF8
1FFFFC
3E007C
3E007E
3E003E
7C003E
7C003F
FC001F
FC001F
ENDCHAR
STARTCHAR 00C2
ENCODING 194
SWIDTH 668 0
DWIDTH 26 0
BBX 24 36 1 0
BITMAP
003E00
007E00
00FF00
01FF80
03E7C0
07C3E0
000000
000000
000000
007E00
007E00
007F00
00FF00
00FF00
00FF80
01FF80
01F7C0
01E7C0
03E7C0
03E3E0
07C3E0
07C3E0
07C1F0
0F81F0
0F81F0
0FFFF8
1FFFF8
1FFFF8
1FFFFC
3E007C
3E007E
3E003E
7C003E
7C003F
FC001F
FC001F
ENDCHAR
STARTCHAR 00C3
ENCODING 195
SWIDTH 668 0
DWIDTH 26 0
BBX 24 36 1 0
BITMAP
0060C0
01F9C0
03FFC0
03FFC0
038F80
000000
000000
000000
000000
007E00
007E00
007F00
00FF00
00FF00
00FF80
01FF80
01F7C0
01E7C0
03E7C0
03E3E0
07C3E0
07C3E0
07C1F0
0F81F0
0F81F0
0FFFF8
1FFFF8
1FFFF8
1FFFFC
3E007C
3E007E
3E003E
7C003E
7C003F
FC001F
FC001F
ENDCHAR
STARTCHAR 00C4
ENCODING 196
SWIDTH 668 0
DWIDTH 26 0
BBX 24 37 1 0
BITMAP
0380E0
07C1F0
07C3F0
0FC3F0
07C1F0
0781E0
000000
000000
000000
000000
007E00
007E00
007F00
00FF00
00FF00
00FF80
01FF80
01F7C0
01E7C0
03E7C0
03E3E0
07C3E0
07C3E0
07C1F0
0F81F0
0F81F0
0FFFF8
1FFFF8
1FFFF8
1FFFFC
3E007C
3E007E
3E003E
7C003E
7C003F
FC001F
FC001F
ENDCHAR
STARTCHAR 00C5
ENCODING 197
SWIDTH 668 0
DWIDTH 26 0
BBX 24 38 1 0
BITMAP
001C00
007E00
007F00
00E300
00E300
007700
007E00
003C00
000000
000000
000000
007E00
007E00
007F00
00FF00
00FF00
00FF80
01FF80
01F7C0
01E7C0
03E7C0
03E3E0
07C3E0
07C3E0
07C1F0
0F81F0
0F81F0
0FFFF8
1FFFF8
1FFFF8
1FFFFC
3E007C
3E007E
3E003E
7C003E
7C003F
FC001F
FC001F
ENDCHAR
STARTCHAR 00C6
ENCODING 198
SWIDTH 951 0
DWIDTH 37 0
BBX 36 27 0 0
BITMAP
0007FFFFF0
0007FFFFF0
000FFFFFF0
000FFFFFF0
001FBE0000
001FBE0000
003F3E0000
003F3E0000
007E3E0000
007E3E0000
00FC3E0000
00FC3FFFC0
01F83FFFC0
01F83FFFC0
03F83FFFC0
03F03E0000
07FFFE0000
07FFFE0000
0FFFFE0000
0FFFFE0000
1FC03E0000
1F803E0000
3F803FFFF0
3F003FFFF0
7F003FFFF0
7E003FFFF0
FE003FFFF0
ENDCHAR
STARTCHAR 00C7
ENCODING 199
SWIDTH 694 0
DWIDTH 27 0
BBX 24 38 2 -10
BITMAP
003E00
03FFC0
07FFE0
0FFFF0
1FFFF8
3F81FC
7F00FE
7E007E
7C003E
FC003F
FC0000
F80000
F80000
F80000
F80000
F80000
F80000
FC0000
FC0000
FC003E
7E003E
7E007E
3F00FC
3FE7FC
1FFFF8
0FFFF0
07FFE0
01FF80
003800
003800
003F00
007F80
000380
000380
000380
003F00
003F00
003C00
ENDCHAR
STARTCHAR 00C8
ENCODING 200
SWIDTH 565 0
DWIDTH 22 0
BBX 18 38 2 0
BITMAP
3E0000
1F0000
1F8000
0F8000
07C000
07C000
03E000
01E000
000000
000000
000000
FFFFC0
FFFFC0
FFFFC0
FFFFC0
FC0000
FC0000
FC0000
FC0000
FC0000
FC0000
FC0000
FFFF00
FFFF00
FFFF00
FFFF00
FC0000
FC0000
FC0000
FC0000
FC0000
FC0000
FC0000
FFFFC0
FFFFC0
FFFFC0
FFFFC0
FFFFC0
ENDCHAR
STARTCHAR 00C9
ENCODING 201
SWIDTH 565 0
DWIDTH 22 0
BBX 18 38 2 0
BITMAP
001F00
003F00
003E00
007C00
007C00
00F800
00F000
01F000
000000
000000
000000
FFFFC0
FFFFC0
FFFFC0
FFFFC0
FC0000
FC0000
FC0000
FC0000
FC0000
FC0000
FC0000
FFFF00
FFFF00
FFFF00
FFFF00
FC0000
FC0000
FC0000
FC0000
FC0000
FC0000
FC0000
FFFFC0
FFFFC0
FFFFC0
FFFFC0
FFFFC0
ENDCHAR
STARTCHAR 00CA
ENCODING 202
SWIDTH 565 0
DWIDTH 22 0
BBX 18 36 2 0
BITMAP
01F000
03F000
07F800
0FFC00
1F3E00
3E1F00
000000
000000
000000
FFFFC0
FFFFC0
FFFFC0
FFFFC0
FC0000
FC0000
FC0000
FC0000
FC0000
FC0000
FC0000
FFFF00
FFFF00
FFFF00
FFFF00
FC0000
FC0000
FC0000
FC0000
FC0000
FC0000
FC0000
FFFFC0
FFFFC0
FFFFC0
FFFFC0
FFFFC0
ENDCHAR
STARTCHAR 00CB
ENCODING 203
SWIDTH 565 0
DWIDTH 22 0
BBX 18 37 2 0
BITMAP
1C0700
3E0F80
3E1F80
7E1F80
3E0F80
3C0F00
000000
000000
000000
000000
FFFFC0
FFFFC0
FFFFC0
FFFFC0
FC0000
FC0000
FC0000
FC0000
FC0000
FC0000
FC0000
FFFF00
FFFF00
FFFF00
FFFF00
FC0000
FC0000
FC0000
FC0000
FC0000
FC0000
FC0000
FFFFC0
FFFFC0
FFFFC0
FFFFC0
FFFFC0
ENDCHAR
STARTCHAR 00CC
ENCODING 204
SWIDTH 257 0
DWIDTH 10 0
BBX 10 38 -2 0
BITMAP
FC00
7C00
7E00
3E00
1F00
1F00
0F80
0780
0000
0000
0000
0FC0
0FC0
0FC0
0FC0
0FC0
0FC0
0FC0
0FC0
0FC0
0FC0
0FC0
0FC0
0FC0
0FC0
0FC0
0FC0
0FC0
0FC0
0FC0
0FC0
0FC0
0FC0
0FC0
0FC0
0FC0
0FC0
0FC0
ENDCHAR
STARTCHAR 00CD
ENCODING 205
SWIDTH 257 0
DWIDTH 10 0
BBX 10 38 2 0
BITMAP
07C0
0FC0
0F80
1F00
1F00
3E00
3C00
7C00
0000
0000
0000
FC00
FC00
FC00
FC00
FC00
FC00
FC00
FC00
FC00
FC00
FC00
FC00
FC00
FC00
FC00
FC00
FC00
FC00
FC00
FC00
FC00
FC00
FC00
FC00
FC00
FC00
FC00
ENDCHAR
STARTCHAR 00CE
ENCODING 206
SWIDTH 257 0
DWIDTH 10 0
BBX 14 36 -2 0
BITMAP
07C0
0FC0
1FE0
3FF0
7CF8
F87C
0000
0000
0000
0FC0
0FC0
0FC0
0FC0
0FC0
0FC0
0FC0
0FC0
0FC0
0FC0
0FC0
0FC0
0FC0
0FC0
0FC0
0FC0
0FC0
0FC0
0FC0
0FC0
0FC0
0FC0
0FC0
0FC0
0FC0
0FC0
0FC0
ENDCHAR
STARTCHAR 00CF
ENCODING 207
SWIDTH 257 0
DWIDTH 10 0
BBX 15 37 -2 0
BITMAP
701C
F83E
F87E
FC7E
F83E
783C
0000
0000
0000
0000
0FC0
0FC0
0FC0
0FC0
0FC0
0FC0
0FC0
0FC0
0FC0
0FC0
0FC0
0FC0
0FC0
0FC0
0FC0
0FC0
0FC0
0FC0
0FC0
0FC0
0FC0
0FC0
0FC0
0FC0
0FC0
0FC0
0FC0
ENDCHAR
STARTCHAR 00D0
ENCODING 208
SWIDTH 694 0
DWIDTH 27 0
BBX 25 27 1 0
BITMAP
3FFF8000
3FFFE000
3FFFF800
3FFFFC00
3FFFFE00
3F00FE00
3F007F00
3F003F00
3F001F80
3F001F80
3F001F80
FFF01F80
FFF01F80
FFF01F80
FFF01F80
3F001F80
3F001F80
3F001F80
3F003F00
3F003F00
3F007F00
3F01FE00
3FFFFC00
3FFFFC00
3FFFF000
3FFFE000
3FFF0000
ENDCHAR
STARTCHAR 00D1
ENCODING 209
SWIDTH 694 0
DWIDTH 27 0
BBX 23 36 2 0
BITMAP
00E1C0
03F9C0
03FFC0
03FF80
071F80
000000
000000
000000
000000
FE003E
FF003E
FF003E
FF803E
FF803E
FFC03E
FFC03E
FFE03E
FFF03E
FFF03E
FDF83E
FDF83E
FCFC3E
FC7E3E
FC7E3E
FC3F3E
FC3F3E
FC1FBE
FC0FBE
FC0FFE
FC07FE
FC07FE
FC03FE
FC01FE
FC01FE
FC00FE
FC00FE
ENDCHAR
STARTCHAR 00D2
ENCODING 210
SWIDTH 720 0
DWIDTH 28 0
BBX 25 38 2 0
BITMAP
07C00000
03E00000
03E00000
01F00000
00F00000
00F80000
00780000
003C0000
00000000
00000000
003C0000
03FFC000
07FFE000
0FFFF800
1FFFF800
3FC3FC00
7F00FE00
7E007E00
7E007F00
FC003F00
FC003F00
FC003F00
F8001F00
F8001F00
F8001F80
F8001F00
F8001F00
FC003F00
FC003F00
FC003F00
7E007E00
7F007E00
3F81FE00
3FFFFC00
1FFFF800
0FFFF000
07FFE000
01FF8000
ENDCHAR
STARTCHAR 00D3
ENCODING 211
SWIDTH 720 0
DWIDTH 28 0
BBX 25 38 2 0
BITMAP
0003E000
0007C000
0007C000
000F8000
000F8000
001F0000
001E0000
003E0000
00000000
00000000
003C0000
03FFC000
07FFE000
0FFFF800
1FFFF800
3FC3FC00
7F00FE00
7E007E00
7E007F00
FC003F00
FC003F00
FC003F00
F8001F00
F8001F00
F8001F80
F8001F00
F8001F00
FC003F00
FC003F00
FC003F00
7E007E00
7F007E00
3F81FE00
3FFFFC00
1FFFF800
0FFFF000
07FFE000
01FF8000
ENDCHAR
STARTCHAR 00D4
ENCODING 212
SWIDTH 720 0
DWIDTH 28 0
BBX 25 36 2 0
BITMAP
003C0000
007E0000
00FF0000
01FF8000
03E7C000
07C3E000
00000000
00000000
003C0000
03FFC000
07FFE000
0FFFF800
1FFFF800
3FC3FC00
7F00FE00
7E007E00
7E007F00
FC003F00
FC003F00
FC003F00
F8001F00
F8001F00
F8001F80
F8001F00
F8001F00
FC003F00
FC003F00
FC003F00
7E007E00
7F007E00
3F81FE00
3FFFFC00
1FFFF800
0FFFF000
07FFE000
01FF8000
ENDCHAR
STARTCHAR 00D5
ENCODING 213
SWIDTH 720 0
DWIDTH 28 0
BBX 25 36 2 0
BITMAP
0060C000
01F9C000
03FFC000
03FFC000
038F8000
00000000
00000000
00000000
003C0000
03FFC000
07FFE000
0FFFF800
1FFFF800
3FC3FC00
7F00FE00
7E007E00
7E007F00
FC003F00
FC003F00
FC003F00
F8001F00
F8001F00
F8001F80
F8001F00
F8001F00
FC003F00
FC003F00
FC003F00
7E007E00
7F007E00
3F81FE00
3FFFFC00
1FFFF800
0FFFF000
07FFE000
01FF8000
ENDCHAR
STARTCHAR 00D6
ENCODING 214
SWIDTH 720 0
DWIDTH 28 0
BBX 25 37 2 0
BITMAP
0380E000
07C1F000
0FC3F000
0FC3F000
07C1F000
0781E000
00000000
00000000
00000000
003C0000
03FFC000
07FFE000
0FFFF800
1FFFF800
3FC3FC00
7F00FE00
7E007E00
7E007F00
FC003F00
FC003F00
FC003F00
F8001F00
F8001F00
F8001F80
F8001F00
F8001F00
FC003F00
FC003F00
FC003F00
7E007E00
7F007E00
3F81FE00
3FFFFC00
1FFFF800
0FFFF000
07FFE000
01FF8000
ENDCHAR
STARTCHAR 00D7
ENCODING 215
SWIDTH 565 0
DWIDTH 22 0
BBX 15 15 4 5
BITMAP
0010
3038
787C
FCFE
7FFC
3FF8
1FF0
0FE0
1FE0
3FF0
7FF8
FEFC
FC7C
7838
3010
ENDCHAR
STARTCHAR 00D8
ENCODING 216
SWIDTH 720 0
DWIDTH 28 0
BBX 25 31 2 -2
BITMAP
00001F00
003E1F00
01FFFE00
07FFFC00
0FFFFC00
1FFFFC00
3FC1FC00
3F81FE00
7F03FE00
7E03FF00
7C07FF00
FC0F9F00
FC0F9F80
FC1F1F80
FC1E1F80
FC3E1F80
FC7C1F80
FC781F80
FCF81F80
FDF03F00
7FF03F00
7FE03F00
7FC07E00
3FC0FE00
1FFFFC00
1FFFF800
1FFFF000
3FFFE000
3CFF8000
7C000000
F8000000
ENDCHAR
STARTCHAR 00D9
ENCODING 217
SWIDTH 668 0
DWIDTH 26 0
BBX 22 38 2 0
BITMAP
0FC000
07C000
03E000
03E000
01F000
00F000
00F800
007800
000000
000000
000000
FC007C
FC007C
FC007C
FC007C
FC007C
FC007C
FC007C
FC007C
FC007C
FC007C
FC007C
FC007C
FC007C
FC007C
FC007C
FC007C
FC007C
FC007C
FC007C
7C00FC
7E00FC
7F03F8
3FFFF8
3FFFF0
1FFFE0
07FFC0
03FF00
ENDCHAR
STARTCHAR 00DA
ENCODING 218
SWIDTH 668 0
DWIDTH 26 0
BBX 22 38 2 0
BITMAP
0007C0
000FC0
000F80
001F00
001F00
003E00
003C00
007C00
000000
000000
000000
FC007C
FC007C
FC007C
FC007C
FC007C
FC007C
FC007C
FC007C
FC007C
FC007C
FC007C
FC007C
FC007C
FC007C
FC007C
FC007C
FC007C
FC007C
FC007C
7C00FC
7E00FC
7F03F8
3FFFF8
3FFFF0
1FFFE0
07FFC0
03FF00
ENDCHAR
STARTCHAR 00DB
ENCODING 219
SWIDTH 668 0
DWIDTH 26 0
BBX 22 36 2 0
BITMAP
007C00
00FE00
01FE00
03FF00
07CF80
0787C0
080000
000000
000000
FC007C
FC007C
FC007C
FC007C
FC007C
FC007C
FC007C
FC007C
FC007C
FC007C
FC007C
FC007C
FC007C
FC007C
FC007C
FC007C
FC007C
FC007C
FC007C
7C00FC
7E00FC
7F03F8
3FFFF8
3FFFF0
1FFFE0
07FFC0
03FF00
ENDCHAR
STARTCHAR 00DC
ENCODING 220
SWIDTH 668 0
DWIDTH 26 0
BBX 22 37 2 0
BITMAP
0701C0
0F83E0
0FC3E0
0FC3F0
0F83E0
0781C0
000000
000000
000000
000000
FC007C
FC007C
FC007C
FC007C
FC007C
FC007C
FC007C
FC007C
FC007C
FC007C
FC007C
FC007C
FC007C
FC007C
FC007C
FC007C
FC007C
FC007C
FC007C
7C00FC
7E00FC
7F03F8
3FFFF8
3FFFF0
1FFFE0
07FFC0
03FF00
ENDCHAR
STARTCHAR 00DD
ENCODING 221
SWIDTH 642 0
DWIDTH 25 0
BBX 23 38 1 0
BITMAP
0007E0
0007C0
000F80
000F80
001F00
001E00
003E00
003C00
000000
000000
000000
FC007E
7C007C
7E00FC
3E00F8
3F01F8
1F01F0
1F83F0
0F83E0
0FC7E0
07C7C0
07EFC0
03EF80
03FF80
01FF00
01FF00
00FE00
00FE00
007C00
007C00
007C00
007C00
007C00
007C00
007C00
007C00
007C00
007C00
ENDCHAR
STARTCHAR 00DE
ENCODING 222
SWIDTH 591 0
DWIDTH 23 0
BBX 20 27 2 0
BITMAP
FC0000
FC0000
FC0000
FC0000
FFFC00
FFFF00
FFFF80
FFFFC0
FFFFE0
FC07E0
FC03F0
FC01F0
FC01F0
FC01F0
FC01F0
FC01F0
FC03F0
FC07E0
FFFFE0
FFFFC0
FFFF80
FFFF00
FFF000
FC0000
FC0000
FC0000
FC0000
ENDCHAR
STARTCHAR 00DF
ENCODING 223
SWIDTH 591 0
DWIDTH 23 0
BBX 19 28 2 0
BITMAP
03F800
0FFE00
3FFF80
3FFF80
7F9FC0
7C07C0
FC07E0
FC03E0
FC03E0
FC07C0
FC07C0
FDFF80
FDFF00
FDFE00
FDFF00
FC1FC0
FC07C0
FC03E0
FC03E0
FC03E0
FC03E0
FC03E0
FC07E0
FC0FE0
FCFFC0
FCFF80
FCFF00
FCFE00
ENDCHAR
STARTCHAR 00E0
ENCODING 224
SWIDTH 617 0
DWIDTH 24 0
BBX 21 31 1 0
BITMAP
0F8000
07C000
07C000
03E000
01E000
01F000
00F000
007800
000000
000000
03F1F8
0FF9F8
1FFDF8
3FFFF8
3FDFF8
7F07F8
7E03F8
7C01F8
7C01F8
FC01F8
FC01F8
FC01F8
FC01F8
7C01F8
7E03F8
7E03F8
7F8FF8
3FFFF8
1FFDF8
1FF9F8
07F1F8
ENDCHAR
STARTCHAR 00E1
ENCODING 225
SWIDTH 617 0
DWIDTH 24 0
BBX 21 31 1 0
BITMAP
000FC0
000F80
001F00
001F00
003E00
003E00
007C00
007800
000000
000000
03F1F8
0FF9F8
1FFDF8
3FFFF8
3FDFF8
7F07F8
7E03F8
7C01F8
7C01F8
FC01F8
FC01F8
FC01F8
FC01F8
7C01F8
7E03F8
7E03F8
7F8FF8
3FFFF8
1FFDF8
1FF9F8
07F1F8
ENDCHAR
STARTCHAR 00E2
ENCODING 226
SWIDTH 617 0
DWIDTH 24 0
BBX 21 29 1 0
BITMAP
00FC00
01FE00
01FE00
03FF00
07CF80
0F87C0
000000
000000
03F1F8
0FF9F8
1FFDF8
3FFFF8
3FDFF8
7F07F8
7E03F8
7C01F8
7C01F8
FC01F8
FC01F8
FC01F8
FC01F8
7C01F8
7E03F8
7E03F8
7F8FF8
3FFFF8
1FFDF8
1FF9F8
07F1F8
ENDCHAR
STARTCHAR 00E3
ENCODING 227
SWIDTH 617 0
DWIDTH 24 0
BBX 21 29 1 0
BITMAP
03E380
07FB80
07FF80
077F00
071E00
000000
000000
000000
03F1F8
0FF9F8
1FFDF8
3FFFF8
3FDFF8
7F07F8
7E03F8
7C01F8
7C01F8
FC01F8
FC01F8
FC01F8
FC01F8
7C01F8
7E03F8
7E03F8
7F8FF8
3FFFF8
1FFDF8
1FF9F8
07F1F8
ENDCHAR
STARTCHAR 00E4
ENCODING 228
SWIDTH 617 0
DWIDTH 24 0
BBX 21 30 1 0
BITMAP
0F03C0
0F87E0
1F87E0
1F87E0
0F83E0
0701C0
000000
000000
000000
03F1F8
0FF9F8
1FFDF8
3FFFF8
3FDFF8
7F07F8
7E03F8
7C01F8
7C01F8
FC01F8
FC01F8
FC01F8
FC01F8
7C01F8
7E03F8
7E03F8
7F8FF8
3FFFF8
1FFDF8
1FF9F8
07F1F8
ENDCHAR
STARTCHAR 00E5
ENCODING 229
SWIDTH 617 0
DWIDTH 24 0
BBX 21 31 1 0
BITMAP
007800
00FC00
01CE00
018600
01CE00
01FC00
00FC00
003000
000000
000000
03F1F8
0FF9F8
1FFDF8
3FFFF8
3FDFF8
7F07F8
7E03F8
7C01F8
7C01F8
FC01F8
FC01F8
FC01F8
FC01F8
7C01F8
7E03F8
7E03F8
7F8FF8
3FFFF8
1FFDF8
1FF9F8
07F1F8
ENDCHAR
STARTCHAR 00E6
ENCODING 230
SWIDTH 900 0
DWIDTH 35 0
BBX 32 21 2 0
BITMAP
07F01FC0
1FFC7FF0
3FFEFFF8
7FFFFFFC
7E1FF8FC
7C0FE03E
F80FC03E
000FC03E
0007C01F
07FFFFFF
3FFFFFFF
7FFFFFFF
FE07C000
F807C000
F80FC03F
F80FE03E
FC1FF07E
FFFDFFFC
7FFCFFF8
3FF87FF0
1FE03FE0
ENDCHAR
STARTCHAR 00E7
ENCODING 231
SWIDTH 565 0
DWIDTH 22 0
BBX 19 30 2 -10
BITMAP
03F800
0FFE00
1FFF00
3FFF80
7FBFC0
7E0FC0
FC07C0
F807E0
F80000
F80000
F80000
F80000
F80000
F807E0
FC07E0
FC07C0
7E1FC0
3FFF80
3FFF00
1FFE00
07FC00
00E000
00C000
01FC00
01FC00
000E00
000E00
019E00
01FC00
01F800
ENDCHAR
STARTCHAR 00E8
ENCODING 232
SWIDTH 565 0
DWIDTH 22 0
BBX 19 31 2 0
BITMAP
1F0000
1F0000
0F8000
078000
07C000
03C000
01E000
01F000
000000
000000
03F800
0FFE00
1FFF00
3FFF80
7E0FC0
7C07C0
F807C0
F803E0
F803E0
FFFFE0
FFFFE0
FFFFE0
F80000
F80000
F807E0
FC07C0
7E0FC0
3FFF80
3FFF00
1FFE00
07FC00
ENDCHAR
STARTCHAR 00E9
ENCODING 233
SWIDTH 565 0
DWIDTH 22 0
BBX 19 31 2 0
BITMAP
001F00
003F00
003E00
007C00
007C00
00F800
00F000
01F000
000000
000000
03F800
0FFE00
1FFF00
3FFF80
7E0FC0
7C07C0
F807C0
F803E0
F803E0
FFFFE0
FFFFE0
FFFFE0
F80000
F80000
F807E0
FC07C0
7E0FC0
3FFF80
3FFF00
1FFE00
07FC00
ENDCHAR
STARTCHAR 00EA
ENCODING 234
SWIDTH 565 0
DWIDTH 22 0
BBX 19 29 2 0
BITMAP
01F000
03F800
07FC00
0FBE00
1F1F00
3E0F80
000000
000000
03F800
0FFE00
1FFF00
3FFF80
7E0FC0
7C07C0
F807C0
F803E0
F803E0
FFFFE0
FFFFE0
FFFFE0
F80000
F80000
F807E0
FC07C0
7E0FC0
3FFF80
3FFF00
1FFE00
07FC00
ENDCHAR
STARTCHAR 00EB
ENCODING 235
SWIDTH 565 0
DWIDTH 22 0
BBX 19 30 2 0
BITMAP
1E0700
3E0F80
3F0FC0
3F0FC0
3E0F80
1C0700
000000
000000
000000
03F800
0FFE00
1FFF00
3FFF80
7E0FC0
7C07C0
F807C0
F803E0
F803E0
FFFFE0
FFFFE0
FFFFE0
F80000
F80000
F807E0
FC07C0
7E0FC0
3FFF80
3FFF00
1FFE00
07FC00
ENDCHAR
STARTCHAR 00EC
ENCODING 236
SWIDTH 282 0
DWIDTH 11 0
BBX 9 31 -1 0
BITMAP
F800
FC00
7C00
3E00
3E00
1F00
0F00
0F80
0000
0000
0F80
0F80
0F80
0F80
0F80
0F80
0F80
0F80
0F80
0F80
0F80
0F80
0F80
0F80
0F80
0F80
0F80
0F80
0F80
0F80
0F80
ENDCHAR
STARTCHAR 00ED
ENCODING 237
SWIDTH 282 0
DWIDTH 11 0
BBX 9 31 3 0
BITMAP
0F80
0F80
1F00
1E00
3E00
7C00
7800
F800
0000
0000
F800
F800
F800
F800
F800
F800
F800
F800
F800
F800
F800
F800
F800
F800
F800
F800
F800
F800
F800
F800
F800
ENDCHAR
STARTCHAR 00EE
ENCODING 238
SWIDTH 282 0
DWIDTH 11 0
BBX 15 29 -2 0
BITMAP
07C0
0FE0
1FF0
3EF8
7C7C
F83E
0000
0000
07C0
07C0
07C0
07C0
07C0
07C0
07C0
07C0
07C0
07C0
07C0
07C0
07C0
07C0
07C0
07C0
07C0
07C0
07C0
07C0
07C0
ENDCHAR
STARTCHAR 00EF
ENCODING 239
SWIDTH 282 0
DWIDTH 11 0
BBX 16 30 -2 0
BITMAP
781E
F83E
FC3F
FC3F
F83E
701C
0000
0000
0000
07C0
07C0
07C0
07C0
07C0
07C0
07C0
07C0
07C0
07C0
07C0
07C0
07C0
07C0
07C0
07C0
07C0
07C0
07C0
07C0
07C0
ENDCHAR
STARTCHAR 00F0
ENCODING 240
SWIDTH 591 0
DWIDTH 23 0
BBX 20 32 1 0
BITMAP
038000
03F060
03FDE0
03FFE0
00FFC0
003FC0
00FFC0
00F7E0
0067E0
0003E0
0003F0
07E3F0
0FF9F0
3FFDF0
3FFDF0
7F9FF0
7E07F0
FC03F0
FC03F0
FC03F0
F801F0
F801F0
F801F0
FC03F0
FC03F0
7C03E0
7E07E0
7F0FC0
3FFFC0
1FFF80
0FFF00
03FC00
ENDCHAR
STARTCHAR 00F1
ENCODING 241
SWIDTH 591 0
DWIDTH 23 0
BBX 19 29 2 0
BITMAP
078700
0FFF00
0FFF00
0EFE00
1C3C00
000000
000000
000000
FC7E00
FCFF80
FDFFC0
FFFFC0
FFBFE0
FE07E0
FC07E0
FC03E0
FC03E0
FC03E0
FC03E0
FC03E0
FC03E0
FC03E0
FC03E0
FC03E0
FC03E0
FC03E0
FC03E0
FC03E0
FC03E0
ENDCHAR
STARTCHAR 00F2
ENCODING 242
SWIDTH 565 0
DWIDTH 22 0
BBX 19 31 2 0
BITMAP
1F0000
1F0000
0F8000
078000
07C000
03C000
01E000
01E000
000000
000000
03F800
0FFE00
1FFF00
3FFF80
7FBFC0
7E0FC0
FC07E0
F807E0
F803E0
F803E0
F803E0
F803E0
F803E0
F803E0
FC07E0
FC07C0
7E1FC0
3FFF80
3FFF00
1FFE00
07FC00
ENDCHAR
STARTCHAR 00F3
ENCODING 243
SWIDTH 565 0
DWIDTH 22 0
BBX 19 31 2 0
BITMAP
001F00
003F00
003E00
007C00
007C00
00F800
00F000
01F000
000000
000000
03F800
0FFE00
1FFF00
3FFF80
7FBFC0
7E0FC0
FC07E0
F807E0
F803E0
F803E0
F803E0
F803E0
F803E0
F803E0
FC07E0
FC07C0
7E1FC0
3FFF80
3FFF00
1FFE00
07FC00
ENDCHAR
STARTCHAR 00F4
ENCODING 244
SWIDTH 565 0
DWIDTH 22 0
BBX 19 29 2 0
BITMAP
01F000
03F800
07FC00
0FBE00
1F1F00
3E0F80
000000
000000
03F800
0FFE00
1FFF00
3FFF80
7FBFC0
7E0FC0
FC07E0
F807E0
F803E0
F803E0
F803E0
F803E0
F803E0
F803E0
FC07E0
FC07C0
7E1FC0
3FFF80
3FFF00
1FFE00
07FC00
ENDCHAR
STARTCHAR 00F5
ENCODING 245
SWIDTH 565 0
DWIDTH 22 0
BBX 19 29 2 0
BITMAP
078700
0FEF00
1FFE00
1FFE00
1C3C00
000000
000000
000000
03F800
0FFE00
1FFF00
3FFF80
7FBFC0
7E0FC0
FC07E0
F807E0
F803E0
F803E0
F803E0
F803E0
F803E0
F803E0
FC07E0
FC07C0
7E1FC0
3FFF80
3FFF00
1FFE00
07FC00
ENDCHAR
STARTCHAR 00F6
ENCODING 246
SWIDTH 565 0
DWIDTH 22 0
BBX 19 30 2 0
BITMAP
1E0700
3E0F80
3F0FC0
3F0FC0
3E0F80
1C0700
000000
000000
000000
03F800
0FFE00
1FFF00
3FFF80
7FBFC0
7E0FC0
FC07E0
F807E0
F803E0
F803E0
F803E0
F803E0
F803E0
F803E0
FC07E0
FC07C0
7E1FC0
3FFF80
3FFF00
1FFE00
07FC00
ENDCHAR
STARTCHAR 00F7
ENCODING 247
SWIDTH 591 0
DWIDTH 23 0
BBX 16 22 3 1
BITMAP
01C0
03E0
07E0
07E0
07E0
03C0
0000
0000
0000
FFFF
FFFF
FFFF
FFFF
0000
0000
0000
03C0
07E0
07E0
07E0
03E0
0180
ENDCHAR
STARTCHAR 00F8
ENCODING 248
SWIDTH 565 0
DWIDTH 22 0
BBX 19 24 2 -1
BITMAP
0003C0
000380
03FF80
0FFF00
1FFF00
3FFF80
7F9FC0
7E3FC0
FC3FE0
F87FE0
F873E0
F8F3E0
F9E3E0
F9E3E0
FBC3E0
FBC7E0
FF87E0
FF07C0
7F1FC0
3FFF80
3FFF00
3FFE00
3FFC00
780000
ENDCHAR
STARTCHAR 00F9
ENCODING 249
SWIDTH 565 0
DWIDTH 22 0
BBX 19 31 2 0
BITMAP
3F0000
1F0000
0F8000
0F8000
07C000
03C000
03E000
01E000
000000
000000
FC07E0
FC07E0
FC07E0
FC07E0
FC07E0
FC07E0
FC07E0
FC07E0
FC07E0
FC07E0
FC07E0
FC07E0
FC07E0
FC07E0
FC07E0
FE07E0
7F1FE0
7FFFE0
3FFFE0
3FF7E0
1FE7E0
ENDCHAR
STARTCHAR 00FA
ENCODING 250
SWIDTH 565 0
DWIDTH 22 0
BBX 19 31 2 0
BITMAP
001F00
003E00
003E00
007C00
007800
00F800
00F000
01E000
000000
000000
FC07E0
FC07E0
FC07E0
FC07E0
FC07E0
FC07E0
FC07E0
FC07E0
FC07E0
FC07E0
FC07E0
FC07E0
FC07E0
FC07E0
FC07E0
FE07E0
7F1FE0
7FFFE0
3FFFE0
3FF7E0
1FE7E0
ENDCHAR
STARTCHAR 00FB
ENCODING 251
SWIDTH 565 0
DWIDTH 22 0
BBX 19 29 2 0
BITMAP
01F000
03F800
07FC00
0FBE00
1F1E00
3E1F00
000000
000000
FC07E0
FC07E0
FC07E0
FC07E0
FC07E0
FC07E0
FC07E0
FC07E0
FC07E0
FC07E0
FC07E0
FC07E0
FC07E0
FC07E0
FC07E0
FE07E0
7F1FE0
7FFFE0
3FFFE0
3FF7E0
1FE7E0
ENDCHAR
STARTCHAR 00FC
ENCODING 252
SWIDTH 565 0
DWIDTH 22 0
BBX 19 30 2 0
BITMAP
1C0700
3E0F80
3E1F80
3E1F80
3E0F80
1C0700
000000
000000
000000
FC07E0
FC07E0
FC07E0
FC07E0
FC07E0
FC07E0
FC07E0
FC07E0
FC07E0
FC07E0
FC07E0
FC07E0
FC07E0
FC07E0
FC07E0
FE07E0
7F1FE0
7FFFE0
3FFFE0
3FF7E0
1FE7E0
ENDCHAR
STARTCHAR 00FD
ENCODING 253
SWIDTH 540 0
DWIDTH 21 0
BBX 20 40 1 -9
BITMAP
001F80
001F00
003E00
003E00
007C00
007800
00F800
00F000
000000
000000
F801F0
FC03F0
7C03E0
7C03E0
7E07E0
3E07C0
3E07C0
3E0F80
1F0F80
1F0F80
0F1F00
0F9F00
0F9E00
07BE00
07FE00
07FC00
03FC00
03F800
03F800
01F800
01F000
01F000
03F000
03E000
07E000
1FC000
7FC000
7F8000
7F0000
380000
ENDCHAR
STARTCHAR 00FE
ENCODING 254
SWIDTH 617 0
DWIDTH 24 0
BBX 20 38 2 -9
BITMAP
FC0000
FC0000
FC0000
FC0000
FC0000
FC0000
FC0000
FC0000
FC7E00
FCFF80
FDFFC0
FFFFE0
FFDFE0
FE07F0
FE03F0
FC03F0
FC01F0
FC01F0
FC01F0
FC01F0
FC01F0
FC03F0
FC03F0
FE07F0
FF0FE0
FFFFE0
FDFFC0
FDFF80
FC7F00
FC0000
FC0000
FC0000
FC0000
FC0000
FC0000
FC0000
FC0000
FC0000
ENDCHAR
STARTCHAR 00FF
ENCODING 255
SWIDTH 540 0
DWIDTH 21 0
BBX 20 39 1 -9
BITMAP
1E0780
3F0FC0
3F0FC0
3F0FC0
1F0FC0
0E0780
000000
000000
000000
F801F0
FC03F0
7C03E0
7C03E0
7E07E0
3E07C0
3E07C0
3E0F80
1F0F80
1F0F80
0F1F00
0F9F00
0F9E00
07BE00
07FE00
07FC00
03FC00
03F800
03F800
01F800
01F000
01F000
03F000
03E000
07E000
1FC000
7FC000
7F8000
7F0000
380000
ENDCHAR
STARTCHAR 0100
ENCODING 256
SWIDTH 668 0
DWIDTH 26 0
BBX 24 33 1 0
BITMAP
03FFC0
03FFC0
000000
000000
000000
000000
007E00
007E00
007F00
00FF00
00FF00
00FF80
01FF80
01F7C0
01E7C0
03E7C0
03E3E0
07C3E0
07C3E0
07C1F0
0F81F0
0F81F0
0FFFF8
1FFFF8
1FFFF8
1FFFFC
3E007C
3E007E
3E003E
7C003E
7C003F
FC001F
FC001F
ENDCHAR
STARTCHAR 0101
ENCODING 257
SWIDTH 617 0
DWIDTH 24 0
BBX 21 26 1 0
BITMAP
07FF80
07FF80
000000
000000
000000
03F1F8
0FF9F8
1FFDF8
3FFFF8
3FDFF8
7F07F8
7E03F8
7C01F8
7C01F8
FC01F8
FC01F8
FC01F8
FC01F8
7C01F8
7E03F8
7E03F8
7F8FF8
3FFFF8
1FFDF8
1FF9F8
07F1F8
ENDCHAR
STARTCHAR 0102
ENCODING 258
SWIDTH 668 0
DWIDTH 26 0
BBX 24 35 1 0
BITMAP
0781E0
03C3E0
03FFC0
00FF80
007E00
000000
000000
000000
007E00
007E00
007F00
00FF00
00FF00
00FF80
01FF80
01F7C0
01E7C0
03E7C0
03E3E0
07C3E0
07C3E0
07C1F0
0F81F0
0F81F0
0FFFF8
1FFFF8
1FFFF8
1FFFFC
3E007C
3E007E
3E003E
7C003E
7C003F
FC001F
FC001F
ENDCHAR
STARTCHAR 0103
ENCODING 259
SWIDTH 617 0
DWIDTH 24 0
BBX 21 28 1 0
BITMAP
0F87C0
07DF80
03FF00
01FE00
003000
000000
000000
03F1F8
0FF9F8
1FFDF8
3FFFF8
3FDFF8
7F07F8
7E03F8
7C01F8
7C01F8
FC01F8
FC01F8
FC01F8
FC01F8
7C01F8
7E03F8
7E03F8
7F8FF8
3FFFF8
1FFDF8
1FF9F8
07F1F8
ENDCHAR
STARTCHAR 0104
ENCODING 260
SWIDTH 668 0
DWIDTH 26 0
BBX 25 34 1 -7
BITMAP
007E0000
007E0000
007F0000
00FF0000
00FF0000
00FF8000
01FF8000
01F7C000
01E7C000
03E7C000
03E3E000
07C3E000
07C3E000
07C1F000
0F81F000
0F81F000
0FFFF800
1FFFF800
1FFFF800
1FFFFC00
3E007C00
3E007E00
3E003E00
7C003E00
7C003F00
FC001F00
FC001F00
00003C00
00003800
00003800
00003C00
00003F80
00001F80
00000F80
ENDCHAR
STARTCHAR 0105
ENCODING 261
SWIDTH 617 0
DWIDTH 24 0
BBX 22 28 1 -7
BITMAP
03F1F8
0FF9F8
1FFDF8
3FFFF8
3FDFF8
7F07F8
7E03F8
7C01F8
7C01F8
FC01F8
FC01F8
FC01F8
FC01F8
7C01F8
7E03F8
7E03F8
7F8FF8
3FFFF8
1FFDF8
1FF9F8
07F1F8
0000F0
0001E0
0001C0
0001E0
0001FC
0000FC
00003C
ENDCHAR
STARTCHAR 0106
ENCODING 262
SWIDTH 694 0
DWIDTH 27 0
BBX 24 38 2 0
BITMAP
0003E0
0007C0
0007C0
000F80
001F00
001F00
003E00
003C00
000000
000000
003E00
03FFC0
07FFE0
0FFFF0
1FFFF8
3F81FC
7F00FE
7E007E
7C003E
FC003F
FC0000
F80000
F80000
F80000
F80000
F80000
F80000
FC0000
FC0000
FC003E
7E003E
7E007E
3F00FC
3FE7FC
1FFFF8
0FFFF0
07FFE0
01FF80
ENDCHAR
STARTCHAR 0107
ENCODING 263
SWIDTH 565 0
DWIDTH 22 0
BBX 19 31 2 0
BITMAP
001F00
003F00
003E00
007C00
007C00
00F800
00F000
01F000
000000
000000
03F800
0FFE00
1FFF00
3FFF80
7FBFC0
7E0FC0
FC07C0
F807E0
F80000
F80000
F80000
F80000
F80000
F807E0
FC07E0
FC07C0
7E1FC0
3FFF80
3FFF00
1FFE00
07FC00
ENDCHAR
STARTCHAR 010A
ENCODING 266
SWIDTH 694 0
DWIDTH 27 0
BBX 24 37 2 0
BITMAP
001800
007C00
007E00
007E00
007E00
003C00
000000
000000
000000
003E00
03FFC0
07FFE0
0FFFF0
1FFFF8
3F81FC
7F00FE
7E007E
7C003E
FC003F
FC0000
F80000
F80000
F80000
F80000
F80000
F80000
FC0000
FC0000
FC003E
7E003E
7E007E
3F00FC
3FE7FC
1FFFF8
0FFFF0
07FFE0
01FF80
ENDCHAR
STARTCHAR 010B
ENCODING 267
SWIDTH 565 0
DWIDTH 22 0
BBX 19 30 2 0
BITMAP
00E000
01F000
03F000
03F000
01F000
00E000
000000
000000
000000
03F800
0FFE00
1FFF00
3FFF80
7FBFC0
7E0FC0
FC07C0
F807E0
F80000
F80000
F80000
F80000
F80000
F807E0
FC07E0
FC07C0
7E1FC0
3FFF80
3FFF00
1FFE00
07FC00
ENDCHAR
STARTCHAR 010C
ENCODING 268
SWIDTH 694 0
DWIDTH 27 0
BBX 24 36 2 0
BITMAP
07C3E0
03C7C0
03EF80
01FF00
00FE00
007E00
000000
000000
003E00
03FFC0
07FFE0
0FFFF0
1FFFF8
3F81FC
7F00FE
7E007E
7C003E
FC003F
FC0000
F80000
F80000
F80000
F80000
F80000
F80000
FC0000
FC0000
FC003E
7E003E
7E007E
3F00FC
3FE7FC
1FFFF8
0FFFF0
07FFE0
01FF80
ENDCHAR
STARTCHAR 010D
ENCODING 269
SWIDTH 565 0
DWIDTH 22 0
BBX 19 29 2 0
BITMAP
3E1F00
1F1E00
0FBE00
07FC00
03F800
01F000
000000
000000
03F800
0FFE00
1FFF00
3FFF80
7FBFC0
7E0FC0
FC07C0
F807E0
F80000
F80000
F80000
F80000
F80000
F807E0
FC07E0
FC07C0
7E1FC0
3FFF80
3FFF00
1FFE00
07FC00
ENDCHAR
STARTCHAR 010E
ENCODING 270
SWIDTH 668 0
DWIDTH 26 0
BBX 23 36 2 0
BITMAP
0F07C0
0F8F80
07DF00
03FE00
01FC00
00F800
000000
000000
000000
FFFE00
FFFF80
FFFFE0
FFFFF0
FFFFF8
F803F8
F801FC
F800FC
F800FC
F8007E
F8007E
F8007E
F8007E
F8007E
F8007E
F8007E
F8007E
F8007E
F800FC
F800FC
F801FC
F807F8
FFFFF0
FFFFE0
FFFFC0
FFFF80
FFFC00
ENDCHAR
STARTCHAR 010F
ENCODING 271
SWIDTH 771 0
DWIDTH 30 0
BBX 28 32 2 0
BITMAP
00000080
000003E0
000007F0
0003F7F0
0003F7F0
0003F3F0
0003F070
0003F070
0003F070
0003F060
0003F1C0
07E3F180
1FF3F000
3FFBF000
7FFFF000
7FBFF000
FE0FF000
FC07F000
FC03F000
F803F000
F803F000
F803F000
F803F000
F803F000
F803F000
FC07F000
FC07F000
7E0FF000
7FFFF000
3FFBF000
1FF3F000
0FE3F000
ENDCHAR
STARTCHAR 0110
ENCODING 272
SWIDTH 694 0
DWIDTH 27 0
BBX 25 27 1 0
BITMAP
3FFF8000
3FFFE000
3FFFF800
3FFFFC00
3FFFFE00
3F00FE00
3F007F00
3F003F00
3F001F80
3F001F80
3F001F80
FFF01F80
FFF01F80
FFF01F80
FFF01F80
3F001F80
3F001F80
3F001F80
3F003F00
3F003F00
3F007F00
3F01FE00
3FFFFC00
3FFFFC00
3FFFF000
3FFFE000
3FFF0000
ENDCHAR
STARTCHAR 0111
ENCODING 273
SWIDTH 617 0
DWIDTH 24 0
BBX 22 29 2 0
BITMAP
0003F0
0003F0
0003F0
003FFC
003FFC
003FFC
0003F0
0003F0
07E3F0
1FF3F0
3FFBF0
7FFFF0
7FBFF0
FE0FF0
FC07F0
FC03F0
F803F0
F803F0
F803F0
F803F0
F803F0
F803F0
FC07F0
FC07F0
7E0FF0
7FFFF0
3FFBF0
1FF3F0
0FE3F0
ENDCHAR
STARTCHAR 0112
ENCODING 274
SWIDTH 565 0
DWIDTH 22 0
BBX 18 33 2 0
BITMAP
1FFE00
1FFE00
000000
000000
000000
000000
FFFFC0
FFFFC0
FFFFC0
FFFFC0
FC0000
FC0000
FC0000
FC0000
FC0000
FC0000
FC0000
FFFF00
FFFF00
FFFF00
FFFF00
FC0000
FC0000
FC0000
FC0000
FC0000
FC0000
FC0000
FFFFC0
FFFFC0
FFFFC0
FFFFC0
FFFFC0
ENDCHAR
STARTCHAR 0113
ENCODING 275
SWIDTH 565 0
DWIDTH 22 0
BBX 19 26 2 0
BITMAP
1FFF00
1FFF00
000000
000000
000000
03F800
0FFE00
1FFF00
3FFF80
7E0FC0
7C07C0
F807C0
F803E0
F803E0
FFFFE0
FFFFE0
FFFFE0
F80000
F80000
F807E0
FC07C0
7E0FC0
3FFF80
3FFF00
1FFE00
07FC00
ENDCHAR
STARTCHAR 0116
ENCODING 278
SWIDTH 565 0
DWIDTH 22 0
BBX 18 37 2 0
BITMAP
00C000
01F000
03F000
03F000
03F000
01E000
000000
000000
000000
000000
FFFFC0
FFFFC0
FFFFC0
FFFFC0
FC0000
FC0000
FC0000
FC0000
FC0000
FC0000
FC0000
FFFF00
FFFF00
FFFF00
FFFF00
FC0000
FC0000
FC0000
FC0000
FC0000
FC0000
FC0000
FFFFC0
FFFFC0
FFFFC0
FFFFC0
FFFFC0
ENDCHAR
STARTCHAR 0117
ENCODING 279
SWIDTH 565 0
DWIDTH 22 0
BBX 19 30 2 0
BITMAP
00E000
01F000
03F000
03F000
01F000
00E000
000000
000000
000000
03F800
0FFE00
1FFF00
3FFF80
7E0FC0
7C07C0
F807C0
F803E0
F803E0
FFFFE0
FFFFE0
FFFFE0
F80000
F80000
F807E0
FC07C0
7E0FC0
3FFF80
3FFF00
1FFE00
07FC00
ENDCHAR
STARTCHAR 0118
ENCODING 280
SWIDTH 565 0
DWIDTH 22 0
BBX 20 34 2 -7
BITMAP
FFFFC0
FFFFC0
FFFFC0
FFFFC0
FC0000
FC0000
FC0000
FC0000
FC0000
FC0000
FC0000
FFFF00
FFFF00
FFFF00
FFFF00
FC0000
FC0000
FC0000
FC0000
FC0000
FC0000
FC0000
FFFFC0
FFFFC0
FFFFC0
FFFFC0
FFFFC0
0007C0
000700
000700
000780
0007F0
0003F0
0001F0
ENDCHAR
STARTCHAR 0119
ENCODING 281
SWIDTH 565 0
DWIDTH 22 0
BBX 19 28 2 -7
BITMAP
03F800
0FFE00
1FFF00
3FFF80
7E0FC0
7C07C0
F807C0
F803E0
F803E0
FFFFE0
FFFFE0
FFFFE0
F80000
F80000
F807E0
FC07C0
7E0FC0
3FFF80
3FFF00
1FFE00
07FC00
03E000
038000
038000
078000
03F000
03F000
00F000
ENDCHAR
STARTCHAR 011A
ENCODING 282
SWIDTH 565 0
DWIDTH 22 0
BBX 18 36 2 0
BITMAP
3E1F00
1F1E00
0FBE00
07FC00
03F800
03F000
000000
000000
000000
FFFFC0
FFFFC0
FFFFC0
FFFFC0
FC0000
FC0000
FC0000
FC0000
FC0000
FC0000
FC0000
FFFF00
FFFF00
FFFF00
FFFF00
FC0000
FC0000
FC0000
FC0000
FC0000
FC0000
FC0000
FFFFC0
FFFFC0
FFFFC0
FFFFC0
FFFFC0
ENDCHAR
STARTCHAR 011B
ENCODING 283
SWIDTH 565 0
DWIDTH 22 0
BBX 19 29 2 0
BITMAP
3E1F00
1F1E00
0FBE00
07FC00
03F800
01F000
000000
000000
03F800
0FFE00
1FFF00
3FFF80
7E0FC0
7C07C0
F807C0
F803E0
F803E0
FFFFE0
FFFFE0
FFFFE0
F80000
F80000
F807E0
FC07C0
7E0FC0
3FFF80
3FFF00
1FFE00
07FC00
ENDCHAR
STARTCHAR 011E
ENCODING 286
SWIDTH 694 0
DWIDTH 27 0
BBX 24 35 2 0
BITMAP
0781E0
03C3C0
03FFC0
01FF80
007E00
000000
000000
007E00
03FFC0
07FFE0
0FFFF0
1FFFF8
3F81FC
3F00FE
7E007E
7C003E
FC0000
FC0000
F80000
F80000
F807FF
F807FF
F807FF
F807FF
F8001F
FC003F
FC003F
7C003F
7E007F
3F007F
3FC1FF
1FFFEF
0FFFCF
07FF8F
01FF0F
ENDCHAR
STARTCHAR 011F
ENCODING 287
SWIDTH 591 0
DWIDTH 23 0
BBX 20 37 2 -9
BITMAP
1E0F80
0FBF00
07FE00
03FC00
006000
000000
000000
07E3F0
1FF3F0
3FFBF0
7FFFF0
7F9FF0
FE07F0
FC07F0
FC03F0
F803F0
F803F0
F803F0
F803F0
F803F0
FC03F0
FC07F0
FE0FF0
7FFFF0
7FFFF0
3FFBF0
1FF3F0
07C3F0
0003F0
0003E0
0007E0
000FE0
03FFC0
03FFC0
03FF80
03FE00
00E000
ENDCHAR
STARTCHAR 0120
ENCODING 288
SWIDTH 694 0
DWIDTH 27 0
BBX 24 37 2 0
BITMAP
001800
003C00
007E00
007E00
007E00
003C00
000000
000000
000000
007E00
03FFC0
07FFE0
0FFFF0
1FFFF8
3F81FC
3F00FE
7E007E
7C003E
FC0000
FC0000
F80000
F80000
F807FF
F807FF
F807FF
F807FF
F8001F
FC003F
FC003F
7C003F
7E007F
3F007F
3FC1FF
1FFFEF
0FFFCF
07FF8F
01FF0F
ENDCHAR
STARTCHAR 0121
ENCODING 289
SWIDTH 591 0
DWIDTH 23 0
BBX 20 39 2 -9
BITMAP
00F000
01F000
01F800
01F800
01F000
00E000
000000
000000
000000
07E3F0
1FF3F0
3FFBF0
7FFFF0
7F9FF0
FE07F0
FC07F0
FC03F0
F803F0
F803F0
F803F0
F803F0
F803F0
FC03F0
FC07F0
FE0FF0
7FFFF0
7FFFF0
3FFBF0
1FF3F0
07C3F0
0003F0
0003E0
0007E0
000FE0
03FFC0
03FFC0
03FF80
03FE00
00E000
ENDCHAR
STARTCHAR 0126
ENCODING 294
SWIDTH 694 0
DWIDTH 27 0
BBX 26 27 1 0
BITMAP
3E003F00
3E003F00
3E003F00
FFFFFFC0
FFFFFFC0
FFFFFFC0
FFFFFFC0
3E003F00
3E003F00
3E003F00
3E003F00
3FFFFF00
3FFFFF00
3FFFFF00
3FFFFF00
3E003F00
3E003F00
3E003F00
3E003F00
3E003F00
3E003F00
3E003F00
3E003F00
3E003F00
3E003F00
3E003F00
3E003F00
ENDCHAR
STARTCHAR 0127
ENCODING 295
SWIDTH 591 0
DWIDTH 23 0
BBX 22 29 0 0
BITMAP
1F0000
1F0000
1F0000
FFF800
FFF800
FFF800
1F0000
1F0000
1F0FC0
1F3FF0
1F7FF8
1F7FF8
1FF7F8
1FC0FC
1F80FC
1F80FC
1F007C
1F007C
1F007C
1F007C
1F007C
1F007C
1F007C
1F007C
1F007C
1F007C
1F007C
1F007C
1F007C
ENDCHAR
STARTCHAR 0128
ENCODING 296
SWIDTH 257 0
DWIDTH 10 0
BBX 12 36 -1 0
BITMAP
3830
7E70
FFF0
FFF0
E3E0
0000
0000
0000
0000
1F80
1F80
1F80
1F80
1F80
1F80
1F80
1F80
1F80
1F80
1F80
1F80
1F80
1F80
1F80
1F80
1F80
1F80
1F80
1F80
1F80
1F80
1F80
1F80
1F80
1F80
1F80
ENDCHAR
STARTCHAR 0129
ENCODING 297
SWIDTH 282 0
DWIDTH 11 0
BBX 13 29 -1 0
BITMAP
3C38
7F78
7FF0
F7F0
E1E0
0000
0000
0000
0F80
0F80
0F80
0F80
0F80
0F80
0F80
0F80
0F80
0F80
0F80
0F80
0F80
0F80
0F80
0F80
0F80
0F80
0F80
0F80
0F80
ENDCHAR
STARTCHAR 012A
ENCODING 298
SWIDTH 257 0
DWIDTH 10 0
BBX 12 33 -1 0
BITMAP
FFF0
FFF0
0000
0000
0000
0000
1F80
1F80
1F80
1F80
1F80
1F80
1F80
1F80
1F80
1F80
1F80
1F80
1F80
1F80
1F80
1F80
1F80
1F80
1F80
1F80
1F80
1F80
1F80
1F80
1F80
1F80
1F80
ENDCHAR
STARTCHAR 012B
ENCODING 299
SWIDTH 282 0
DWIDTH 11 0
BBX 13 26 -1 0
BITMAP
FFF8
FFF8
0000
0000
0000
0F80
0F80
0F80
0F80
0F80
0F80
0F80
0F80
0F80
0F80
0F80
0F80
0F80
0F80
0F80
0F80
0F80
0F80
0F80
0F80
0F80
ENDCHAR
STARTCHAR 012E
ENCODING 302
SWIDTH 257 0
DWIDTH 10 0
BBX 7 34 2 -7
BITMAP
FC
FC
FC
FC
FC
FC
FC
FC
FC
FC
FC
FC
FC
FC
FC
FC
FC
FC
FC
FC
FC
FC
FC
FC
FC
FC
FC
78
70
F0
F0
7E
7E
1E
ENDCHAR
STARTCHAR 012F
ENCODING 303
SWIDTH 282 0
DWIDTH 11 0
BBX 8 37 2 -7
BITMAP
38
7C
FC
7C
7C
38
00
00
00
7C
7C
7C
7C
7C
7C
7C
7C
7C
7C
7C
7C
7C
7C
7C
7C
7C
7C
7C
7C
7C
78
70
70
78
7F
3F
1F
ENDCHAR
STARTCHAR 0130
ENCODING 304
SWIDTH 257 0
DWIDTH 10 0
BBX 6 37 2 0
BITMAP
30
7C
FC
FC
FC
78
00
00
00
00
FC
FC
FC
FC
FC
FC
FC
FC
FC
FC
FC
FC
FC
FC
FC
FC
FC
FC
FC
FC
FC
FC
FC
FC
FC
FC
FC
ENDCHAR
STARTCHAR 0131
ENCODING 305
SWIDTH 282 0
DWIDTH 11 0
BBX 5 21 3 0
BITMAP
F8
F8
F8
F8
F8
F8
F8
F8
F8
F8
F8
F8
F8
F8
F8
F8
F8
F8
F8
F8
F8
ENDCHAR
STARTCHAR 0139
ENCODING 313
SWIDTH 514 0
DWIDTH 20 0
BBX 17 38 2 0
BITMAP
07C000
0F8000
0F8000
1F0000
1E0000
3E0000
3C0000
780000
000000
000000
000000
FC0000
FC0000
FC0000
FC0000
FC0000
FC0000
FC0000
FC0000
FC0000
FC0000
FC0000
FC0000
FC0000
FC0000
FC0000
FC0000
FC0000
FC0000
FC0000
FC0000
FC0000
FC0000
FFFF80
FFFF80
FFFF80
FFFF80
FFFF80
ENDCHAR
STARTCHAR 013A
ENCODING 314
SWIDTH 334 0
DWIDTH 13 0
BBX 10 39 2 0
BITMAP
07C0
0F80
1F00
1F00
3E00
3C00
7C00
0000
0000
0000
FC00
FC00
FC00
FC00
FC00
FC00
FC00
FC00
FC00
FC00
FC00
FC00
FC00
FC00
FC00
FC00
FC00
FC00
FC00
FC00
FC00
FC00
FC00
FC00
7C00
7FC0
7FC0
3FC0
1FC0
ENDCHAR
STARTCHAR 013D
ENCODING 317
SWIDTH 514 0
DWIDTH 20 0
BBX 21 36 -2 0
BITMAP
F87C00
78F800
7DF000
3FE000
1FE000
0FC000
000000
000000
000000
0FC000
0FC000
0FC000
0FC000
0FC000
0FC000
0FC000
0FC000
0FC000
0FC000
0FC000
0FC000
0FC000
0FC000
0FC000
0FC000
0FC000
0FC000
0FC000
0FC000
0FC000
0FC000
0FFFF8
0FFFF8
0FFFF8
0FFFF8
0FFFF8
ENDCHAR
STARTCHAR 013E
ENCODING 318
SWIDTH 411 0
DWIDTH 16 0
BBX 14 32 2 0
BITMAP
0020
00F8
01FC
FDFC
FCFC
FCFC
FC1C
FC0C
FC1C
FC18
FC38
FC70
FC00
FC00
FC00
FC00
FC00
FC00
FC00
FC00
FC00
FC00
FC00
FC00
FC00
FC00
FC00
7C00
7FC0
7FC0
3FC0
1FC0
ENDCHAR
STARTCHAR 0143
ENCODING 323
SWIDTH 694 0
DWIDTH 27 0
BBX 23 38 2 0
BITMAP
0007E0
0007C0
000F80
000F80
001F00
001E00
003E00
003C00
000000
000000
000000
FE003E
FF003E
FF003E
FF803E
FF803E
FFC03E
FFC03E
FFE03E
FFF03E
FFF03E
FDF83E
FDF83E
FCFC3E
FC7E3E
FC7E3E
FC3F3E
FC3F3E
FC1FBE
FC0FBE
FC0FFE
FC07FE
FC07FE
FC03FE
FC01FE
FC01FE
FC00FE
FC00FE
ENDCHAR
STARTCHAR 0144
ENCODING 324
SWIDTH 591 0
DWIDTH 23 0
BBX 19 31 2 0
BITMAP
001F80
001F00
003E00
003E00
007C00
007800
00F800
00F000
000000
000000
FC7E00
FCFF80
FDFFC0
FFFFC0
FFBFE0
FE07E0
FC07E0
FC03E0
FC03E0
FC03E0
FC03E0
FC03E0
FC03E0
FC03E0
FC03E0
FC03E0
FC03E0
FC03E0
FC03E0
FC03E0
FC03E0
ENDCHAR
STARTCHAR 0147
ENCODING 327
SWIDTH 694 0
DWIDTH 27 0
BBX 23 36 2 0
BITMAP
0F83E0
07C7C0
03EF80
01FF00
00FE00
007C00
000000
000000
000000
FE003E
FF003E
FF003E
FF803E
FF803E
FFC03E
FFC03E
FFE03E
FFF03E
FFF03E
FDF83E
FDF83E
FCFC3E
FC7E3E
FC7E3E
FC3F3E
FC3F3E
FC1FBE
FC0FBE
FC0FFE
FC07FE
FC07FE
FC03FE
FC01FE
FC01FE
FC00FE
FC00FE
ENDCHAR
STARTCHAR 0148
ENCODING 328
SWIDTH 591 0
DWIDTH 23 0
BBX 19 29 2 0
BITMAP
1F0F80
0F9F00
07BE00
07FC00
03F800
01F000
000000
000000
FC7E00
FCFF80
FDFFC0
FFFFC0
FFBFE0
FE07E0
FC07E0
FC03E0
FC03E0
FC03E0
FC03E0
FC03E0
FC03E0
FC03E0
FC03E0
FC03E0
FC03E0
FC03E0
FC03E0
FC03E0
FC03E0
ENDCHAR
STARTCHAR 014C
ENCODING 332
SWIDTH 720 0
DWIDTH 28 0
BBX 25 33 2 0
BITMAP
03FFC000
03FFC000
00000000
00000000
00000000
003C0000
03FFC000
07FFE000
0FFFF800
1FFFF800
3FC3FC00
7F00FE00
7E007E00
7E007F00
FC003F00
FC003F00
FC003F00
F8001F00
F8001F00
F8001F80
F8001F00
F8001F00
FC003F00
FC003F00
FC003F00
7E007E00
7F007E00
3F81FE00
3FFFFC00
1FFFF800
0FFFF000
07FFE000
01FF8000
ENDCHAR
STARTCHAR 014D
ENCODING 333
SWIDTH 565 0
DWIDTH 22 0
BBX 19 26 2 0
BITMAP
1FFF00
1FFF00
000000
000000
000000
03F800
0FFE00
1FFF00
3FFF80
7FBFC0
7E0FC0
FC07E0
F807E0
F803E0
F803E0
F803E0
F803E0
F803E0
F803E0
FC07E0
FC07C0
7E1FC0
3FFF80
3FFF00
1FFE00
07FC00
ENDCHAR
STARTCHAR 0152
ENCODING 338
SWIDTH 951 0
DWIDTH 37 0
BBX 35 27 1 0
BITMAP
00FFFFFFE0
03FFFFFFE0
07FFFFFFE0
0FFFFFFFE0
1FFFFC0000
3F807C0000
3F007C0000
7F007C0000
7E007C0000
7E007C0000
7C007C0000
7C007FFF80
FC007FFF80
FC007FFF80
FC007FFF80
7C007C0000
7C007C0000
7E007C0000
7E007C0000
7F007C0000
3F807C0000
3FC07C0000
1FFFFFFFE0
0FFFFFFFE0
07FFFFFFE0
01FFFFFFE0
007FFFFFE0
ENDCHAR
STARTCHAR 0153
ENCODING 339
SWIDTH 925 0
DWIDTH 36 0
BBX 33 21 2 0
BITMAP
03F007E000
0FFC1FF800
1FFE3FFC00
3FFF7FFE00
7FBFFC3F00
7E0FF01F00
FC07F00F80
F807F00F80
F803E00F80
F803FFFF80
F803FFFF80
F803FFFF80
F803E00000
F807F00000
F807F00F80
FC0FF81F80
7E1FFC3F00
7FFFFFFF00
3FFF7FFE00
1FFE3FFC00
07F80FF000
ENDCHAR
STARTCHAR 0154
ENCODING 340
SWIDTH 591 0
DWIDTH 23 0
BBX 20 38 2 0
BITMAP
001F00
001F00
003E00
007C00
007C00
00F800
00F000
01F000
000000
000000
000000
FFFE00
FFFF80
FFFFC0
FFFFE0
FC7FE0
FC07F0
FC03F0
FC01F0
FC01F0
FC01F0
FC03F0
FC03F0
FC0FE0
FFFFE0
FFFFC0
FFFF80
FFFC00
FC7E00
FC3F00
FC1F00
FC1F80
FC0F80
FC0FC0
FC07E0
FC07E0
FC03F0
FC01F0
ENDCHAR
STARTCHAR 0155
ENCODING 341
SWIDTH 385 0
DWIDTH 15 0
BBX 13 31 2 0
BITMAP
00F8
01F0
01F0
03E0
03C0
07C0
0780
0F00
0000
0000
FC10
FCF8
FDF8
FFF8
FFF8
FF88
FE00
FC00
FC00
FC00
FC00
FC00
FC00
FC00
FC00
FC00
FC00
FC00
FC00
FC00
FC00
ENDCHAR
STARTCHAR 0158
ENCODING 344
SWIDTH 591 0
DWIDTH 23 0
BBX 20 36 2 0
BITMAP
3E0F80
1F1F00
0FBE00
07FC00
03F800
01F000
000000
000000
000000
FFFE00
FFFF80
FFFFC0
FFFFE0
FC7FE0
FC07F0
FC03F0
FC01F0
FC01F0
FC01F0
FC03F0
FC03F0
FC0FE0
FFFFE0
FFFFC0
FFFF80
FFFC00
FC7E00
FC3F00
FC1F00
FC1F80
FC0F80
FC0FC0
FC07E0
FC07E0
FC03F0
FC01F0
ENDCHAR
STARTCHAR 0159
ENCODING 345
SWIDTH 385 0
DWIDTH 15 0
BBX 14 29 1 0
BITMAP
F87C
7CF8
3FF0
1FE0
0FC0
07C0
0000
0000
7E08
7E7C
7EFC
7FFC
7FFC
7FC4
7F00
7E00
7E00
7E00
7E00
7E00
7E00
7E00
7E00
7E00
7E00
7E00
7E00
7E00
7E00
ENDCHAR
STARTCHAR 015A
ENCODING 346
SWIDTH 591 0
DWIDTH 23 0
BBX 20 38 2 0
BITMAP
0007C0
000F80
000F80
001F00
001E00
003E00
003C00
007C00
000000
000000
01F000
0FFE00
1FFF80
3FFFC0
7FFFC0
7E0FE0
7C07E0
FC03F0
FC03F0
FC0000
7E0000
7F8000
7FFC00
3FFF00
0FFFC0
03FFE0
003FE0
0007F0
0003F0
FC03F0
FC03F0
FC03F0
FE07F0
7F9FE0
7FFFE0
3FFFC0
0FFF80
07FE00
ENDCHAR
STARTCHAR 015B
ENCODING 347
SWIDTH 488 0
DWIDTH 19 0
BBX 16 32 2 0
BITMAP
003E
007C
007C
00F8
00F0
01F0
01E0
03C0
0000
0000
0000
0FE0
3FF8
7FFC
7FFE
F87E
F83E
F83F
F800
FF00
7FF0
3FFC
0FFE
01FE
003F
F81F
F81F
FC3F
FFFE
7FFE
3FFC
0FF0
ENDCHAR
STARTCHAR 015E
ENCODING 350
SWIDTH 591 0
DWIDTH 23 0
BBX 20 38 2 -10
BITMAP
01F000
0FFE00
1FFF80
3FFFC0
7FFFC0
7E0FE0
7C07E0
FC03F0
FC03F0
FC0000
7E0000
7F8000
7FFC00
3FFF00
0FFFC0
03FFE0
003FE0
0007F0
0003F0
FC03F0
FC03F0
FC03F0
FE07F0
7F9FE0
7FFFE0
3FFFC0
1FFF80
07FE00
00E000
00E000
00FC00
00FE00
000E00
000600
000E00
00FE00
00FC00
007000
ENDCHAR
STARTCHAR 015F
ENCODING 351
SWIDTH 488 0
DWIDTH 19 0
BBX 16 31 2 -10
BITMAP
0FE0
3FF8
7FFC
7FFE
F87E
F83E
F83F
F800
FF00
7FF0
3FFC
0FFE
01FE
003F
F81F
F81F
FC3F
FFFE
7FFE
3FFC
0FF0
0180
0380
03F0
03F8
0018
001C
0038
03F8
03F0
01C0
ENDCHAR
STARTCHAR 0160
ENCODING 352
SWIDTH 591 0
DWIDTH 23 0
BBX 20 36 2 0
BITMAP
0F87C0
07CF80
03CF00
03FF00
01FE00
00FC00
000000
000000
01F000
0FFE00
1FFF80
3FFFC0
7FFFC0
7E0FE0
7C07E0
FC03F0
FC03F0
FC0000
7E0000
7F8000
7FFC00
3FFF00
0FFFC0
03FFE0
003FE0
0007F0
0003F0
FC03F0
FC03F0
FC03F0
FE07F0
7F9FE0
7FFFE0
3FFFC0
0FFF80
07FE00
ENDCHAR
STARTCHAR 0161
ENCODING 353
SWIDTH 488 0
DWIDTH 19 0
BBX 16 30 2 0
BITMAP
F83E
7C7C
3E78
1FF8
0FF0
07E0
0000
0000
0000
0FE0
3FF8
7FFC
7FFE
F87E
F83E
F83F
F800
FF00
7FF0
3FFC
0FFE
01FE
003F
F81F
F81F
FC3F
FFFE
7FFE
3FFC
0FF0
ENDCHAR
STARTCHAR 0162
ENCODING 354
SWIDTH 591 0
DWIDTH 23 0
BBX 21 37 1 -10
BITMAP
FFFFF8
FFFFF8
FFFFF8
FFFFF8
00F800
00F800
00F800
00F800
00F800
00F800
00F800
00F800
00F800
00F800
00F800
00F800
00F800
00F800
00F800
00F800
00F800
00F800
00F800
00F800
00F800
00F800
00F800
00E000
00E000
00FC00
00FE00
000E00
000600
000E00
00FE00
00FC00
007000
ENDCHAR
STARTCHAR 0163
ENCODING 355
SWIDTH 411 0
DWIDTH 16 0
BBX 14 36 1 -10
BITMAP
0F80
0F80
0F80
0F80
0F80
0F80
FFFC
FFFC
FFFC
FFFC
FFFC
0F80
0F80
0F80
0F80
0F80
0F80
0F80
0F80
0F80
0F80
0F80
0F80
0FFC
0FFC
07FC
03FC
01C0
0180
03F8
03F8
001C
001C
033C
03F8
03F0
ENDCHAR
STARTCHAR 0164
ENCODING 356
SWIDTH 591 0
DWIDTH 23 0
BBX 21 36 1 0
BITMAP
1F07C0
0F8F80
07DF00
03FE00
01FC00
00F800
000000
000000
000000
FFFFF8
FFFFF8
FFFFF8
FFFFF8
00F800
00F800
00F800
00F800
00F800
00F800
00F800
00F800
00F800
00F800
00F800
00F800
00F800
00F800
00F800
00F800
00F800
00F800
00F800
00F800
00F800
00F800
00F800
ENDCHAR
STARTCHAR 0165
ENCODING 357
SWIDTH 540 0
DWIDTH 21 0
BBX 20 32 1 0
BITMAP
000080
0003E0
0003F0
0007F0
0003F0
0F83F0
0F8070
0F8030
0F8070
0F8060
0F80E0
FFFDC0
FFFC00
FFFC00
FFFC00
FFFC00
0F8000
0F8000
0F8000
0F8000
0F8000
0F8000
0F8000
0F8000
0F8000
0F8000
0F8000
0F8000
0FFC00
0FFC00
07FC00
03FC00
ENDCHAR
STARTCHAR 0166
ENCODING 358
SWIDTH 591 0
DWIDTH 23 0
BBX 21 27 1 0
BITMAP
FFFFF8
FFFFF8
FFFFF8
FFFFF8
00F800
00F800
00F800
00F800
00F800
00F800
00F800
3FFFE0
3FFFE0
3FFFE0
3FFFE0
00F800
00F800
00F800
00F800
00F800
00F800
00F800
00F800
00F800
00F800
00F800
00F800
ENDCHAR
STARTCHAR 0167
ENCODING 359
SWIDTH 411 0
DWIDTH 16 0
BBX 14 27 1 0
BITMAP
0F80
0F80
0F80
0F80
0F80
0F80
FFFC
FFFC
FFFC
FFFC
FFFC
0F80
0F80
0F80
FFFC
FFFC
FFFC
0F80
0F80
0F80
0F80
0F80
0F80
0FFC
0FFC
07FC
03FC
ENDCHAR
STARTCHAR 0168
ENCODING 360
SWIDTH 668 0
DWIDTH 26 0
BBX 22 36 2 0
BITMAP
00C180
03F180
07FF80
07FF80
071F00
000000
000000
000000
000000
FC007C
FC007C
FC007C
FC007C
FC007C
FC007C
FC007C
FC007C
FC007C
FC007C
FC007C
FC007C
FC007C
FC007C
FC007C
FC007C
FC007C
FC007C
FC007C
7C00FC
7E00FC
7F03F8
3FFFF8
3FFFF0
1FFFE0
07FFC0
03FF00
ENDCHAR
STARTCHAR 0169
ENCODING 361
SWIDTH 565 0
DWIDTH 22 0
BBX 19 29 2 0
BITMAP
078600
0FEE00
1FFE00
1FFE00
1C3C00
000000
000000
000000
FC07E0
FC07E0
FC07E0
FC07E0
FC07E0
FC07E0
FC07E0
FC07E0
FC07E0
FC07E0
FC07E0
FC07E0
FC07E0
FC07E0
FC07E0
FE07E0
7F1FE0
7FFFE0
3FFFE0
3FF7E0
1FE7E0
ENDCHAR
STARTCHAR 016A
ENCODING 362
SWIDTH 668 0
DWIDTH 26 0
BBX 22 33 2 0
BITMAP
07FFC0
07FFC0
000000
000000
000000
000000
FC007C
FC007C
FC007C
FC007C
FC007C
FC007C
FC007C
FC007C
FC007C
FC007C
FC007C
FC007C
FC007C
FC007C
FC007C
FC007C
FC007C
FC007C
FC007C
7C00FC
7E00FC
7F03F8
3FFFF8
3FFFF0
1FFFE0
07FFC0
03FF00
ENDCHAR
STARTCHAR 016B
ENCODING 363
SWIDTH 565 0
DWIDTH 22 0
BBX 19 26 2 0
BITMAP
1FFE00
1FFE00
000000
000000
000000
FC07E0
FC07E0
FC07E0
FC07E0
FC07E0
FC07E0
FC07E0
FC07E0
FC07E0
FC07E0
FC07E0
FC07E0
FC07E0
FC07E0
FC07E0
FE07E0
7F1FE0
7FFFE0
3FFFE0
3FF7E0
1FE7E0
ENDCHAR
STARTCHAR 016E
ENCODING 366
SWIDTH 668 0
DWIDTH 26 0
BBX 22 38 2 0
BITMAP
003800
00FC00
00FE00
01C600
01C600
00EE00
00FC00
007800
000000
000000
000000
FC007C
FC007C
FC007C
FC007C
FC007C
FC007C
FC007C
FC007C
FC007C
FC007C
FC007C
FC007C
FC007C
FC007C
FC007C
FC007C
FC007C
FC007C
FC007C
7C00FC
7E00FC
7F03F8
3FFFF8
3FFFF0
1FFFE0
07FFC0
03FF00
ENDCHAR
STARTCHAR 016F
ENCODING 367
SWIDTH 565 0
DWIDTH 22 0
BBX 19 31 2 0
BITMAP
01E000
03F000
033800
071800
071800
03F800
03F000
004000
000000
000000
FC07E0
FC07E0
FC07E0
FC07E0
FC07E0
FC07E0
FC07E0
FC07E0
FC07E0
FC07E0
FC07E0
FC07E0
FC07E0
FC07E0
FC07E0
FE07E0
7F1FE0
7FFFE0
3FFFE0
3FF7E0
1FE7E0
ENDCHAR
STARTCHAR 0172
ENCODING 370
SWIDTH 668 0
DWIDTH 26 0
BBX 22 34 2 -7
BITMAP
FC007C
FC007C
FC007C
FC007C
FC007C
FC007C
FC007C
FC007C
FC007C
FC007C
FC007C
FC007C
FC007C
FC007C
FC007C
FC007C
FC007C
FC007C
FC007C
7C00FC
7E00FC
7F03F8
3FFFF8
3FFFF0
1FFFE0
07FFC0
03FF00
007800
00F000
00F000
00F000
00FE00
007E00
001E00
ENDCHAR
STARTCHAR 0173
ENCODING 371
SWIDTH 565 0
DWIDTH 22 0
BBX 20 28 2 -7
BITMAP
FC07E0
FC07E0
FC07E0
FC07E0
FC07E0
FC07E0
FC07E0
FC07E0
FC07E0
FC07E0
FC07E0
FC07E0
FC07E0
FC07E0
FC07E0
FE07E0
7F1FE0
7FFFE0
3FFFE0
3FF7E0
1FE7E0
0003C0
000780
000780
000780
0007F0
0003F0
0000F0
ENDCHAR
STARTCHAR 0174
ENCODING 372
SWIDTH 977 0
DWIDTH 38 0
BBX 37 36 1 0
BITMAP
0000F80000
0001FC0000
0003FE0000
0007FE0000
000F9F0000
000F0F8000
0010000000
0000000000
0000000000
F800F800F8
F801F801F8
F801FC01F8
FC01FC01F0
7C01FC01F0
7C03FC01F0
7C03FE03F0
7E03FE03E0
3E07FE03E0
3E07DF03E0
3E07DF07E0
3F0FDF07C0
1F0F9F87C0
1F0F8F87C0
1F1F8F8FC0
1F9F0FCF80
0F9F07CF80
0F9F07CF80
0FBF07DF80
0FBE03FF00
07FE03FF00
07FE03FF00
07FC03FE00
03FC01FE00
03FC01FE00
03F801FE00
03F800FC00
ENDCHAR
STARTCHAR 0175
ENCODING 373
SWIDTH 822 0
DWIDTH 32 0
BBX 30 29 1 0
BITMAP
0007C000
000FE000
001FF000
003FF000
007CF800
00F87C00
00000000
00000000
F807807C
F80FC07C
F80FC07C
7C0FC078
7C1FE0F8
7C1FE0F8
7C1FE0F8
3C1FE0F0
3E3FF1F0
3E3FF1F0
3E3CF1F0
1E3CF9E0
1F7CFBE0
1F7CFBE0
1F787BE0
0FF87FC0
0FF87FC0
0FF83FC0
0FF03FC0
07F03F80
07F03F80
ENDCHAR
STARTCHAR 0176
ENCODING 374
SWIDTH 642 0
DWIDTH 25 0
BBX 23 36 1 0
BITMAP
007C00
00FE00
01FF00
01EF80
03E7C0
07C7C0
000020
000000
000000
FC007E
7C007C
7E00FC
3E00F8
3F01F8
1F01F0
1F83F0
0F83E0
0FC7E0
07C7C0
07EFC0
03EF80
03FF80
01FF00
01FF00
00FE00
00FE00
007C00
007C00
007C00
007C00
007C00
007C00
007C00
007C00
007C00
007C00
ENDCHAR
STARTCHAR 0177
ENCODING 375
SWIDTH 540 0
DWIDTH 21 0
BBX 20 38 1 -9
BITMAP
01F000
03F800
07FC00
07BE00
0F9F00
1F0F80
000000
000000
F801F0
FC03F0
7C03E0
7C03E0
7E07E0
3E07C0
3E07C0
3E0F80
1F0F80
1F0F80
0F1F00
0F9F00
0F9E00
07BE00
07FE00
07FC00
03FC00
03F800
03F800
01F800
01F000
01F000
03F000
03E000
07E000
1FC000
7FC000
7F8000
7F0000
380000
ENDCHAR
STARTCHAR 0178
ENCODING 376
SWIDTH 642 0
DWIDTH 25 0
BBX 23 37 1 0
BITMAP
0301C0
0F83E0
0FC3F0
0FC3F0
0FC3E0
0781E0
000000
000000
000000
000000
FC007E
7C007C
7E00FC
3E00F8
3F01F8
1F01F0
1F83F0
0F83E0
0FC7E0
07C7C0
07EFC0
03EF80
03FF80
01FF00
01FF00
00FE00
00FE00
007C00
007C00
007C00
007C00
007C00
007C00
007C00
007C00
007C00
007C00
ENDCHAR
STARTCHAR 0179
ENCODING 377
SWIDTH 617 0
DWIDTH 24 0
BBX 20 38 2 0
BITMAP
000F80
001F80
001F00
003E00
003E00
007C00
007800
00F800
000000
000000
000000
FFFFF0
FFFFF0
FFFFF0
FFFFF0
FFFFF0
0007E0
000FE0
001FC0
001F80
003F00
007E00
00FE00
01FC00
01F800
03F000
07E000
0FE000
1FC000
1F8000
3F0000
7E0000
FE0000
FFFFF0
FFFFF0
FFFFF0
FFFFF0
FFFFF0
ENDCHAR
STARTCHAR 017A
ENCODING 378
SWIDTH 488 0
DWIDTH 19 0
BBX 16 31 2 0
BITMAP
007E
007C
00F8
00F8
01F0
01E0
03E0
03C0
0000
0000
FFFF
FFFF
FFFF
FFFF
FFFF
007E
00FC
00F8
01F0
03F0
07E0
0FC0
0F80
1F00
3F00
7E00
FC00
FFFF
FFFF
FFFF
FFFF
ENDCHAR
STARTCHAR 017B
ENCODING 379
SWIDTH 617 0
DWIDTH 24 0
BBX 20 37 2 0
BITMAP
006000
00F800
01F800
01F800
01F800
00F000
000000
000000
000000
000000
FFFFF0
FFFFF0
FFFFF0
FFFFF0
FFFFF0
0007E0
000FE0
001FC0
001F80
003F00
007E00
00FE00
01FC00
01F800
03F000
07E000
0FE000
1FC000
1F8000
3F0000
7E0000
FE0000
FFFFF0
FFFFF0
FFFFF0
FFFFF0
FFFFF0
ENDCHAR
STARTCHAR 017C
ENCODING 380
SWIDTH 488 0
DWIDTH 19 0
BBX 16 30 2 0
BITMAP
03C0
07E0
07E0
07E0
07C0
03C0
0000
0000
0000
FFFF
FFFF
FFFF
FFFF
FFFF
007E
00FC
00F8
01F0
03F0
07E0
0FC0
0F80
1F00
3F00
7E00
FC00
FFFF
FFFF
FFFF
FFFF
ENDCHAR
STARTCHAR 017D
ENCODING 381
SWIDTH 617 0
DWIDTH 24 0
BBX 20 36 2 0
BITMAP
1F0F80
0F8F80
07DF00
03FE00
01FC00
01F800
000000
000000
000000
FFFFF0
FFFFF0
FFFFF0
FFFFF0
FFFFF0
0007E0
000FE0
001FC0
001F80
003F00
007E00
00FE00
01FC00
01F800
03F000
07E000
0FE000
1FC000
1F8000
3F0000
7E0000
FE0000
FFFFF0
FFFFF0
FFFFF0
FFFFF0
FFFFF0
ENDCHAR
STARTCHAR 017E
ENCODING 382
SWIDTH 488 0
DWIDTH 19 0
BBX 16 29 2 0
BITMAP
7C3E
3E7C
1FF8
0FF0
07E0
07C0
0000
0000
FFFF
FFFF
FFFF
FFFF
FFFF
007E
00FC
00F8
01F0
03F0
07E0
0FC0
0F80
1F00
3F00
7E00
FC00
FFFF
FFFF
FFFF
FFFF
ENDCHAR
STARTCHAR 01A0
ENCODING 416
SWIDTH 720 0
DWIDTH 28 0
BBX 25 31 2 0
BITMAP
00000F00
00000F00
00000F00
003E3E00
03FFFE00
07FFFC00
0FFFF800
1FFFF800
3FC3FC00
7F00FE00
7E007E00
7E007F00
FC003F00
FC003F00
FC003F00
F8001F00
F8001F00
F8001F80
F8001F00
F8001F00
FC003F00
FC003F00
FC003F00
7E007E00
7F007E00
3F81FE00
3FFFFC00
1FFFF800
0FFFF000
07FFE000
01FF8000
ENDCHAR
STARTCHAR 01A1
ENCODING 417
SWIDTH 591 0
DWIDTH 23 0
BBX 20 25 2 0
BITMAP
0000F0
0000F0
0000F0
0000F0
03FFF0
0FFFE0
1FFF80
3FFF80
7FBFC0
7E0FC0
FC07E0
F807E0
F803E0
F803E0
F803E0
F803E0
F803E0
F803E0
FC07E0
FC07C0
7E1FC0
3FFF80
3FFF00
1FFE00
07FC00
ENDCHAR
STARTCHAR 01AF
ENCODING 431
SWIDTH 668 0
DWIDTH 26 0
BBX 27 31 2 0
BITMAP
000001E0
000001E0
000001E0
000003E0
FC007FC0
FC007F80
FC007C00
FC007C00
FC007C00
FC007C00
FC007C00
FC007C00
FC007C00
FC007C00
FC007C00
FC007C00
FC007C00
FC007C00
FC007C00
FC007C00
FC007C00
FC007C00
FC007C00
7C00FC00
7E00FC00
7F03F800
3FFFF800
3FFFF000
1FFFE000
07FFC000
03FF0000
ENDCHAR
STARTCHAR 01B0
ENCODING 432
SWIDTH 591 0
DWIDTH 23 0
BBX 23 25 2 0
BITMAP
00000E
00000E
00000E
00001E
FC07FE
FC07FC
FC07F8
FC07E0
FC07E0
FC07E0
FC07E0
FC07E0
FC07E0
FC07E0
FC07E0
FC07E0
FC07E0
FC07E0
FC07E0
FE07E0
7F1FE0
7FFFE0
3FFFE0
3FF7E0
1FE7E0
ENDCHAR
STARTCHAR 02C6
ENCODING 710
SWIDTH 437 0
DWIDTH 17 0
BBX 14 6 2 23
BITMAP
0F80
1FC0
3FE0
3DF0
7CF8
F87C
ENDCHAR
STARTCHAR 02C7
ENCODING 711
SWIDTH 437 0
DWIDTH 17 0
BBX 14 6 2 23
BITMAP
F87C
7CF8
3DF0
3FE0
1FC0
0F80
ENDCHAR
STARTCHAR 02D8
ENCODING 728
SWIDTH 411 0
DWIDTH 16 0
BBX 13 5 2 23
BITMAP
F078
FDF8
7FF0
3FC0
0200
ENDCHAR
STARTCHAR 02D9
ENCODING 729
SWIDTH 205 0
DWIDTH 8 0
BBX 6 6 1 24
BITMAP
38
7C
FC
7C
7C
38
ENDCHAR
STARTCHAR 02DA
ENCODING 730
SWIDTH 257 0
DWIDTH 10 0
BBX 8 8 1 23
BITMAP
3C
7E
E7
C3
E7
7E
7E
18
ENDCHAR
STARTCHAR 02DB
ENCODING 731
SWIDTH 231 0
DWIDTH 9 0
BBX 7 8 1 -8
BITMAP
30
78
F0
F0
F0
FE
7E
3E
ENDCHAR
STARTCHAR 02DC
ENCODING 732
SWIDTH 385 0
DWIDTH 15 0
BBX 12 5 2 24
BITMAP
7870
FFF0
FFF0
EFE0
C3C0
ENDCHAR
STARTCHAR 0300
ENCODING 768
SWIDTH 0 0
DWIDTH 0 0
BBX 9 8 -10 24
BITMAP
F800
7C00
7C00
3E00
1E00
1F00
0F00
0780
ENDCHAR
STARTCHAR 0301
ENCODING 769
SWIDTH 0 0
DWIDTH 0 0
BBX 9 8 -9 24
BITMAP
0F80
1F80
1F00
3E00
3E00
7C00
7800
F800
ENDCHAR
STARTCHAR 0302
ENCODING 770
SWIDTH 0 0
DWIDTH 0 0
BBX 14 6 -14 23
BITMAP
0F80
1FC0
3FE0
7DF0
F8F8
F07C
ENDCHAR
STARTCHAR 0303
ENCODING 771
SWIDTH 0 0
DWIDTH 0 0
BBX 13 5 -14 24
BITMAP
3C38
7FF8
7FF8
77F0
E1E0
ENDCHAR
STARTCHAR 0304
ENCODING 772
SWIDTH 0 0
DWIDTH 0 0
BBX 13 3 -16 25
BITMAP
FFF8
FFF8
FFF8
ENDCHAR
STARTCHAR 0306
ENCODING 774
SWIDTH 0 0
DWIDTH 0 0
BBX 14 5 -15 23
BITMAP
F83C
7EF8
3FF8
1FE0
0100
ENDCHAR
STARTCHAR 0307
ENCODING 775
SWIDTH 0 0
DWIDTH 0 0
BBX 6 6 -8 24
BITMAP
70
F8
FC
FC
F8
70
ENDCHAR
STARTCHAR 0308
ENCODING 776
SWIDTH 0 0
DWIDTH 0 0
BBX 16 6 -18 24
BITMAP
781E
FC3E
FC3F
FC3F
F83E
701C
ENDCHAR
STARTCHAR 0309
ENCODING 777
SWIDTH 0 0
DWIDTH 0 0
BBX 10 8 -11 24
BITMAP
3E00
7F80
FF80
F3C0
03C0
0380
0F80
1E00
ENDCHAR
STARTCHAR 030A
ENCODING 778
SWIDTH 0 0
DWIDTH 0 0
BBX 8 8 -10 23
BITMAP
3C
7E
67
E3
E3
7F
7E
08
ENDCHAR
STARTCHAR 030C
ENCODING 780
SWIDTH 0 0
DWIDTH 0 0
BBX 14 6 -16 23
BITMAP
F87C
7CF8
3FF0
1FE0
0FC0
07C0
ENDCHAR
STARTCHAR 031B
ENCODING 795
SWIDTH 0 0
DWIDTH 0 0
BBX 8 7 -9 23
BITMAP
0F
0F
0F
0F
FF
FE
E0
ENDCHAR
STARTCHAR 0323
ENCODING 803
SWIDTH 0 0
DWIDTH 0 0
BBX 6 5 -6 -9
BITMAP
78
F8
FC
FC
78
ENDCHAR
STARTCHAR 0327
ENCODING 807
SWIDTH 0 0
DWIDTH 0 0
BBX 8 10 -9 -10
BITMAP
70
60
FE
FE
07
07
0F
FE
FE
70
ENDCHAR
STARTCHAR 0328
ENCODING 808
SWIDTH 0 0
DWIDTH 0 0
BBX 7 8 -8 -8
BITMAP
30
78
F0
E0
E0
FE
FE
3E
ENDCHAR
STARTCHAR 1E80
ENCODING 7808
SWIDTH 977 0
DWIDTH 38 0
BBX 37 38 1 0
BITMAP
001F800000
000F800000
0007C00000
0007C00000
0003E00000
0001E00000
0001F00000
0000F00000
0000000000
0000000000
0000000000
F800F800F8
F801F801F8
F801FC01F8
FC01FC01F0
7C01FC01F0
7C03FC01F0
7C03FE03F0
7E03FE03E0
3E07FE03E0
3E07DF03E0
3E07DF07E0
3F0FDF07C0
1F0F9F87C0
1F0F8F87C0
1F1F8F8FC0
1F9F0FCF80
0F9F07CF80
0F9F07CF80
0FBF07DF80
0FBE03FF00
07FE03FF00
07FE03FF00
07FC03FE00
03FC01FE00
03FC01FE00
03F801FE00
03F800FC00
ENDCHAR
STARTCHAR 1E81
ENCODING 7809
SWIDTH 822 0
DWIDTH 32 0
BBX 30 31 1 0
BITMAP
00FC0000
007C0000
003E0000
003E0000
001F0000
001F0000
000F8000
00078000
00000000
00000000
F807807C
F80FC07C
F80FC07C
7C0FC078
7C1FE0F8
7C1FE0F8
7C1FE0F8
3C1FE0F0
3E3FF1F0
3E3FF1F0
3E3CF1F0
1E3CF9E0
1F7CFBE0
1F7CFBE0
1F787BE0
0FF87FC0
0FF87FC0
0FF83FC0
0FF03FC0
07F03F80
07F03F80
ENDCHAR
STARTCHAR 1E82
ENCODING 7810
SWIDTH 977 0
DWIDTH 38 0
BBX 37 38 1 0
BITMAP
00000F8000
00000F8000
00001F0000
00003E0000
00003E0000
00007C0000
0000780000
0000F80000
0000000000
0000000000
0000000000
F800F800F8
F801F801F8
F801FC01F8
FC01FC01F0
7C01FC01F0
7C03FC01F0
7C03FE03F0
7E03FE03E0
3E07FE03E0
3E07DF03E0
3E07DF07E0
3F0FDF07C0
1F0F9F87C0
1F0F8F87C0
1F1F8F8FC0
1F9F0FCF80
0F9F07CF80
0F9F07CF80
0FBF07DF80
0FBE03FF00
07FE03FF00
07FE03FF00
07FC03FE00
03FC01FE00
03FC01FE00
03F801FE00
03F800FC00
ENDCHAR
STARTCHAR 1E83
ENCODING 7811
SWIDTH 822 0
DWIDTH 32 0
BBX 30 31 1 0
BITMAP
00007C00
0000F800
0000F800
0001F000
0001E000
0003E000
0007C000
00078000
00000000
00000000
F807807C
F80FC07C
F80FC07C
7C0FC078
7C1FE0F8
7C1FE0F8
7C1FE0F8
3C1FE0F0
3E3FF1F0
3E3FF1F0
3E3CF1F0
1E3CF9E0
1F7CFBE0
1F7CFBE0
1F787BE0
0FF87FC0
0FF87FC0
0FF83FC0
0FF03FC0
07F03F80
07F03F80
ENDCHAR
STARTCHAR 1E84
ENCODING 7812
SWIDTH 977 0
DWIDTH 38 0
BBX 37 37 1 0
BITMAP
000E038000
001F07C000
001F87C000
001F87E000
001F07C000
000F03C000
0000000000
0000000000
0000000000
0000000000
F800F800F8
F801F801F8
F801FC01F8
FC01FC01F0
7C01FC01F0
7C03FC01F0
7C03FE03F0
7E03FE03E0
3E07FE03E0
3E07DF03E0
3E07DF07E0
3F0FDF07C0
1F0F9F87C0
1F0F8F87C0
1F1F8F8FC0
1F9F0FCF80
0F9F07CF80
0F9F07CF80
0FBF07DF80
0FBE03FF00
07FE03FF00
07FE03FF00
07FC03FE00
03FC01FE00
03FC01FE00
03F801FE00
03F800FC00
ENDCHAR
STARTCHAR 1E85
ENCODING 7813
SWIDTH 822 0
DWIDTH 32 0
BBX 30 30 1 0
BITMAP
00703C00
00F83E00
01F87E00
01F87E00
00F83E00
00701C00
00000000
00000000
00000000
F807807C
F80FC07C
F80FC07C
7C0FC078
7C1FE0F8
7C1FE0F8
7C1FE0F8
3C1FE0F0
3E3FF1F0
3E3FF1F0
3E3CF1F0
1E3CF9E0
1F7CFBE0
1F7CFBE0
1F787BE0
0FF87FC0
0FF87FC0
0FF83FC0
0FF03FC0
07F03F80
07F03F80
ENDCHAR
STARTCHAR 1EA0
ENCODING 7840
SWIDTH 668 0
DWIDTH 26 0
BBX 24 36 1 -9
BITMAP
007E00
007E00
007F00
00FF00
00FF00
00FF80
01FF80
01F7C0
01E7C0
03E7C0
03E3E0
07C3E0
07C3E0
07C1F0
0F81F0
0F81F0
0FFFF8
1FFFF8
1FFFF8
1FFFFC
3E007C
3E007E
3E003E
7C003E
7C003F
FC001F
FC001F
000000
000000
000000
000000
003C00
003E00
007E00
007E00
003C00
ENDCHAR
STARTCHAR 1EA1
ENCODING 7841
SWIDTH 617 0
DWIDTH 24 0
BBX 21 30 1 -9
BITMAP
03F1F8
0FF9F8
1FFDF8
3FFFF8
3FDFF8
7F07F8
7E03F8
7C01F8
7C01F8
FC01F8
FC01F8
FC01F8
FC01F8
7C01F8
7E03F8
7E03F8
7F8FF8
3FFFF8
1FFDF8
1FF9F8
07F1F8
000000
000000
000000
000000
007800
00FC00
00FC00
00FC00
007800
ENDCHAR
STARTCHAR 1EA2
ENCODING 7842
SWIDTH 668 0
DWIDTH 26 0
BBX 24 38 1 0
BITMAP
007E00
00FF00
01FF80
01E780
000780
000780
001F00
003C00
000000
000000
000000
007E00
007E00
007F00
00FF00
00FF00
00FF80
01FF80
01F7C0
01E7C0
03E7C0
03E3E0
07C3E0
07C3E0
07C1F0
0F81F0
0F81F0
0FFFF8
1FFFF8
1FFFF8
1FFFFC
3E007C
3E007E
3E003E
7C003E
7C003F
FC001F
FC001F
ENDCHAR
STARTCHAR 1EA3
ENCODING 7843
SWIDTH 617 0
DWIDTH 24 0
BBX 21 31 1 0
BITMAP
01FC00
01FE00
03FF00
03CF00
000F00
001E00
003C00
007800
000000
000000
03F1F8
0FF9F8
1FFDF8
3FFFF8
3FDFF8
7F07F8
7E03F8
7C01F8
7C01F8
FC01F8
FC01F8
FC01F8
FC01F8
7C01F8
7E03F8
7E03F8
7F8FF8
3FFFF8
1FFDF8
1FF9F8
07F1F8
ENDCHAR
STARTCHAR 1EA4
ENCODING 7844
SWIDTH 668 0
DWIDTH 26 0
BBX 26 42 1 0
BITMAP
000007C0
00000F80
00000F80
00001F00
00001E00
00003E00
003E3C00
007E0000
00FF0000
01FF8000
03E7C000
07C3E000
00000000
00000000
00000000
007E0000
007E0000
007F0000
00FF0000
00FF0000
00FF8000
01FF8000
01F7C000
01E7C000
03E7C000
03E3E000
07C3E000
07C3E000
07C1F000
0F81F000
0F81F000
0FFFF800
1FFFF800
1FFFF800
1FFFFC00
3E007C00
3E007E00
3E003E00
7C003E00
7C003F00
FC001F00
FC001F00
ENDCHAR
STARTCHAR 1EA5
ENCODING 7845
SWIDTH 617 0
DWIDTH 24 0
BBX 25 36 1 0
BITMAP
00000F80
00001F80
00001F00
00003E00
00003E00
00007C00
00007800
00FCF800
01FE0000
01FE0000
03FF0000
07CF8000
0F87C000
00000000
00000000
03F1F800
0FF9F800
1FFDF800
3FFFF800
3FDFF800
7F07F800
7E03F800
7C01F800
7C01F800
FC01F800
FC01F800
FC01F800
FC01F800
7C01F800
7E03F800
7E03F800
7F8FF800
3FFFF800
1FFDF800
1FF9F800
07F1F800
ENDCHAR
STARTCHAR 1EA6
ENCODING 7846
SWIDTH 668 0
DWIDTH 26 0
BBX 24 42 1 0
BITMAP
0007E0
0003E0
0001F0
0001F0
0000F8
000078
003E7C
007E00
00FF00
01FF80
03E7C0
07C3E0
000000
000000
000000
007E00
007E00
007F00
00FF00
00FF00
00FF80
01FF80
01F7C0
01E7C0
03E7C0
03E3E0
07C3E0
07C3E0
07C1F0
0F81F0
0F81F0
0FFFF8
1FFFF8
1FFFF8
1FFFFC
3E007C
3E007E
3E003E
7C003E
7C003F
FC001F
FC001F
ENDCHAR
STARTCHAR 1EA7
ENCODING 7847
SWIDTH 617 0
DWIDTH 24 0
BBX 21 36 1 0
BITMAP
000F80
000FC0
0007C0
0003E0
0003E0
0001F0
0000F0
00FCF8
01FE00
01FE00
03FF00
07CF80
0F87C0
000000
000000
03F1F8
0FF9F8
1FFDF8
3FFFF8
3FDFF8
7F07F8
7E03F8
7C01F8
7C01F8
FC01F8
FC01F8
FC01F8
FC01F8
7C01F8
7E03F8
7E03F8
7F8FF8
3FFFF8
1FFDF8
1FF9F8
07F1F8
ENDCHAR
STARTCHAR 1EA8
ENCODING 7848
SWIDTH 668 0
DWIDTH 26 0
BBX 24 43 1 0
BITMAP
0000FC
0001FF
0001FF
0003C7
000007
00000F
00001E
003E7C
007E00
00FF00
01FF80
03E7C0
07C3E0
000000
000000
000000
007E00
007E00
007F00
00FF00
00FF00
00FF80
01FF80
01F7C0
01E7C0
03E7C0
03E3E0
07C3E0
07C3E0
07C1F0
0F81F0
0F81F0
0FFFF8
1FFFF8
1FFFF8
1FFFFC
3E007C
3E007E
3E003E
7C003E
7C003F
FC001F
FC001F
ENDCHAR
STARTCHAR 1EA9
ENCODING 7849
SWIDTH 617 0
DWIDTH 24 0
BBX 23 36 1 0
BITMAP
0001FC
0003FE
0007FE
00078E
00001E
00003C
000078
00FCF0
01FE00
01FE00
03FF00
07CF80
0F87C0
000000
000000
03F1F8
0FF9F8
1FFDF8
3FFFF8
3FDFF8
7F07F8
7E03F8
7C01F8
7C01F8
FC01F8
FC01F8
FC01F8
FC01F8
7C01F8
7E03F8
7E03F8
7F8FF8
3FFFF8
1FFDF8
1FF9F8
07F1F8
ENDCHAR
STARTCHAR 1EAA
ENCODING 7850
SWIDTH 668 0
DWIDTH 26 0
BBX 24 43 1 0
BITMAP
0040C0
01F9C0
03FFC0
03FFC0
039F80
038000
000000
003C00
007E00
00FF00
01FF80
03E7C0
07C3E0
000000
000000
000000
007E00
007E00
007F00
00FF00
00FF00
00FF80
01FF80
01F7C0
01E7C0
03E7C0
03E3E0
07C3E0
07C3E0
07C1F0
0F81F0
0F81F0
0FFFF8
1FFFF8
1FFFF8
1FFFFC
3E007C
3E007E
3E003E
7C003E
7C003F
FC001F
FC001F
ENDCHAR
STARTCHAR 1EAB
ENCODING 7851
SWIDTH 617 0
DWIDTH 24 0
BBX 21 36 1 0
BITMAP
01C380
03F380
07FF80
07FF80
071F00
000000
000000
00FC00
01FC00
03FE00
03DF00
07CF80
0F87C0
000000
000000
03F1F8
0FF9F8
1FFDF8
3FFFF8
3FDFF8
7F07F8
7E03F8
7C01F8
7C01F8
FC01F8
FC01F8
FC01F8
FC01F8
7C01F8
7E03F8
7E03F8
7F8FF8
3FFFF8
1FFDF8
1FF9F8
07F1F8
ENDCHAR
STARTCHAR 1EAC
ENCODING 7852
SWIDTH 668 0
DWIDTH 26 0
BBX 24 45 1 -9
BITMAP
003E00
007E00
00FF00
01FF80
03E7C0
07C3E0
000000
000000
000000
007E00
007E00
007F00
00FF00
00FF00
00FF80
01FF80
01F7C0
01E7C0
03E7C0
03E3E0
07C3E0
07C3E0
07C1F0
0F81F0
0F81F0
0FFFF8
1FFFF8
1FFFF8
1FFFFC
3E007C
3E007E
3E003E
7C003E
7C003F
FC001F
FC001F
000000
000000
000000
000000
003C00
003E00
007E00
007E00
003C00
ENDCHAR
STARTCHAR 1EAD
ENCODING 7853
SWIDTH 617 0
DWIDTH 24 0
BBX 21 38 1 -9
BITMAP
00FC00
01FE00
01FE00
03FF00
07CF80
0F87C0
000000
000000
03F1F8
0FF9F8
1FFDF8
3FFFF8
3FDFF8
7F07F8
7E03F8
7C01F8
7C01F8
FC01F8
FC01F8
FC01F8
FC01F8
7C01F8
7E03F8
7E03F8
7F8FF8
3FFFF8
1FFDF8
1FF9F8
07F1F8
000000
000000
000000
000000
007800
00FC00
00FC00
00FC00
007800
ENDCHAR
STARTCHAR 1EAE
ENCODING 7854
SWIDTH 668 0
DWIDTH 26 0
BBX 24 44 1 0
BITMAP
0003E0
0007C0
0007C0
000F80
000F00
001F00
003E00
000000
000000
0781E0
03C3E0
03FFC0
00FF80
007E00
000000
000000
000000
007E00
007E00
007F00
00FF00
00FF00
00FF80
01FF80
01F7C0
01E7C0
03E7C0
03E3E0
07C3E0
07C3E0
07C1F0
0F81F0
0F81F0
0FFFF8
1FFFF8
1FFFF8
1FFFFC
3E007C
3E007E
3E003E
7C003E
7C003F
FC001F
FC001F
ENDCHAR
STARTCHAR 1EAF
ENCODING 7855
SWIDTH 617 0
DWIDTH 24 0
BBX 21 38 1 0
BITMAP
0007C0
000F80
000F80
001F00
001E00
003E00
003C00
007C00
000000
000000
0F07C0
07DF80
03FF00
01FE00
003000
000000
000000
03F1F8
0FF9F8
1FFDF8
3FFFF8
3FDFF8
7F07F8
7E03F8
7C01F8
7C01F8
FC01F8
FC01F8
FC01F8
FC01F8
7C01F8
7E03F8
7E03F8
7F8FF8
3FFFF8
1FFDF8
1FF9F8
07F1F8
ENDCHAR
STARTCHAR 1EB0
ENCODING 7856
SWIDTH 668 0
DWIDTH 26 0
BBX 24 44 1 0
BITMAP
03E000
03E000
01F000
00F000
00F800
007800
003C00
000000
000000
07C1E0
03E3E0
01FFC0
00FF80
003E00
000000
000000
000000
007E00
007E00
007F00
00FF00
00FF00
00FF80
01FF80
01F7C0
01E7C0
03E7C0
03E3E0
07C3E0
07C3E0
07C1F0
0F81F0
0F81F0
0FFFF8
1FFFF8
1FFFF8
1FFFFC
3E007C
3E007E
3E003E
7C003E
7C003F
FC001F
FC001F
ENDCHAR
STARTCHAR 1EB1
ENCODING 7857
SWIDTH 617 0
DWIDTH 24 0
BBX 21 38 1 0
BITMAP
0F8000
07C000
07C000
03E000
01E000
01F000
00F000
007800
000000
000000
0F83C0
07EF80
03FF00
01FE00
003800
000000
000000
03F1F8
0FF9F8
1FFDF8
3FFFF8
3FDFF8
7F07F8
7E03F8
7C01F8
7C01F8
FC01F8
FC01F8
FC01F8
FC01F8
7C01F8
7E03F8
7E03F8
7F8FF8
3FFFF8
1FFDF8
1FF9F8
07F1F8
ENDCHAR
STARTCHAR 1EB2
ENCODING 7858
SWIDTH 668 0
DWIDTH 26 0
BBX 24 45 1 0
BITMAP
000800
00FF00
00FF80
01F780
000780
000780
000F00
001E00
000000
000000
0781E0
03C3E0
03FFC0
00FF80
007E00
000000
000000
000000
007E00
007E00
007F00
00FF00
00FF00
00FF80
01FF80
01F7C0
01E7C0
03E7C0
03E3E0
07C3E0
07C3E0
07C1F0
0F81F0
0F81F0
0FFFF8
1FFFF8
1FFFF8
1FFFFC
3E007C
3E007E
3E003E
7C003E
7C003F
FC001F
FC001F
ENDCHAR
STARTCHAR 1EB3
ENCODING 7859
SWIDTH 617 0
DWIDTH 24 0
BBX 21 38 1 0
BITMAP
00F800
01FE00
03FF00
03CF00
000F00
000E00
003E00
007800
000000
000000
0F07C0
07DF80
03FF00
01FE00
003000
000000
000000
03F1F8
0FF9F8
1FFDF8
3FFFF8
3FDFF8
7F07F8
7E03F8
7C01F8
7C01F8
FC01F8
FC01F8
FC01F8
FC01F8
7C01F8
7E03F8
7E03F8
7F8FF8
3FFFF8
1FFDF8
1FF9F8
07F1F8
ENDCHAR
STARTCHAR 1EB4
ENCODING 7860
SWIDTH 668 0
DWIDTH 26 0
BBX 24 42 1 0
BITMAP
01F0C0
01FFC0
03FFC0
039FC0
038700
000000
000000
07C1E0
03E3E0
01FFC0
00FF80
003E00
000000
000000
000000
007E00
007E00
007F00
00FF00
00FF00
00FF80
01FF80
01F7C0
01E7C0
03E7C0
03E3E0
07C3E0
07C3E0
07C1F0
0F81F0
0F81F0
0FFFF8
1FFFF8
1FFFF8
1FFFFC
3E007C
3E007E
3E003E
7C003E
7C003F
FC001F
FC001F
ENDCHAR
STARTCHAR 1EB5
ENCODING 7861
SWIDTH 617 0
DWIDTH 24 0
BBX 21 36 1 0
BITMAP
000380
03F380
07FF80
07FF80
073F00
070400
000000
000000
0F87C0
07DF80
03FF00
01FE00
003000
000000
000000
03F1F8
0FF9F8
1FFDF8
3FFFF8
3FDFF8
7F07F8
7E03F8
7C01F8
7C01F8
FC01F8
FC01F8
FC01F8
FC01F8
7C01F8
7E03F8
7E03F8
7F8FF8
3FFFF8
1FFDF8
1FF9F8
07F1F8
ENDCHAR
STARTCHAR 1EB6
ENCODING 7862
SWIDTH 668 0
DWIDTH 26 0
BBX 24 44 1 -9
BITMAP
0781E0
03C3E0
03FFC0
00FF80
007E00
000000
000000
000000
007E00
007E00
007F00
00FF00
00FF00
00FF80
01FF80
01F7C0
01E7C0
03E7C0
03E3E0
07C3E0
07C3E0
07C1F0
0F81F0
0F81F0
0FFFF8
1FFFF8
1FFFF8
1FFFFC
3E007C
3E007E
3E003E
7C003E
7C003F
FC001F
FC001F
000000
000000
000000
000000
003C00
003E00
007E00
007E00
003C00
ENDCHAR
STARTCHAR 1EB7
ENCODING 7863
SWIDTH 617 0
DWIDTH 24 0
BBX 21 37 1 -9
BITMAP
0F87C0
07DF80
03FF00
01FE00
003000
000000
000000
03F1F8
0FF9F8
1FFDF8
3FFFF8
3FDFF8
7F07F8
7E03F8
7C01F8
7C01F8
FC01F8
FC01F8
FC01F8
FC01F8
7C01F8
7E03F8
7E03F8
7F8FF8
3FFFF8
1FFDF8
1FF9F8
07F1F8
000000
000000
000000
000000
007800
00FC00
00FC00
00FC00
007800
ENDCHAR
STARTCHAR 1EB8
ENCODING 7864
SWIDTH 565 0
DWIDTH 22 0
BBX 18 36 2 -9
BITMAP
FFFFC0
FFFFC0
FFFFC0
FFFFC0
FC0000
FC0000
FC0000
FC0000
FC0000
FC0000
FC0000
FFFF00
FFFF00
FFFF00
FFFF00
FC0000
FC0000
FC0000
FC0000
FC0000
FC0000
FC0000
FFFFC0
FFFFC0
FFFFC0
FFFFC0
FFFFC0
000000
000000
000000
000000
01E000
01F000
03F000
03F000
01E000
ENDCHAR
STARTCHAR 1EB9
ENCODING 7865
SWIDTH 565 0
DWIDTH 22 0
BBX 19 30 2 -9
BITMAP
03F800
0FFE00
1FFF00
3FFF80
7E0FC0
7C07C0
F807C0
F803E0
F803E0
FFFFE0
FFFFE0
FFFFE0
F80000
F80000
F807E0
FC07C0
7E0FC0
3FFF80
3FFF00
1FFE00
07FC00
000000
000000
000000
000000
00E000
01F000
01F000
01F000
01F000
ENDCHAR
STARTCHAR 1EBA
ENCODING 7866
SWIDTH 565 0
DWIDTH 22 0
BBX 18 38 2 0
BITMAP
03F000
07F800
0FFC00
0F3C00
003C00
003C00
00F800
01E000
000000
000000
000000
FFFFC0
FFFFC0
FFFFC0
FFFFC0
FC0000
FC0000
FC0000
FC0000
FC0000
FC0000
FC0000
FFFF00
FFFF00
FFFF00
FFFF00
FC0000
FC0000
FC0000
FC0000
FC0000
FC0000
FC0000
FFFFC0
FFFFC0
FFFFC0
FFFFC0
FFFFC0
ENDCHAR
STARTCHAR 1EBB
ENCODING 7867
SWIDTH 565 0
DWIDTH 22 0
BBX 19 31 2 0
BITMAP
03F800
07FC00
07BC00
0F1C00
001C00
003C00
00F800
01E000
000000
000000
03F800
0FFE00
1FFF00
3FFF80
7E0FC0
7C07C0
F807C0
F803E0
F803E0
FFFFE0
FFFFE0
FFFFE0
F80000
F80000
F807E0
FC07C0
7E0FC0
3FFF80
3FFF00
1FFE00
07FC00
ENDCHAR
STARTCHAR 1EBC
ENCODING 7868
SWIDTH 565 0
DWIDTH 22 0
BBX 18 36 2 0
BITMAP
030600
0FCE00
1FFE00
1FFE00
1C7C00
000000
000000
000000
000000
FFFFC0
FFFFC0
FFFFC0
FFFFC0
FC0000
FC0000
FC0000
FC0000
FC0000
FC0000
FC0000
FFFF00
FFFF00
FFFF00
FFFF00
FC0000
FC0000
FC0000
FC0000
FC0000
FC0000
FC0000
FFFFC0
FFFFC0
FFFFC0
FFFFC0
FFFFC0
ENDCHAR
STARTCHAR 1EBD
ENCODING 7869
SWIDTH 565 0
DWIDTH 22 0
BBX 19 29 2 0
BITMAP
078700
0FEF00
1FFE00
1EFE00
1C3C00
000000
000000
000000
03F800
0FFE00
1FFF00
3FFF80
7E0FC0
7C07C0
F807C0
F803E0
F803E0
FFFFE0
FFFFE0
FFFFE0
F80000
F80000
F807E0
FC07C0
7E0FC0
3FFF80
3FFF00
1FFE00
07FC00
ENDCHAR
STARTCHAR 1EBE
ENCODING 7870
SWIDTH 565 0
DWIDTH 22 0
BBX 23 42 2 0
BITMAP
00003E
00007C
00007C
0000F8
0000F0
0001F0
01F1E0
03F000
07F800
0FFC00
1F3E00
3E1F00
000000
000000
000000
FFFFC0
FFFFC0
FFFFC0
FFFFC0
FC0000
FC0000
FC0000
FC0000
FC0000
FC0000
FC0000
FFFF00
FFFF00
FFFF00
FFFF00
FC0000
FC0000
FC0000
FC0000
FC0000
FC0000
FC0000
FFFFC0
FFFFC0
FFFFC0
FFFFC0
FFFFC0
ENDCHAR
STARTCHAR 1EBF
ENCODING 7871
SWIDTH 565 0
DWIDTH 22 0
BBX 24 36 2 0
BITMAP
00003F
00003E
00007C
00007C
0000F8
0000F0
0001F0
01F1E0
03F800
07FC00
0FBE00
1F1F00
3E0F80
000000
000000
03F800
0FFE00
1FFF00
3FFF80
7E0FC0
7C07C0
F807C0
F803E0
F803E0
FFFFE0
FFFFE0
FFFFE0
F80000
F80000
F807E0
FC07C0
7E0FC0
3FFF80
3FFF00
1FFE00
07FC00
ENDCHAR
STARTCHAR 1EC0
ENCODING 7872
SWIDTH 565 0
DWIDTH 22 0
BBX 19 42 2 0
BITMAP
003F00
001F00
000F80
000F80
0007C0
0003C0
01F3E0
03F000
07F800
0FFC00
1F3E00
3E1F00
000000
000000
000000
FFFFC0
FFFFC0
FFFFC0
FFFFC0
FC0000
FC0000
FC0000
FC0000
FC0000
FC0000
FC0000
FFFF00
FFFF00
FFFF00
FFFF00
FC0000
FC0000
FC0000
FC0000
FC0000
FC0000
FC0000
FFFFC0
FFFFC0
FFFFC0
FFFFC0
FFFFC0
ENDCHAR
STARTCHAR 1EC1
ENCODING 7873
SWIDTH 565 0
DWIDTH 22 0
BBX 19 36 2 0
BITMAP
003E00
001F00
001F80
000F80
0007C0
0007C0
0003E0
01F1E0
03F800
07FC00
0FBE00
1F1F00
3E0F80
000000
000000
03F800
0FFE00
1FFF00
3FFF80
7E0FC0
7C07C0
F807C0
F803E0
F803E0
FFFFE0
FFFFE0
FFFFE0
F80000
F80000
F807E0
FC07C0
7E0FC0
3FFF80
3FFF00
1FFE00
07FC00
ENDCHAR
STARTCHAR 1EC2
ENCODING 7874
SWIDTH 565 0
DWIDTH 22 0
BBX 21 43 2 0
BITMAP
0007E0
000FF8
000FF8
001E38
000038
000078
0000F0
01F3E0
03F000
07F800
0FFC00
1F3E00
3E1F00
000000
000000
000000
FFFFC0
FFFFC0
FFFFC0
FFFFC0
FC0000
FC0000
FC0000
FC0000
FC0000
FC0000
FC0000
FFFF00
FFFF00
FFFF00
FFFF00
FC0000
FC0000
FC0000
FC0000
FC0000
FC0000
FC0000
FFFFC0
FFFFC0
FFFFC0
FFFFC0
FFFFC0
ENDCHAR
STARTCHAR 1EC3
ENCODING 7875
SWIDTH 565 0
DWIDTH 22 0
BBX 22 36 2 0
BITMAP
0007F0
000FF8
000FF8
000E3C
000038
000078
0001F0
01F1E0
03F800
07FC00
0FBE00
1F1F00
3E0F80
000000
000000
03F800
0FFE00
1FFF00
3FFF80
7E0FC0
7C07C0
F807C0
F803E0
F803E0
FFFFE0
FFFFE0
FFFFE0
F80000
F80000
F807E0
FC07C0
7E0FC0
3FFF80
3FFF00
1FFE00
07FC00
ENDCHAR
STARTCHAR 1EC4
ENCODING 7876
SWIDTH 565 0
DWIDTH 22 0
BBX 18 43 2 0
BITMAP
020600
0FCE00
1FFE00
1FFE00
1CFC00
1C0000
000000
01E000
03F000
07F800
0FFC00
1F3E00
3E1F00
000000
000000
000000
FFFFC0
FFFFC0
FFFFC0
FFFFC0
FC0000
FC0000
FC0000
FC0000
FC0000
FC0000
FC0000
FFFF00
FFFF00
FFFF00
FFFF00
FC0000
FC0000
FC0000
FC0000
FC0000
FC0000
FC0000
FFFFC0
FFFFC0
FFFFC0
FFFFC0
FFFFC0
ENDCHAR
STARTCHAR 1EC5
ENCODING 7877
SWIDTH 565 0
DWIDTH 22 0
BBX 19 36 2 0
BITMAP
078700
0FEF00
0FFE00
1FFE00
1C7C00
000000
000000
01F000
03F800
07FC00
0FBE00
1F1F00
3E0F80
000000
000000
03F800
0FFE00
1FFF00
3FFF80
7E0FC0
7C07C0
F807C0
F803E0
F803E0
FFFFE0
FFFFE0
FFFFE0
F80000
F80000
F807E0
FC07C0
7E0FC0
3FFF80
3FFF00
1FFE00
07FC00
ENDCHAR
STARTCHAR 1EC6
ENCODING 7878
SWIDTH 565 0
DWIDTH 22 0
BBX 18 45 2 -9
BITMAP
01F000
03F000
07F800
0FFC00
1F3E00
3E1F00
000000
000000
000000
FFFFC0
FFFFC0
FFFFC0
FFFFC0
FC0000
FC0000
FC0000
FC0000
FC0000
FC0000
FC0000
FFFF00
FFFF00
FFFF00
FFFF00
FC0000
FC0000
FC0000
FC0000
FC0000
FC0000
FC0000
FFFFC0
FFFFC0
FFFFC0
FFFFC0
FFFFC0
000000
000000
000000
000000
01E000
01F000
03F000
03F000
01E000
ENDCHAR
STARTCHAR 1EC7
ENCODING 7879
SWIDTH 565 0
DWIDTH 22 0
BBX 19 38 2 -9
BITMAP
01F000
03F800
07FC00
0FBE00
1F1F00
3E0F80
000000
000000
03F800
0FFE00
1FFF00
3FFF80
7E0FC0
7C07C0
F807C0
F803E0
F803E0
FFFFE0
FFFFE0
FFFFE0
F80000
F80000
F807E0
FC07C0
7E0FC0
3FFF80
3FFF00
1FFE00
07FC00
000000
000000
000000
000000
00E000
01F000
01F000
01F000
01F000
ENDCHAR
STARTCHAR 1EC8
ENCODING 7880
SWIDTH 257 0
DWIDTH 10 0
BBX 10 38 0 0
BITMAP
3F00
7F80
FFC0
F3C0
03C0
03C0
0F80
1E00
0000
0000
0000
3F00
3F00
3F00
3F00
3F00
3F00
3F00
3F00
3F00
3F00
3F00
3F00
3F00
3F00
3F00
3F00
3F00
3F00
3F00
3F00
3F00
3F00
3F00
3F00
3F00
3F00
3F00
ENDCHAR
STARTCHAR 1EC9
ENCODING 7881
SWIDTH 282 0
DWIDTH 11 0
BBX 10 31 0 0
BITMAP
3F80
7FC0
7BC0
F1C0
01C0
03C0
0F80
1F00
0000
0000
1F00
1F00
1F00
1F00
1F00
1F00
1F00
1F00
1F00
1F00
1F00
1F00
1F00
1F00
1F00
1F00
1F00
1F00
1F00
1F00
1F00
ENDCHAR
STARTCHAR 1ECA
ENCODING 7882
SWIDTH 257 0
DWIDTH 10 0
BBX 6 36 2 -9
BITMAP
FC
FC
FC
FC
FC
FC
FC
FC
FC
FC
FC
FC
FC
FC
FC
FC
FC
FC
FC
FC
FC
FC
FC
FC
FC
FC
FC
00
00
00
00
78
7C
FC
FC
78
ENDCHAR
STARTCHAR 1ECB
ENCODING 7883
SWIDTH 282 0
DWIDTH 11 0
BBX 6 39 2 -9
BITMAP
38
7C
FC
7C
7C
38
00
00
00
7C
7C
7C
7C
7C
7C
7C
7C
7C
7C
7C
7C
7C
7C
7C
7C
7C
7C
7C
7C
7C
00
00
00
00
38
7C
7C
7C
7C
ENDCHAR
STARTCHAR 1ECC
ENCODING 7884
SWIDTH 720 0
DWIDTH 28 0
BBX 25 37 2 -9
BITMAP
003C0000
03FFC000
07FFE000
0FFFF800
1FFFF800
3FC3FC00
7F00FE00
7E007E00
7E007F00
FC003F00
FC003F00
FC003F00
F8001F00
F8001F00
F8001F80
F8001F00
F8001F00
FC003F00
FC003F00
FC003F00
7E007E00
7F007E00
3F81FE00
3FFFFC00
1FFFF800
0FFFF000
07FFE000
01FF8000
00000000
00000000
00000000
00000000
003C0000
007E0000
007E0000
007E0000
003C0000
ENDCHAR
STARTCHAR 1ECD
ENCODING 7885
SWIDTH 565 0
DWIDTH 22 0
BBX 19 30 2 -9
BITMAP
03F800
0FFE00
1FFF00
3FFF80
7FBFC0
7E0FC0
FC07E0
F807E0
F803E0
F803E0
F803E0
F803E0
F803E0
F803E0
FC07E0
FC07C0
7E1FC0
3FFF80
3FFF00
1FFE00
07FC00
000000
000000
000000
000000
00E000
01F000
01F000
01F000
01F000
ENDCHAR
STARTCHAR 1ECE
ENCODING 7886
SWIDTH 720 0
DWIDTH 28 0
BBX 25 38 2 0
BITMAP
007E0000
00FF0000
01FF8000
01E78000
00078000
00070000
001F0000
003C0000
00000000
00000000
003C0000
03FFC000
07FFE000
0FFFF800
1FFFF800
3FC3FC00
7F00FE00
7E007E00
7E007F00
FC003F00
FC003F00
FC003F00
F8001F00
F8001F00
F8001F80
F8001F00
F8001F00
FC003F00
FC003F00
FC003F00
7E007E00
7F007E00
3F81FE00
3FFFFC00
1FFFF800
0FFFF000
07FFE000
01FF8000
ENDCHAR
STARTCHAR 1ECF
ENCODING 7887
SWIDTH 565 0
DWIDTH 22 0
BBX 19 31 2 0
BITMAP
03F800
07FC00
0FBC00
0F1C00
001C00
003C00
00F000
01E000
000000
000000
03F800
0FFE00
1FFF00
3FFF80
7FBFC0
7E0FC0
FC07E0
F807E0
F803E0
F803E0
F803E0
F803E0
F803E0
F803E0
FC07E0
FC07C0
7E1FC0
3FFF80
3FFF00
1FFE00
07FC00
ENDCHAR
STARTCHAR 1ED0
ENCODING 7888
SWIDTH 720 0
DWIDTH 28 0
BBX 26 42 2 0
BITMAP
000007C0
00000F80
00000F80
00001F00
00001E00
00003E00
003C3C00
007E0000
00FF0000
01FF8000
03E7C000
07C3E000
00000000
00000000
003C0000
03FFC000
07FFE000
0FFFF800
1FFFF800
3FC3FC00
7F00FE00
7E007E00
7E007F00
FC003F00
FC003F00
FC003F00
F8001F00
F8001F00
F8001F80
F8001F00
F8001F00
FC003F00
FC003F00
FC003F00
7E007E00
7F007E00
3F81FE00
3FFFFC00
1FFFF800
0FFFF000
07FFE000
01FF8000
ENDCHAR
STARTCHAR 1ED1
ENCODING 7889
SWIDTH 565 0
DWIDTH 22 0
BBX 24 36 2 0
BITMAP
00003F
00003E
00007C
00007C
0000F8
0000F0
0001F0
01F1E0
03F800
07FC00
0FBE00
1F1F00
3E0F80
000000
000000
03F800
0FFE00
1FFF00
3FFF80
7FBFC0
7E0FC0
FC07E0
F807E0
F803E0
F803E0
F803E0
F803E0
F803E0
F803E0
FC07E0
FC07C0
7E1FC0
3FFF80
3FFF00
1FFE00
07FC00
ENDCHAR
STARTCHAR 1ED2
ENCODING 7890
SWIDTH 720 0
DWIDTH 28 0
BBX 25 42 2 0
BITMAP
0007E000
0003E000
0001F000
0001F000
0000F800
00007800
003C7C00
007E0000
00FF0000
01FF8000
03E7C000
07C3E000
00000000
00000000
003C0000
03FFC000
07FFE000
0FFFF800
1FFFF800
3FC3FC00
7F00FE00
7E007E00
7E007F00
FC003F00
FC003F00
FC003F00
F8001F00
F8001F00
F8001F80
F8001F00
F8001F00
FC003F00
FC003F00
FC003F00
7E007E00
7F007E00
3F81FE00
3FFFFC00
1FFFF800
0FFFF000
07FFE000
01FF8000
ENDCHAR
STARTCHAR 1ED3
ENCODING 7891
SWIDTH 565 0
DWIDTH 22 0
BBX 19 36 2 0
BITMAP
003E00
001F00
001F80
000F80
0007C0
0007C0
0003E0
01F1E0
03F800
07FC00
0FBE00
1F1F00
3E0F80
000000
000000
03F800
0FFE00
1FFF00
3FFF80
7FBFC0
7E0FC0
FC07E0
F807E0
F803E0
F803E0
F803E0
F803E0
F803E0
F803E0
FC07E0
FC07C0
7E1FC0
3FFF80
3FFF00
1FFE00
07FC00
ENDCHAR
STARTCHAR 1ED4
ENCODING 7892
SWIDTH 720 0
DWIDTH 28 0
BBX 25 43 2 0
BITMAP
0000FC00
0001FF00
0001FF00
0003C700
00000700
00000F00
00001E00
003C7C00
007E0000
00FF0000
01FF8000
03E7C000
07C3E000
00000000
00000000
003C0000
03FFC000
07FFE000
0FFFF800
1FFFF800
3FC3FC00
7F00FE00
7E007E00
7E007F00
FC003F00
FC003F00
FC003F00
F8001F00
F8001F00
F8001F80
F8001F00
F8001F00
FC003F00
FC003F00
FC003F00
7E007E00
7F007E00
3F81FE00
3FFFFC00
1FFFF800
0FFFF000
07FFE000
01FF8000
ENDCHAR
STARTCHAR 1ED5
ENCODING 7893
SWIDTH 565 0
DWIDTH 22 0
BBX 22 36 2 0
BITMAP
0007F0
000FF8
000FF8
000E3C
000038
000078
0001F0
01F1E0
03F800
07FC00
0FBE00
1F1F00
3E0F80
000000
000000
03F800
0FFE00
1FFF00
3FFF80
7FBFC0
7E0FC0
FC07E0
F807E0
F803E0
F803E0
F803E0
F803E0
F803E0
F803E0
FC07E0
FC07C0
7E1FC0
3FFF80
3FFF00
1FFE00
07FC00
ENDCHAR
STARTCHAR 1ED6
ENCODING 7894
SWIDTH 720 0
DWIDTH 28 0
BBX 25 43 2 0
BITMAP
0040C000
01F9C000
03FFC000
03FFC000
039F8000
03800000
00000000
003C0000
007E0000
00FF0000
01FF8000
03E7C000
07C3E000
00000000
00000000
003C0000
03FFC000
07FFE000
0FFFF800
1FFFF800
3FC3FC00
7F00FE00
7E007E00
7E007F00
FC003F00
FC003F00
FC003F00
F8001F00
F8001F00
F8001F80
F8001F00
F8001F00
FC003F00
FC003F00
FC003F00
7E007E00
7F007E00
3F81FE00
3FFFFC00
1FFFF800
0FFFF000
07FFE000
01FF8000
ENDCHAR
STARTCHAR 1ED7
ENCODING 7895
SWIDTH 565 0
DWIDTH 22 0
BBX 19 36 2 0
BITMAP
078700
0FEF00
1FFE00
1FFE00
1C7C00
000000
000000
01F000
03F800
07FC00
0FBE00
1F1F00
3E0F80
000000
000000
03F800
0FFE00
1FFF00
3FFF80
7FBFC0
7E0FC0
FC07E0
F807E0
F803E0
F803E0
F803E0
F803E0
F803E0
F803E0
FC07E0
FC07C0
7E1FC0
3FFF80
3FFF00
1FFE00
07FC00
ENDCHAR
STARTCHAR 1ED8
ENCODING 7896
SWIDTH 720 0
DWIDTH 28 0
BBX 25 45 2 -9
BITMAP
003C0000
007E0000
00FF0000
01FF8000
03E7C000
07C3E000
00000000
00000000
003C0000
03FFC000
07FFE000
0FFFF800
1FFFF800
3FC3FC00
7F00FE00
7E007E00
7E007F00
FC003F00
FC003F00
FC003F00
F8001F00
F8001F00
F8001F80
F8001F00
F8001F00
FC003F00
FC003F00
FC003F00
7E007E00
7F007E00
3F81FE00
3FFFFC00
1FFFF800
0FFFF000
07FFE000
01FF8000
00000000
00000000
00000000
00000000
003C0000
007E0000
007E0000
007E0000
003C0000
ENDCHAR
STARTCHAR 1ED9
ENCODING 7897
SWIDTH 565 0
DWIDTH 22 0
BBX 19 38 2 -9
BITMAP
01F000
03F800
07FC00
0FBE00
1F1F00
3E0F80
000000
000000
03F800
0FFE00
1FFF00
3FFF80
7FBFC0
7E0FC0
FC07E0
F807E0
F803E0
F803E0
F803E0
F803E0
F803E0
F803E0
FC07E0
FC07C0
7E1FC0
3FFF80
3FFF00
1FFE00
07FC00
000000
000000
000000
000000
00E000
01F000
01F000
01F000
01F000
ENDCHAR
STARTCHAR 1EDA
ENCODING 7898
SWIDTH 720 0
DWIDTH 28 0
BBX 25 38 2 0
BITMAP
0003E000
0007C000
0007C000
000F8000
000F8000
001F0000
001E0000
003E0F00
00000F00
00000F00
003E3E00
03FFFE00
07FFFC00
0FFFF800
1FFFF800
3FC3FC00
7F00FE00
7E007E00
7E007F00
FC003F00
FC003F00
FC003F00
F8001F00
F8001F00
F8001F80
F8001F00
F8001F00
FC003F00
FC003F00
FC003F00
7E007E00
7F007E00
3F81FE00
3FFFFC00
1FFFF800
0FFFF000
07FFE000
01FF8000
ENDCHAR
STARTCHAR 1EDB
ENCODING 7899
SWIDTH 591 0
DWIDTH 23 0
BBX 20 31 2 0
BITMAP
001F00
003F00
003E00
007C00
007C00
00F800
00F0F0
01F0F0
0000F0
0000F0
03FFF0
0FFFE0
1FFF80
3FFF80
7FBFC0
7E0FC0
FC07E0
F807E0
F803E0
F803E0
F803E0
F803E0
F803E0
F803E0
FC07E0
FC07C0
7E1FC0
3FFF80
3FFF00
1FFE00
07FC00
ENDCHAR
STARTCHAR 1EDC
ENCODING 7900
SWIDTH 720 0
DWIDTH 28 0
BBX 25 38 2 0
BITMAP
07C00000
03E00000
03E00000
01F00000
00F00000
00F80000
00780000
003C0F00
00000F00
00000F00
003E3E00
03FFFE00
07FFFC00
0FFFF800
1FFFF800
3FC3FC00
7F00FE00
7E007E00
7E007F00
FC003F00
FC003F00
FC003F00
F8001F00
F8001F00
F8001F80
F8001F00
F8001F00
FC003F00
FC003F00
FC003F00
7E007E00
7F007E00
3F81FE00
3FFFFC00
1FFFF800
0FFFF000
07FFE000
01FF8000
ENDCHAR
STARTCHAR 1EDD
ENCODING 7901
SWIDTH 591 0
DWIDTH 23 0
BBX 20 31 2 0
BITMAP
1F0000
1F0000
0F8000
078000
07C000
03C000
01E0F0
01E0F0
0000F0
0000F0
03FFF0
0FFFE0
1FFF80
3FFF80
7FBFC0
7E0FC0
FC07E0
F807E0
F803E0
F803E0
F803E0
F803E0
F803E0
F803E0
FC07E0
FC07C0
7E1FC0
3FFF80
3FFF00
1FFE00
07FC00
ENDCHAR
STARTCHAR 1EDE
ENCODING 7902
SWIDTH 720 0
DWIDTH 28 0
BBX 25 38 2 0
BITMAP
007E0000
00FF0000
01FF8000
01E78000
00078000
00070000
001F0000
003C0F00
00000F00
00000F00
003E3E00
03FFFE00
07FFFC00
0FFFF800
1FFFF800
3FC3FC00
7F00FE00
7E007E00
7E007F00
FC003F00
FC003F00
FC003F00
F8001F00
F8001F00
F8001F80
F8001F00
F8001F00
FC003F00
FC003F00
FC003F00
7E007E00
7F007E00
3F81FE00
3FFFFC00
1FFFF800
0FFFF000
07FFE000
01FF8000
ENDCHAR
STARTCHAR 1EDF
ENCODING 7903
SWIDTH 591 0
DWIDTH 23 0
BBX 20 31 2 0
BITMAP
03F800
07FC00
0FBC00
0F1C00
001C00
003C00
00F0F0
01E0F0
0000F0
0000F0
03FFF0
0FFFE0
1FFF80
3FFF80
7FBFC0
7E0FC0
FC07E0
F807E0
F803E0
F803E0
F803E0
F803E0
F803E0
F803E0
FC07E0
FC07C0
7E1FC0
3FFF80
3FFF00
1FFE00
07FC00
ENDCHAR
STARTCHAR 1EE0
ENCODING 7904
SWIDTH 720 0
DWIDTH 28 0
BBX 25 36 2 0
BITMAP
0060C000
01F9C000
03FFC000
03FFC000
038F8000
00000F00
00000F00
00000F00
003E3E00
03FFFE00
07FFFC00
0FFFF800
1FFFF800
3FC3FC00
7F00FE00
7E007E00
7E007F00
FC003F00
FC003F00
FC003F00
F8001F00
F8001F00
F8001F80
F8001F00
F8001F00
FC003F00
FC003F00
FC003F00
7E007E00
7F007E00
3F81FE00
3FFFFC00
1FFFF800
0FFFF000
07FFE000
01FF8000
ENDCHAR
STARTCHAR 1EE1
ENCODING 7905
SWIDTH 591 0
DWIDTH 23 0
BBX 20 29 2 0
BITMAP
078700
0FEF00
1FFE00
1FFE00
1C3CF0
0000F0
0000F0
0000F0
03FFF0
0FFFE0
1FFF80
3FFF80
7FBFC0
7E0FC0
FC07E0
F807E0
F803E0
F803E0
F803E0
F803E0
F803E0
F803E0
FC07E0
FC07C0
7E1FC0
3FFF80
3FFF00
1FFE00
07FC00
ENDCHAR
STARTCHAR 1EE2
ENCODING 7906
SWIDTH 720 0
DWIDTH 28 0
BBX 25 40 2 -9
BITMAP
00000F00
00000F00
00000F00
003E3E00
03FFFE00
07FFFC00
0FFFF800
1FFFF800
3FC3FC00
7F00FE00
7E007E00
7E007F00
FC003F00
FC003F00
FC003F00
F8001F00
F8001F00
F8001F80
F8001F00
F8001F00
FC003F00
FC003F00
FC003F00
7E007E00
7F007E00
3F81FE00
3FFFFC00
1FFFF800
0FFFF000
07FFE000
01FF8000
00000000
00000000
00000000
00000000
003C0000
007E0000
007E0000
007E0000
003C0000
ENDCHAR
STARTCHAR 1EE3
ENCODING 7907
SWIDTH 591 0
DWIDTH 23 0
BBX 20 34 2 -9
BITMAP
0000F0
0000F0
0000F0
0000F0
03FFF0
0FFFE0
1FFF80
3FFF80
7FBFC0
7E0FC0
FC07E0
F807E0
F803E0
F803E0
F803E0
F803E0
F803E0
F803E0
FC07E0
FC07C0
7E1FC0
3FFF80
3FFF00
1FFE00
07FC00
000000
000000
000000
000000
00E000
01F000
01F000
01F000
01F000
ENDCHAR
STARTCHAR 1EE4
ENCODING 7908
SWIDTH 668 0
DWIDTH 26 0
BBX 22 36 2 -9
BITMAP
FC007C
FC007C
FC007C
FC007C
FC007C
FC007C
FC007C
FC007C
FC007C
FC007C
FC007C
FC007C
FC007C
FC007C
FC007C
FC007C
FC007C
FC007C
FC007C
7C00FC
7E00FC
7F03F8
3FFFF8
3FFFF0
1FFFE0
07FFC0
03FF00
000000
000000
000000
000000
007800
007C00
007C00
007C00
007C00
ENDCHAR
STARTCHAR 1EE5
ENCODING 7909
SWIDTH 565 0
DWIDTH 22 0
BBX 19 30 2 -9
BITMAP
FC07E0
FC07E0
FC07E0
FC07E0
FC07E0
FC07E0
FC07E0
FC07E0
FC07E0
FC07E0
FC07E0
FC07E0
FC07E0
FC07E0
FC07E0
FE07E0
7F1FE0
7FFFE0
3FFFE0
3FF7E0
1FE7E0
000000
000000
000000
000000
01E000
01F000
01F000
01F000
01F000
ENDCHAR
STARTCHAR 1EE6
ENCODING 7910
SWIDTH 668 0
DWIDTH 26 0
BBX 22 38 2 0
BITMAP
00FC00
01FE00
01FF00
03C700
000700
000F00
003E00
007C00
000000
000000
000000
FC007C
FC007C
FC007C
FC007C
FC007C
FC007C
FC007C
FC007C
FC007C
FC007C
FC007C
FC007C
FC007C
FC007C
FC007C
FC007C
FC007C
FC007C
FC007C
7C00FC
7E00FC
7F03F8
3FFFF8
3FFFF0
1FFFE0
07FFC0
03FF00
ENDCHAR
STARTCHAR 1EE7
ENCODING 7911
SWIDTH 565 0
DWIDTH 22 0
BBX 19 31 2 0
BITMAP
03F800
07FC00
0FFC00
0F1C00
003C00
007800
00F000
01E000
000000
000000
FC07E0
FC07E0
FC07E0
FC07E0
FC07E0
FC07E0
FC07E0
FC07E0
FC07E0
FC07E0
FC07E0
FC07E0
FC07E0
FC07E0
FC07E0
FE07E0
7F1FE0
7FFFE0
3FFFE0
3FF7E0
1FE7E0
ENDCHAR
STARTCHAR 1EE8
ENCODING 7912
SWIDTH 668 0
DWIDTH 26 0
BBX 27 38 2 0
BITMAP
0007C000
000FC000
000F8000
001F0000
001F0000
003E0000
003C0000
007C01E0
000001E0
000001E0
000003E0
FC007FC0
FC007F80
FC007C00
FC007C00
FC007C00
FC007C00
FC007C00
FC007C00
FC007C00
FC007C00
FC007C00
FC007C00
FC007C00
FC007C00
FC007C00
FC007C00
FC007C00
FC007C00
FC007C00
7C00FC00
7E00FC00
7F03F800
3FFFF800
3FFFF000
1FFFE000
07FFC000
03FF0000
ENDCHAR
STARTCHAR 1EE9
ENCODING 7913
SWIDTH 591 0
DWIDTH 23 0
BBX 23 31 2 0
BITMAP
001F00
003E00
003E00
007C00
007800
00F800
00F00E
01E00E
00000E
00001E
FC07FE
FC07FC
FC07F8
FC07E0
FC07E0
FC07E0
FC07E0
FC07E0
FC07E0
FC07E0
FC07E0
FC07E0
FC07E0
FC07E0
FC07E0
FE07E0
7F1FE0
7FFFE0
3FFFE0
3FF7E0
1FE7E0
ENDCHAR
STARTCHAR 1EEA
ENCODING 7914
SWIDTH 668 0
DWIDTH 26 0
BBX 27 38 2 0
BITMAP
0FC00000
07C00000
03E00000
03E00000
01F00000
00F00000
00F80000
007801E0
000001E0
000001E0
000003E0
FC007FC0
FC007F80
FC007C00
FC007C00
FC007C00
FC007C00
FC007C00
FC007C00
FC007C00
FC007C00
FC007C00
FC007C00
FC007C00
FC007C00
FC007C00
FC007C00
FC007C00
FC007C00
FC007C00
7C00FC00
7E00FC00
7F03F800
3FFFF800
3FFFF000
1FFFE000
07FFC000
03FF0000
ENDCHAR
STARTCHAR 1EEB
ENCODING 7915
SWIDTH 591 0
DWIDTH 23 0
BBX 23 31 2 0
BITMAP
3F0000
1F0000
0F8000
0F8000
07C000
03C000
03E00E
01E00E
00000E
00001E
FC07FE
FC07FC
FC07F8
FC07E0
FC07E0
FC07E0
FC07E0
FC07E0
FC07E0
FC07E0
FC07E0
FC07E0
FC07E0
FC07E0
FC07E0
FE07E0
7F1FE0
7FFFE0
3FFFE0
3FF7E0
1FE7E0
ENDCHAR
STARTCHAR 1EEC
ENCODING 7916
SWIDTH 668 0
DWIDTH 26 0
BBX 27 38 2 0
BITMAP
00FC0000
01FE0000
01FF0000
03C70000
00070000
000F0000
003E0000
007C01E0
000001E0
000001E0
000003E0
FC007FC0
FC007F80
FC007C00
FC007C00
FC007C00
FC007C00
FC007C00
FC007C00
FC007C00
FC007C00
FC007C00
FC007C00
FC007C00
FC007C00
FC007C00
FC007C00
FC007C00
FC007C00
FC007C00
7C00FC00
7E00FC00
7F03F800
3FFFF800
3FFFF000
1FFFE000
07FFC000
03FF0000
ENDCHAR
STARTCHAR 1EED
ENCODING 7917
SWIDTH 591 0
DWIDTH 23 0
BBX 23 31 2 0
BITMAP
03F800
07FC00
0FFC00
0F1C00
003C00
007800
00F00E
01E00E
00000E
00001E
FC07FE
FC07FC
FC07F8
FC07E0
FC07E0
FC07E0
FC07E0
FC07E0
FC07E0
FC07E0
FC07E0
FC07E0
FC07E0
FC07E0
FC07E0
FE07E0
7F1FE0
7FFFE0
3FFFE0
3FF7E0
1FE7E0
ENDCHAR
STARTCHAR 1EEE
ENCODING 7918
SWIDTH 668 0
DWIDTH 26 0
BBX 27 36 2 0
BITMAP
00C18000
03F18000
07FF8000
07FF8000
071F0000
000001E0
000001E0
000001E0
000003E0
FC007FC0
FC007F80
FC007C00
FC007C00
FC007C00
FC007C00
FC007C00
FC007C00
FC007C00
FC007C00
FC007C00
FC007C00
FC007C00
FC007C00
FC007C00
FC007C00
FC007C00
FC007C00
FC007C00
7C00FC00
7E00FC00
7F03F800
3FFFF800
3FFFF000
1FFFE000
07FFC000
03FF0000
ENDCHAR
STARTCHAR 1EEF
ENCODING 7919
SWIDTH 591 0
DWIDTH 23 0
BBX 23 29 2 0
BITMAP
078700
0FFF00
0FFF00
0EFE00
0C3C0E
00000E
00000E
00001E
FC07FE
FC07FC
FC07F8
FC07E0
FC07E0
FC07E0
FC07E0
FC07E0
FC07E0
FC07E0
FC07E0
FC07E0
FC07E0
FC07E0
FC07E0
FE07E0
7F1FE0
7FFFE0
3FFFE0
3FF7E0
1FE7E0
ENDCHAR
STARTCHAR 1EF0
ENCODING 7920
SWIDTH 668 0
DWIDTH 26 0
BBX 27 40 2 -9
BITMAP
000001E0
000001E0
000001E0
000003E0
FC007FC0
FC007F80
FC007C00
FC007C00
FC007C00
FC007C00
FC007C00
FC007C00
FC007C00
FC007C00
FC007C00
FC007C00
FC007C00
FC007C00
FC007C00
FC007C00
FC007C00
FC007C00
FC007C00
7C00FC00
7E00FC00
7F03F800
3FFFF800
3FFFF000
1FFFE000
07FFC000
03FF0000
00000000
00000000
00000000
00000000
00780000
007C0000
007C0000
007C0000
007C0000
ENDCHAR
STARTCHAR 1EF1
ENCODING 7921
SWIDTH 591 0
DWIDTH 23 0
BBX 23 34 2 -9
BITMAP
00000E
00000E
00000E
00001E
FC07FE
FC07FC
FC07F8
FC07E0
FC07E0
FC07E0
FC07E0
FC07E0
FC07E0
FC07E0
FC07E0
FC07E0
FC07E0
FC07E0
FC07E0
FE07E0
7F1FE0
7FFFE0
3FFFE0
3FF7E0
1FE7E0
000000
000000
000000
000000
01E000
01F000
01F000
01F000
01F000
ENDCHAR
STARTCHAR 1EF2
ENCODING 7922
SWIDTH 642 0
DWIDTH 25 0
BBX 23 38 1 0
BITMAP
0FC000
07C000
03E000
03E000
01F000
00F000
00F800
007800
000000
000000
000000
FC007E
7C007C
7E00FC
3E00F8
3F01F8
1F01F0
1F83F0
0F83E0
0FC7E0
07C7C0
07EFC0
03EF80
03FF80
01FF00
01FF00
00FE00
00FE00
007C00
007C00
007C00
007C00
007C00
007C00
007C00
007C00
007C00
007C00
ENDCHAR
STARTCHAR 1EF3
ENCODING 7923
SWIDTH 540 0
DWIDTH 21 0
BBX 20 40 1 -9
BITMAP
1F0000
0F8000
0F8000
07C000
03C000
03E000
01E000
00F000
000000
000000
F801F0
FC03F0
7C03E0
7C03E0
7E07E0
3E07C0
3E07C0
3E0F80
1F0F80
1F0F80
0F1F00
0F9F00
0F9E00
07BE00
07FE00
07FC00
03FC00
03F800
03F800
01F800
01F000
01F000
03F000
03E000
07E000
1FC000
7FC000
7F8000
7F0000
380000
ENDCHAR
STARTCHAR 1EF4
ENCODING 7924
SWIDTH 642 0
DWIDTH 25 0
BBX 23 36 1 -9
BITMAP
FC007E
7C007C
7E00FC
3E00F8
3F01F8
1F01F0
1F83F0
0F83E0
0FC7E0
07C7C0
07EFC0
03EF80
03FF80
01FF00
01FF00
00FE00
00FE00
007C00
007C00
007C00
007C00
007C00
007C00
007C00
007C00
007C00
007C00
000000
000000
000000
000000
003800
007C00
007C00
007C00
007C00
ENDCHAR
STARTCHAR 1EF5
ENCODING 7925
SWIDTH 540 0
DWIDTH 21 0
BBX 20 30 1 -9
BITMAP
F801F0
FC03F0
7C03E0
7C03E0
7E07E0
3E07C0
3E07C0
3E0F80
1F0F80
1F0F80
0F1F00
0F9F00
0F9E00
07BE00
07FE00
07FC00
03FC00
03F800
03F800
01F800
01F000
01F000
03F000
03E000
07E000
1FC1C0
7FC3E0
7F83E0
7F03E0
3803E0
ENDCHAR
STARTCHAR 1EF6
ENCODING 7926
SWIDTH 642 0
DWIDTH 25 0
BBX 23 38 1 0
BITMAP
007E00
01FF00
01FF00
03C700
000700
000F00
001E00
003C00
000000
000000
000000
FC007E
7C007C
7E00FC
3E00F8
3F01F8
1F01F0
1F83F0
0F83E0
0FC7E0
07C7C0
07EFC0
03EF80
03FF80
01FF00
01FF00
00FE00
00FE00
007C00
007C00
007C00
007C00
007C00
007C00
007C00
007C00
007C00
007C00
ENDCHAR
STARTCHAR 1EF7
ENCODING 7927
SWIDTH 540 0
DWIDTH 21 0
BBX 20 40 1 -9
BITMAP
03F800
07FC00
07FE00
079E00
001E00
003C00
007800
00F000
000000
000000
F801F0
FC03F0
7C03E0
7C03E0
7E07E0
3E07C0
3E07C0
3E0F80
1F0F80
1F0F80
0F1F00
0F9F00
0F9E00
07BE00
07FE00
07FC00
03FC00
03F800
03F800
01F800
01F000
01F000
03F000
03E000
07E000
1FC000
7FC000
7F8000
7F0000
380000
ENDCHAR
STARTCHAR 1EF8
ENCODING 7928
SWIDTH 642 0
DWIDTH 25 0
BBX 23 36 1 0
BITMAP
00C1C0
03F9C0
03FFC0
07FF80
071F00
000000
000000
000000
000000
FC007E
7C007C
7E00FC
3E00F8
3F01F8
1F01F0
1F83F0
0F83E0
0FC7E0
07C7C0
07EFC0
03EF80
03FF80
01FF00
01FF00
00FE00
00FE00
007C00
007C00
007C00
007C00
007C00
007C00
007C00
007C00
007C00
007C00
ENDCHAR
STARTCHAR 1EF9
ENCODING 7929
SWIDTH 540 0
DWIDTH 21 0
BBX 20 38 1 -9
BITMAP
078700
0FFF00
0FFF00
0EFE00
0C3C00
000000
000000
000000
F801F0
FC03F0
7C03E0
7C03E0
7E07E0
3E07C0
3E07C0
3E0F80
1F0F80
1F0F80
0F1F00
0F9F00
0F9E00
07BE00
07FE00
07FC00
03FC00
03F800
03F800
01F800
01F000
01F000
03F000
03E000
07E000
1FC000
7FC000
7F8000
7F0000
380000
ENDCHAR
STARTCHAR 2013
ENCODING 8211
SWIDTH 642 0
DWIDTH 25 0
BBX 17 4 4 10
BITMAP
FFFF80
FFFF80
FFFF80
FFFF80
ENDCHAR
STARTCHAR 2014
ENCODING 8212
SWIDTH 745 0
DWIDTH 29 0
BBX 21 4 4 10
BITMAP
FFFFF8
FFFFF8
FFFFF8
FFFFF8
ENDCHAR
STARTCHAR 2018
ENCODING 8216
SWIDTH 282 0
DWIDTH 11 0
BBX 7 11 2 19
BITMAP
18
30
60
E0
E0
E0
FC
FE
FE
7C
7C
ENDCHAR
STARTCHAR 2019
ENCODING 8217
SWIDTH 257 0
DWIDTH 10 0
BBX 6 11 3 19
BITMAP
78
FC
FC
FC
7C
0C
0C
0C
1C
38
70
ENDCHAR
STARTCHAR 201A
ENCODING 8218
SWIDTH 282 0
DWIDTH 11 0
BBX 7 12 3 -7
BITMAP
78
FC
FC
FE
FE
3E
0C
0C
0C
18
78
60
ENDCHAR
STARTCHAR 201C
ENCODING 8220
SWIDTH 514 0
DWIDTH 20 0
BBX 16 11 2 20
BITMAP
180E
381C
6038
E030
E030
E038
FC3F
FE3F
FE3F
7C3F
7C1E
ENDCHAR
STARTCHAR 201D
ENCODING 8221
SWIDTH 540 0
DWIDTH 21 0
BBX 16 11 3 19
BITMAP
F83E
FC7F
FC7F
FC3F
7C3F
0C07
0C07
0C06
180E
701C
6018
ENDCHAR
STARTCHAR 201E
ENCODING 8222
SWIDTH 540 0
DWIDTH 21 0
BBX 16 12 3 -7
BITMAP
781C
FC3E
FC7F
FC7F
FC3F
3C0F
0C07
0C06
1C06
380E
7018
4010
ENDCHAR
STARTCHAR 2020
ENCODING 8224
SWIDTH 565 0
DWIDTH 22 0
BBX 17 36 3 -9
BITMAP
03E000
03E000
03E000
03E000
03E000
03E000
FFFF80
FFFF80
FFFF80
FFFF80
FFFF80
03E000
03E000
03E000
03E000
03E000
03E000
03E000
03E000
03E000
03E000
03E000
03E000
03E000
03E000
03E000
03E000
03E000
03E000
03E000
03E000
03E000
03E000
03E000
03E000
03E000
ENDCHAR
STARTCHAR 2021
ENCODING 8225
SWIDTH 565 0
DWIDTH 22 0
BBX 17 36 3 -9
BITMAP
03E000
03E000
03E000
03E000
03E000
03E000
FFFF80
FFFF80
FFFF80
FFFF80
FFFF80
03E000
03E000
03E000
03E000
03E000
03E000
03E000
03E000
03E000
03E000
03E000
03E000
03E000
03E000
FFFF80
FFFF80
FFFF80
FFFF80
FFFF80
03E000
03E000
03E000
03E000
03E000
03E000
ENDCHAR
STARTCHAR 2022
ENCODING 8226
SWIDTH 462 0
DWIDTH 18 0
BBX 9 9 2 10
BITMAP
1E00
3F00
7F80
FF80
FF80
FF80
7F80
7F80
3F00
ENDCHAR
STARTCHAR 2026
ENCODING 8230
SWIDTH 874 0
DWIDTH 34 0
BBX 27 6 3 0
BITMAP
380601C0
7C1F03E0
7C1F87E0
FE1F87E0
7C1F87E0
7C0F03C0
ENDCHAR
STARTCHAR 2030
ENCODING 8240
SWIDTH 1131 0
DWIDTH 44 0
BBX 41 28 2 0
BITMAP
080000000000
7F003C000000
7F807C000000
FFC078000000
E3C0F8000000
E1C0F0000000
E1C1F0000000
E3C1E0000000
FFC3E0000000
7F83C0000000
7F07C0000000
0C0780000000
000F80000000
000F00000000
001F00000000
001E00000000
003E00000000
003C0F003C00
007C1FC0FF00
00783FE1FF00
00F87DE1E780
00F078E1C380
01F078E1C380
01E078E1C380
03E078E1E780
03C03FE1FF80
07C03FC0FF00
07801FC07E00
ENDCHAR
STARTCHAR 2039
ENCODING 8249
SWIDTH 385 0
DWIDTH 15 0
BBX 12 17 2 4
BITMAP
01F0
03E0
07C0
0FC0
1F80
1F00
3E00
7C00
F800
F800
7C00
3E00
1F00
0F80
0FC0
07E0
03F0
ENDCHAR
STARTCHAR 203A
ENCODING 8250
SWIDTH 385 0
DWIDTH 15 0
BBX 13 17 1 4
BITMAP
FC00
7E00
3E00
1F00
0F80
07C0
03E0
01F0
01F8
01F8
03F0
03E0
07C0
0F80
1F00
3E00
7C00
ENDCHAR
STARTCHAR 2044
ENCODING 8260
SWIDTH 488 0
DWIDTH 19 0
BBX 21 27 -1 0
BITMAP
0000F8
0001F0
0001E0
0003E0
0007C0
0007C0
000F80
000F00
001F00
003E00
003E00
007C00
007800
00F800
01F000
01F000
03E000
03C000
07C000
0F8000
0F8000
1F0000
1E0000
3E0000
7C0000
7C0000
F80000
ENDCHAR
STARTCHAR 2070
ENCODING 8304
SWIDTH 334 0
DWIDTH 13 0
BBX 12 15 1 15
BITMAP
0F00
3F80
7FC0
79E0
F1E0
F0E0
F0E0
F0F0
F0E0
F0E0
F0E0
71E0
7FC0
3FC0
1F80
ENDCHAR
STARTCHAR 2074
ENCODING 8308
SWIDTH 334 0
DWIDTH 13 0
BBX 11 15 1 15
BITMAP
0780
0780
0F80
1F80
1B80
3B80
7380
7380
E380
FFE0
FFE0
0380
0380
0380
0380
ENDCHAR
STARTCHAR 2075
ENCODING 8309
SWIDTH 308 0
DWIDTH 12 0
BBX 11 15 1 15
BITMAP
FFC0
FFC0
FFC0
E000
E000
EF00
FFC0
FFC0
E1C0
01E0
E1E0
F1C0
7FC0
7F80
1F00
ENDCHAR
STARTCHAR 2076
ENCODING 8310
SWIDTH 308 0
DWIDTH 12 0
BBX 10 15 1 15
BITMAP
0F00
0E00
1C00
3C00
3800
7600
7F80
FFC0
E1C0
E1C0
E0C0
E1C0
FFC0
7F80
1F00
ENDCHAR
STARTCHAR 2077
ENCODING 8311
SWIDTH 282 0
DWIDTH 11 0
BBX 10 15 1 15
BITMAP
FFC0
FFC0
FFC0
01C0
03C0
0380
0780
0700
0700
0E00
0E00
1C00
1C00
3800
3800
ENDCHAR
STARTCHAR 2078
ENCODING 8312
SWIDTH 308 0
DWIDTH 12 0
BBX 11 15 1 15
BITMAP
1F00
7F80
7FC0
F1C0
E1C0
F1C0
7FC0
3F80
7FC0
F1E0
E0E0
E1E0
FBE0
7FC0
3F80
ENDCHAR
STARTCHAR 2079
ENCODING 8313
SWIDTH 308 0
DWIDTH 12 0
BBX 11 15 1 15
BITMAP
0E00
3F80
7FC0
F1C0
E1E0
E0E0
E1E0
7BC0
7FC0
3DC0
0380
0700
0F00
0E00
1C00
ENDCHAR
STARTCHAR 2080
ENCODING 8320
SWIDTH 334 0
DWIDTH 13 0
BBX 12 15 1 -10
BITMAP
1F00
3FC0
7FC0
71E0
F1E0
F0E0
F0E0
F0F0
F0E0
F0E0
F1E0
71E0
7FC0
3F80
1F00
ENDCHAR
STARTCHAR 2081
ENCODING 8321
SWIDTH 257 0
DWIDTH 10 0
BBX 9 15 1 -10
BITMAP
1C00
3C00
7C00
FC00
FC00
DC00
1C00
1C00
1C00
1C00
1C00
1C00
FF80
FF80
FF80
ENDCHAR
STARTCHAR 2082
ENCODING 8322
SWIDTH 282 0
DWIDTH 11 0
BBX 10 15 1 -10
BITMAP
1E00
7F80
7F80
E1C0
E1C0
01C0
03C0
0780
0F00
1E00
3C00
7800
FFC0
FFC0
FFC0
ENDCHAR
STARTCHAR 2083
ENCODING 8323
SWIDTH 308 0
DWIDTH 12 0
BBX 11 15 1 -10
BITMAP
3F80
7FC0
7BC0
F1E0
01E0
01C0
0FC0
0F80
03C0
01E0
E0E0
F1E0
FFC0
7FC0
1F00
ENDCHAR
STARTCHAR 2084
ENCODING 8324
SWIDTH 334 0
DWIDTH 13 0
BBX 11 15 1 -10
BITMAP
0780
0780
0F80
1F80
1F80
3B80
7380
7380
E380
FFE0
FFE0
FFE0
0380
0380
0380
ENDCHAR
STARTCHAR 2085
ENCODING 8325
SWIDTH 308 0
DWIDTH 12 0
BBX 11 15 1 -10
BITMAP
FFC0
FFC0
FFC0
E000
E000
EF00
FFC0
FBC0
E1C0
01E0
E1E0
F1C0
7FC0
7F80
1F00
ENDCHAR
STARTCHAR 2086
ENCODING 8326
SWIDTH 308 0
DWIDTH 12 0
BBX 10 15 1 -10
BITMAP
0F00
0E00
1C00
3C00
3800
7700
7F80
FFC0
E1C0
E0C0
E1C0
E1C0
7FC0
7F80
1E00
ENDCHAR
STARTCHAR 2087
ENCODING 8327
SWIDTH 282 0
DWIDTH 11 0
BBX 10 15 1 -10
BITMAP
FFC0
FFC0
FFC0
01C0
03C0
0380
0380
0700
0700
0E00
0E00
1C00
1C00
3800
3800
ENDCHAR
STARTCHAR 2088
ENCODING 8328
SWIDTH 308 0
DWIDTH 12 0
BBX 11 15 1 -10
BITMAP
3F00
7FC0
7FC0
F1C0
E1C0
F1C0
7F80
3F80
73C0
E1E0
E1E0
F1E0
FFC0
7FC0
3F00
ENDCHAR
STARTCHAR 2089
ENCODING 8329
SWIDTH 308 0
DWIDTH 12 0
BBX 11 15 1 -10
BITMAP
1F00
7F80
7FC0
F1C0
E0E0
E0E0
E1E0
7BC0
7FC0
1F80
0380
0700
0F00
0E00
1C00
ENDCHAR
STARTCHAR 20AB
ENCODING 8363
SWIDTH 591 0
DWIDTH 23 0
BBX 22 32 1 0
BITMAP
0003E0
0003E0
003FFC
003FFC
003FFC
003FFC
0003E0
07E3E0
1FFBE0
3FFFE0
3FFFE0
7FBFE0
7E07E0
FC07E0
FC03E0
FC03E0
FC03E0
FC03E0
FC03E0
7C07E0
7E0FE0
7FFFE0
3FFFE0
1FFBE0
0FF3E0
03C000
000000
000000
000000
1FFFF0
1FFFF0
1FFFF0
ENDCHAR
STARTCHAR 20AC
ENCODING 8364
SWIDTH 668 0
DWIDTH 26 0
BBX 25 27 0 0
BITMAP
001FC000
007FF000
01FFF800
03FFFC00
03FFFE00
07F07F00
07E01F00
0FC01F80
0F800F80
0F800F80
FFFE0000
FFFE0000
1F800000
1F800000
1F800000
FFFE0000
FFFE0000
1F800000
0F800F80
0FC01F80
0FC01F00
07E03F00
07FDFE00
03FFFE00
01FFFC00
00FFF800
003FE000
ENDCHAR
STARTCHAR 2122
ENCODING 8482
SWIDTH 385 0
DWIDTH 15 0
BBX 13 7 1 20
BITMAP
FBB8
63B8
63F8
63F8
6358
6318
6318
ENDCHAR
STARTCHAR 215B
ENCODING 8539
SWIDTH 900 0
DWIDTH 35 0
BBX 33 27 1 0
BITMAP
1E0001E000
7E0003E000
FE0007C000
FE0007C000
FE000F8000
DE000F0000
9E001F0000
1E003E0000
1E003E0000
1E007C0000
FFC0780000
FFC0F80000
FFC1F00000
0001F03C00
0003E0FF00
0003C0FF80
0007C1E780
000F81E380
000F81E780
001F00FF00
001E00FF00
003E01E780
007C01C380
007C01E380
00F801FF80
00F000FF80
01F0007F00
ENDCHAR
STARTCHAR 215C
ENCODING 8540
SWIDTH 874 0
DWIDTH 34 0
BBX 32 27 1 0
BITMAP
3F8003E0
7FC007C0
7BE007C0
71E00F80
01E00F00
07C01F00
07803E00
07C03E00
01E07C00
F1E07800
7BE0F800
7FE1F000
3FC1F000
1F03E078
0003C1FE
0007C1FF
000F83CF
000F83C7
001F03CF
001E01FE
003E01FE
007C03CF
007C03C7
00F803C7
00F003FF
01F001FF
03E000FE
ENDCHAR
STARTCHAR 215D
ENCODING 8541
SWIDTH 900 0
DWIDTH 35 0
BBX 33 27 1 0
BITMAP
7FC003E000
7FC003E000
7FC007C000
7000078000
77000F8000
7FC01F0000
FFC01F0000
F1E03E0000
01E03C0000
F1C07C0000
7FC0F80000
7FC0F80000
3F81F00000
0001E03C00
0003E0FF00
0007C1FF00
0007C1E780
000F81C780
000F01E780
001F00FF00
003E00FF00
003E01E780
007C01C380
007801C780
00F801FF80
01F001FF00
01F000FE00
ENDCHAR
STARTCHAR 215E
ENCODING 8542
SWIDTH 900 0
DWIDTH 35 0
BBX 33 27 1 0
BITMAP
FFC003E000
FFC007C000
FFC007C000
01C00F8000
03C00F0000
03801F0000
07803E0000
07003E0000
0F007C0000
0E00780000
1E00F80000
1C01F00000
3C01F00000
0003E03C00
0003C0FF00
0007C0FF80
000F81E780
000F81E380
001F01E780
001E00FF00
003E00FF00
007C01E780
007C01C380
00F801E380
00F001FF80
01F000FF80
03E0007F00
ENDCHAR
STARTCHAR 2212
ENCODING 8722
SWIDTH 591 0
DWIDTH 23 0
BBX 17 4 3 10
BITMAP
FFFF80
FFFF80
FFFF80
FFFF80
ENDCHAR
STARTCHAR 2215
ENCODING 8725
SWIDTH 514 0
DWIDTH 20 0
BBX 18 27 1 0
BITMAP
0007C0
0007C0
000F80
000F80
001F00
001F00
003E00
003E00
007C00
007C00
00F800
00F800
01F000
01F000
03E000
03E000
07C000
07C000
0FC000
0F8000
1F8000
1F0000
3F0000
3E0000
7E0000
7C0000
FC0000
ENDCHAR
STARTCHAR 2248
ENCODING 8776
SWIDTH 565 0
DWIDTH 22 0
BBX 15 14 4 5
BITMAP
1C0E
7F9E
FFFE
FFFC
E1F8
0000
0000
0000
0000
1C0E
7F9E
FFFE
FFFC
E1F8
ENDCHAR
STARTCHAR 2260
ENCODING 8800
SWIDTH 720 0
DWIDTH 28 0
BBX 19 23 5 0
BITMAP
0007C0
000780
000F80
001F00
001F00
FFFFE0
FFFFE0
FFFFE0
FFFFE0
00F800
01F000
01F000
03E000
FFFFE0
FFFFE0
FFFFE0
FFFFE0
FFFFE0
1F0000
3E0000
3C0000
7C0000
F80000
ENDCHAR
STARTCHAR 2264
ENCODING 8804
SWIDTH 591 0
DWIDTH 23 0
BBX 17 26 4 0
BITMAP
000100
000700
001F00
007F00
01FF00
07FC00
1FF000
7FC000
7F0000
7C0000
7F8000
3FE000
0FF800
07FE00
01FF00
007F00
001F00
000700
000100
000000
000000
000000
000000
FFFF80
FFFF80
FFFF80
ENDCHAR
STARTCHAR 2265
ENCODING 8805
SWIDTH 617 0
DWIDTH 24 0
BBX 17 26 4 0
BITMAP
400000
700000
7C0000
7F0000
7FC000
1FF000
07FC00
01FF00
007F00
003F00
00FF00
03FE00
0FF800
3FE000
7FC000
7F0000
7C0000
700000
400000
000000
000000
000000
000000
FFFF80
FFFF80
FFFF80
ENDCHAR
ENDFONT
